<?xml version="1.0" encoding="UTF-8" standalone="no"?>
<svg
   id="SVGRoot"
   width="48"
   height="48"
   version="1.1"
   viewBox="0 0 48 48"
   sodipodi:docname="discord.svg"
   inkscape:version="1.1.1 (3bf5ae0d25, 2021-09-20, custom)"
   xmlns:inkscape="http://www.inkscape.org/namespaces/inkscape"
   xmlns:sodipodi="http://sodipodi.sourceforge.net/DTD/sodipodi-0.dtd"
   xmlns="http://www.w3.org/2000/svg"
   xmlns:svg="http://www.w3.org/2000/svg">
  <sodipodi:namedview
     id="namedview33"
     pagecolor="#ffffff"
     bordercolor="#666666"
     borderopacity="1.0"
     inkscape:pageshadow="2"
     inkscape:pageopacity="0.0"
     inkscape:pagecheckerboard="0"
     showgrid="false"
     inkscape:zoom="1.4399935"
     inkscape:cx="-5.9028044"
     inkscape:cy="25.69456"
     inkscape:window-width="1850"
     inkscape:window-height="1053"
     inkscape:window-x="0"
     inkscape:window-y="0"
     inkscape:window-maximized="1"
     inkscape:current-layer="SVGRoot" />
  <defs
     id="defs16">
    <linearGradient
       id="linearGradient887"
       x1="322"
       x2="366"
       y1="84"
       y2="84"
       gradientTransform="rotate(90 214 -106)"
       gradientUnits="userSpaceOnUse">
      <stop
         stop-color="#fff"
         offset="0"
         id="stop2" />
      <stop
         stop-color="#fff"
         stop-opacity=".098039"
         offset=".125"
         id="stop4" />
      <stop
         stop-color="#fff"
         stop-opacity=".098039"
         offset=".925"
         id="stop6" />
      <stop
         stop-color="#fff"
         stop-opacity=".49804"
         offset="1"
         id="stop8" />
    </linearGradient>
    <linearGradient
       id="linearGradient889"
       x1="320"
       x2="368"
       y1="108"
       y2="108"
       gradientTransform="rotate(90 214 -106)"
       gradientUnits="userSpaceOnUse">
      <stop
         stop-color="#fff"
         offset="0"
         id="stop11" />
      <stop
         stop-color="#fff"
         offset="1"
         id="stop13" />
    </linearGradient>
  </defs>
  <path
     d="m13.335 1.5c-10.011 0-11.887 0.90635-11.834 9.7484v12.752 12.752c-0.0527 8.842 1.8229 9.7484 11.834 9.7484h21.331c10.009 0 11.834-0.90625 11.834-9.7484v-12.752-12.752c0-8.8421-1.8254-9.7484-11.834-9.7484z"
     color="#000000"
     id="path20"
     style="fill:#5865f2;fill-opacity:1" />
  <path
     d="m13.335 1.5c-10.011 0-11.887 0.90635-11.834 9.7484v12.752 12.752c-0.0527 8.842 1.8229 9.7484 11.834 9.7484h21.331c10.009 0 11.834-0.90625 11.834-9.7484v-12.752-12.752c0-8.8421-1.8254-9.7484-11.834-9.7484z"
     color="#000000"
     fill="none"
     opacity=".4"
     stroke="#000"
     id="path28" />
  <path
     d="m13.336 2c-4.9905 0-7.8705 0.27628-9.3848 1.4531-0.75713 0.58842-1.2376 1.4035-1.5449 2.6602-0.3073 1.2566-0.4173 2.94-0.4043 5.1328v12.754 12.754c-0.0131 2.1928 0.097 3.8762 0.4043 5.1328 0.30731 1.2566 0.78779 2.0717 1.5449 2.6602 1.5143 1.1768 4.3943 1.4531 9.3848 1.4531h21.33c4.9892 0 7.855-0.27668 9.3633-1.4531 0.75412-0.58824 1.2329-1.4046 1.543-2.6621 0.31003-1.2575 0.42773-2.9395 0.42773-5.1328v-12.752-12.752c0-2.1933-0.1177-3.8753-0.42773-5.1328-0.31004-1.2575-0.78884-2.0739-1.543-2.6621-1.5083-1.1765-4.374-1.4531-9.3633-1.4531zm2.4023 1.0977c6.9474 8.3e-4 13.911 0.0034 20.85 0.05469 2.143 0.08293 4.4643-0.1477 6.4238 0.93164 1.2961 0.69523 1.5486 2.2503 1.7695 3.5645 0.17551 2.2029 0.0915 4.4422 0.13867 6.6699 0.0227 8.4795 0.077 16.969-0.0801 25.447-0.16151 1.4832-0.38135 3.3058-1.7988 4.1426-1.6055 0.82871-3.4755 0.90643-5.248 0.95313-9.4997 0.0678-19.024 0.0843-28.523-0.0176-1.5782-0.11413-3.2705-0.24014-4.6328-1.1211-1.2295-0.99538-1.3608-2.7274-1.5039-4.1934-0.1272-8.9986-0.0836-18.004-0.0527-27.008 0.0997-2.3813-0.24538-4.9 0.70508-7.1602 0.67165-1.5097 2.4657-1.86 3.9394-2.0566 2.6617-0.31658 5.3418-0.14702 8.0137-0.20703z"
     color="#000000"
     fill="url(#linearGradient887)"
     id="path30" />
  <path
     id="rect889"
     style="fill:#ffffff;fill-opacity:1;stroke-width:1.67374"
     d="m 19.771562,13.398218 c 0,0 -3.49424,-0.07661 -7.194981,2.673234 0,0 -3.700581,6.657477 -3.700581,14.855645 0,0 2.158798,3.698412 7.838405,3.878322 0,0 0.953108,-1.127879 1.724094,-2.104462 -3.263845,-0.976578 -4.500417,-3.007387 -4.500417,-3.007387 0,0 0.259038,0.18025 0.721631,0.437244 0.02572,0 0.0517,0.02407 0.103097,0.04977 0.0771,0.05139 0.153967,0.07656 0.231065,0.12797 0.642488,0.359794 1.28586,0.643191 1.876953,0.874489 1.053681,0.436893 2.310355,0.822862 3.775232,1.105554 1.927467,0.359762 4.191042,0.487472 6.6582,0.02488 1.207882,-0.231295 2.440485,-0.565863 3.725464,-1.105552 0.899486,-0.334098 1.900382,-0.820473 2.954065,-1.514362 0,0 -1.283075,2.081386 -4.649719,3.032273 0.770986,0.950883 1.695654,2.054692 1.695654,2.054692 5.679606,-0.179895 7.838407,-3.879131 7.838407,-3.853436 0,-8.198167 -3.700581,-14.855646 -3.700581,-14.855646 -3.675037,-2.749849 -7.194981,-2.673233 -7.194981,-2.673233 l -0.362594,0.41236 c 4.368927,1.310679 6.402252,3.238453 6.402252,3.238453 -2.672754,-1.43918 -5.293854,-2.159475 -7.735314,-2.442172 -1.85037,-0.205601 -3.625935,-0.155828 -5.193609,0.04978 -0.154199,0 -0.283046,0.02763 -0.437244,0.05332 -0.899485,0.102794 -3.083625,0.409569 -5.833482,1.617448 -0.950884,0.411192 -1.514358,0.721631 -1.514358,0.721631 0,0 2.10693,-2.030863 6.732852,-3.341544 z m -0.437246,9.484293 c 1.464877,0 2.649161,1.258418 2.623466,2.826091 0,1.567677 -1.158589,2.826094 -2.623466,2.826094 -1.439175,0 -2.619911,-1.258417 -2.619911,-2.826094 0,-1.567673 1.155036,-2.826091 2.619911,-2.826091 z m 9.381204,0 c 1.439177,0 2.623466,1.258418 2.623466,2.826091 0,1.567677 -1.158591,2.826094 -2.623466,2.826094 -1.439177,0 -2.619912,-1.258417 -2.619912,-2.826094 0,-1.567673 1.155035,-2.826091 2.619912,-2.826091 z" />
</svg>
