<?xml version="1.0" encoding="UTF-8" standalone="no"?>
<svg
   inkscape:version="1.1.1 (3bf5ae0d25, 2021-09-20, custom)"
   sodipodi:docname="firefox.svg"
   id="svg23"
   version="1"
   height="48"
   width="48"
   xmlns:inkscape="http://www.inkscape.org/namespaces/inkscape"
   xmlns:sodipodi="http://sodipodi.sourceforge.net/DTD/sodipodi-0.dtd"
   xmlns="http://www.w3.org/2000/svg"
   xmlns:svg="http://www.w3.org/2000/svg"
   xmlns:rdf="http://www.w3.org/1999/02/22-rdf-syntax-ns#"
   xmlns:cc="http://creativecommons.org/ns#"
   xmlns:dc="http://purl.org/dc/elements/1.1/">
  <metadata
     id="metadata29">
    <rdf:RDF>
      <cc:Work
         rdf:about="">
        <dc:format>image/svg+xml</dc:format>
        <dc:type
           rdf:resource="http://purl.org/dc/dcmitype/StillImage" />
      </cc:Work>
    </rdf:RDF>
  </metadata>
  <defs
     id="defs27">
    <linearGradient
       gradientTransform="matrix(0.41333604,0,0,0.41333604,7.4627797,7.4983172)"
       gradientUnits="userSpaceOnUse"
       y2="66.806"
       x2="15.267"
       y1="12.061"
       x1="70.013"
       id="l">
      <stop
         id="stop969"
         stop-opacity=".8"
         stop-color="#fff44f"
         offset=".167" />
      <stop
         id="stop971"
         stop-opacity=".634"
         stop-color="#fff44f"
         offset=".266" />
      <stop
         id="stop973"
         stop-opacity=".217"
         stop-color="#fff44f"
         offset=".489" />
      <stop
         id="stop975"
         stop-opacity="0"
         stop-color="#fff44f"
         offset=".6" />
    </linearGradient>
    <radialGradient
       gradientUnits="userSpaceOnUse"
       gradientTransform="matrix(0.41333604,0,0,0.41333604,3303.8177,3530.7747)"
       r="80.685997"
       cy="-8503.8613"
       cx="-7918.9229"
       id="k">
      <stop
         id="stop960"
         stop-color="#fff44f"
         offset=".094" />
      <stop
         id="stop962"
         stop-color="#ffe141"
         offset=".231" />
      <stop
         id="stop964"
         stop-color="#ffaf1e"
         offset=".509" />
      <stop
         id="stop966"
         stop-color="#ff980e"
         offset=".626" />
    </radialGradient>
    <radialGradient
       gradientUnits="userSpaceOnUse"
       gradientTransform="matrix(0.41333604,0,0,0.41333604,3303.8177,3530.7747)"
       r="73.720001"
       cy="-8508.1758"
       cx="-7938.3828"
       id="j">
      <stop
         id="stop949"
         stop-color="#fff44f"
         offset=".137" />
      <stop
         id="stop951"
         stop-color="#ff980e"
         offset=".48" />
      <stop
         id="stop953"
         stop-color="#ff5634"
         offset=".592" />
      <stop
         id="stop955"
         stop-color="#ff3647"
         offset=".655" />
      <stop
         id="stop957"
         stop-color="#e31587"
         offset=".904" />
    </radialGradient>
    <radialGradient
       gradientUnits="userSpaceOnUse"
       gradientTransform="matrix(0.04340029,0.41126937,-0.26990843,0.02852019,-1928.605,3508.5335)"
       r="86.499001"
       cy="-8522.8594"
       cx="-7927.165"
       id="i">
      <stop
         id="stop932"
         stop-color="#fff44f"
         offset="0" />
      <stop
         id="stop934"
         stop-color="#ffe847"
         offset=".06" />
      <stop
         id="stop936"
         stop-color="#ffc830"
         offset=".168" />
      <stop
         id="stop938"
         stop-color="#ff980e"
         offset=".304" />
      <stop
         id="stop940"
         stop-color="#ff8b16"
         offset=".356" />
      <stop
         id="stop942"
         stop-color="#ff672a"
         offset=".455" />
      <stop
         id="stop944"
         stop-color="#ff3647"
         offset=".57" />
      <stop
         id="stop946"
         stop-color="#e31587"
         offset=".737" />
    </radialGradient>
    <radialGradient
       gradientUnits="userSpaceOnUse"
       gradientTransform="matrix(0.41333604,0,0,0.41333604,3303.8177,3530.7747)"
       r="118.081"
       cy="-8535.9814"
       cx="-7915.9771"
       id="h">
      <stop
         id="stop921"
         stop-color="#fff44f"
         offset=".113" />
      <stop
         id="stop923"
         stop-color="#ff980e"
         offset=".456" />
      <stop
         id="stop925"
         stop-color="#ff5634"
         offset=".622" />
      <stop
         id="stop927"
         stop-color="#ff3647"
         offset=".716" />
      <stop
         id="stop929"
         stop-color="#e31587"
         offset=".904" />
    </radialGradient>
    <radialGradient
       gradientUnits="userSpaceOnUse"
       gradientTransform="matrix(0.41333604,0,0,0.41333604,3303.8177,3530.7747)"
       r="27.676001"
       cy="-8518.4268"
       cx="-7937.731"
       id="g">
      <stop
         id="stop908"
         stop-color="#ffe226"
         offset="0" />
      <stop
         id="stop910"
         stop-color="#ffdb27"
         offset=".121" />
      <stop
         id="stop912"
         stop-color="#ffc82a"
         offset=".295" />
      <stop
         id="stop914"
         stop-color="#ffa930"
         offset=".502" />
      <stop
         id="stop916"
         stop-color="#ff7e37"
         offset=".732" />
      <stop
         id="stop918"
         stop-color="#ff7139"
         offset=".792" />
    </radialGradient>
    <radialGradient
       gradientUnits="userSpaceOnUse"
       gradientTransform="matrix(0.40176263,-0.09713397,0.11366741,0.47037642,4178.5614,3245.4894)"
       r="20.396999"
       cy="-8491.5459"
       cx="-7935.6201"
       id="f">
      <stop
         id="stop899"
         stop-opacity="0"
         stop-color="#9059ff"
         offset=".206" />
      <stop
         id="stop901"
         stop-opacity=".064"
         stop-color="#8c4ff3"
         offset=".278" />
      <stop
         id="stop903"
         stop-opacity=".45"
         stop-color="#7716a8"
         offset=".747" />
      <stop
         id="stop905"
         stop-opacity=".6"
         stop-color="#6e008b"
         offset=".975" />
    </radialGradient>
    <radialGradient
       gradientUnits="userSpaceOnUse"
       gradientTransform="matrix(0.41333604,0,0,0.41333604,3303.8177,3530.7747)"
       r="38.471001"
       cy="-8460.9844"
       cx="-7945.6479"
       id="e">
      <stop
         id="stop890"
         stop-color="#3a8ee6"
         offset=".353" />
      <stop
         id="stop892"
         stop-color="#5c79f0"
         offset=".472" />
      <stop
         id="stop894"
         stop-color="#9059ff"
         offset=".669" />
      <stop
         id="stop896"
         stop-color="#c139e6"
         offset="1" />
    </radialGradient>
    <radialGradient
       gradientUnits="userSpaceOnUse"
       gradientTransform="matrix(0.41333604,0,0,0.41333604,3303.8177,3530.7747)"
       r="58.534"
       cy="-8533.457"
       cx="-7926.9702"
       id="d">
      <stop
         id="stop881"
         stop-color="#fff44f"
         offset=".132" />
      <stop
         id="stop883"
         stop-color="#ffdc3e"
         offset=".252" />
      <stop
         id="stop885"
         stop-color="#ff9d12"
         offset=".506" />
      <stop
         id="stop887"
         stop-color="#ff980e"
         offset=".526" />
    </radialGradient>
    <radialGradient
       gradientUnits="userSpaceOnUse"
       gradientTransform="matrix(0.41333604,0,0,0.41333604,3303.8177,3530.7747)"
       r="80.796997"
       cy="-8482.0889"
       cx="-7936.7109"
       id="c">
      <stop
         id="stop870"
         stop-color="#960e18"
         offset=".3" />
      <stop
         id="stop872"
         stop-opacity=".74"
         stop-color="#b11927"
         offset=".351" />
      <stop
         id="stop874"
         stop-opacity=".343"
         stop-color="#db293d"
         offset=".435" />
      <stop
         id="stop876"
         stop-opacity=".094"
         stop-color="#f5334b"
         offset=".497" />
      <stop
         id="stop878"
         stop-opacity="0"
         stop-color="#ff3750"
         offset=".53" />
    </radialGradient>
    <radialGradient
       gradientUnits="userSpaceOnUse"
       gradientTransform="matrix(0.41333604,0,0,0.41333604,3303.8177,3530.7747)"
       r="80.796997"
       cy="-8515.1211"
       cx="-7907.187"
       id="b">
      <stop
         id="stop851"
         stop-color="#ffbd4f"
         offset=".129" />
      <stop
         id="stop853"
         stop-color="#ffac31"
         offset=".186" />
      <stop
         id="stop855"
         stop-color="#ff9d17"
         offset=".247" />
      <stop
         id="stop857"
         stop-color="#ff980e"
         offset=".283" />
      <stop
         id="stop859"
         stop-color="#ff563b"
         offset=".403" />
      <stop
         id="stop861"
         stop-color="#ff3750"
         offset=".467" />
      <stop
         id="stop863"
         stop-color="#f5156c"
         offset=".71" />
      <stop
         id="stop865"
         stop-color="#eb0878"
         offset=".782" />
      <stop
         id="stop867"
         stop-color="#e50080"
         offset=".86" />
    </radialGradient>
    <linearGradient
       gradientTransform="matrix(0.41333604,0,0,0.41333604,7.4627797,7.4983172)"
       gradientUnits="userSpaceOnUse"
       y2="74.468002"
       x2="6.447"
       y1="12.393"
       x1="70.786003"
       id="a">
      <stop
         id="stop834"
         stop-color="#fff44f"
         offset=".048" />
      <stop
         id="stop836"
         stop-color="#ffe847"
         offset=".111" />
      <stop
         id="stop838"
         stop-color="#ffc830"
         offset=".225" />
      <stop
         id="stop840"
         stop-color="#ff980e"
         offset=".368" />
      <stop
         id="stop842"
         stop-color="#ff8b16"
         offset=".401" />
      <stop
         id="stop844"
         stop-color="#ff672a"
         offset=".462" />
      <stop
         id="stop846"
         stop-color="#ff3647"
         offset=".534" />
      <stop
         id="stop848"
         stop-color="#e31587"
         offset=".705" />
    </linearGradient>
    <linearGradient
       id="l-7"
       x1="70.013"
       y1="12.061"
       x2="15.267"
       y2="66.806"
       gradientUnits="userSpaceOnUse"
       gradientTransform="matrix(0.35014453,0,0,0.35014453,14.589441,2.5022534)">
      <stop
         offset=".167"
         stop-color="#fff44f"
         stop-opacity=".8"
         id="stop969-0" />
      <stop
         offset=".266"
         stop-color="#fff44f"
         stop-opacity=".634"
         id="stop971-2" />
      <stop
         offset=".489"
         stop-color="#fff44f"
         stop-opacity=".217"
         id="stop973-4" />
      <stop
         offset=".6"
         stop-color="#fff44f"
         stop-opacity="0"
         id="stop975-6" />
    </linearGradient>
    <radialGradient
       id="k-4"
       cx="-7918.9229"
       cy="-8503.8613"
       r="80.685997"
       gradientTransform="matrix(0.35014453,0,0,0.35014453,2806.992,2987.1342)"
       gradientUnits="userSpaceOnUse">
      <stop
         offset=".094"
         stop-color="#fff44f"
         id="stop960-9" />
      <stop
         offset=".231"
         stop-color="#ffe141"
         id="stop962-7" />
      <stop
         offset=".509"
         stop-color="#ffaf1e"
         id="stop964-4" />
      <stop
         offset=".626"
         stop-color="#ff980e"
         id="stop966-2" />
    </radialGradient>
    <radialGradient
       id="j-4"
       cx="-7938.3828"
       cy="-8508.1758"
       r="73.720001"
       gradientTransform="matrix(0.35014453,0,0,0.35014453,2806.992,2987.1342)"
       gradientUnits="userSpaceOnUse">
      <stop
         offset=".137"
         stop-color="#fff44f"
         id="stop949-7" />
      <stop
         offset=".48"
         stop-color="#ff980e"
         id="stop951-7" />
      <stop
         offset=".592"
         stop-color="#ff5634"
         id="stop953-4" />
      <stop
         offset=".655"
         stop-color="#ff3647"
         id="stop955-9" />
      <stop
         offset=".904"
         stop-color="#e31587"
         id="stop957-0" />
    </radialGradient>
    <radialGradient
       id="i-4"
       cx="-7927.165"
       cy="-8522.8594"
       r="86.499001"
       gradientTransform="matrix(0.03676518,0.34839381,-0.22864438,0.02415997,-1625.489,2968.2933)"
       gradientUnits="userSpaceOnUse">
      <stop
         offset="0"
         stop-color="#fff44f"
         id="stop932-2" />
      <stop
         offset=".06"
         stop-color="#ffe847"
         id="stop934-4" />
      <stop
         offset=".168"
         stop-color="#ffc830"
         id="stop936-1" />
      <stop
         offset=".304"
         stop-color="#ff980e"
         id="stop938-7" />
      <stop
         offset=".356"
         stop-color="#ff8b16"
         id="stop940-2" />
      <stop
         offset=".455"
         stop-color="#ff672a"
         id="stop942-0" />
      <stop
         offset=".57"
         stop-color="#ff3647"
         id="stop944-9" />
      <stop
         offset=".737"
         stop-color="#e31587"
         id="stop946-2" />
    </radialGradient>
    <radialGradient
       id="h-7"
       cx="-7915.9771"
       cy="-8535.9814"
       r="118.081"
       gradientTransform="matrix(0.35014453,0,0,0.35014453,2806.992,2987.1342)"
       gradientUnits="userSpaceOnUse">
      <stop
         offset=".113"
         stop-color="#fff44f"
         id="stop921-6" />
      <stop
         offset=".456"
         stop-color="#ff980e"
         id="stop923-0" />
      <stop
         offset=".622"
         stop-color="#ff5634"
         id="stop925-9" />
      <stop
         offset=".716"
         stop-color="#ff3647"
         id="stop927-1" />
      <stop
         offset=".904"
         stop-color="#e31587"
         id="stop929-8" />
    </radialGradient>
    <radialGradient
       id="g-9"
       cx="-7937.731"
       cy="-8518.4268"
       r="27.676001"
       gradientTransform="matrix(0.35014453,0,0,0.35014453,2806.992,2987.1342)"
       gradientUnits="userSpaceOnUse">
      <stop
         offset="0"
         stop-color="#ffe226"
         id="stop908-3" />
      <stop
         offset=".121"
         stop-color="#ffdb27"
         id="stop910-2" />
      <stop
         offset=".295"
         stop-color="#ffc82a"
         id="stop912-5" />
      <stop
         offset=".502"
         stop-color="#ffa930"
         id="stop914-9" />
      <stop
         offset=".732"
         stop-color="#ff7e37"
         id="stop916-7" />
      <stop
         offset=".792"
         stop-color="#ff7139"
         id="stop918-4" />
    </radialGradient>
    <radialGradient
       id="f-8"
       cx="-7935.6201"
       cy="-8491.5459"
       r="20.396999"
       gradientTransform="matrix(0.34034048,-0.08228396,0.09628975,0.39846448,3548.0035,2745.4638)"
       gradientUnits="userSpaceOnUse">
      <stop
         offset=".206"
         stop-color="#9059ff"
         stop-opacity="0"
         id="stop899-3" />
      <stop
         offset=".278"
         stop-color="#8c4ff3"
         stop-opacity=".064"
         id="stop901-8" />
      <stop
         offset=".747"
         stop-color="#7716a8"
         stop-opacity=".45"
         id="stop903-2" />
      <stop
         offset=".975"
         stop-color="#6e008b"
         stop-opacity=".6"
         id="stop905-2" />
    </radialGradient>
    <radialGradient
       id="e-5"
       cx="-7945.6479"
       cy="-8460.9844"
       r="38.471001"
       gradientTransform="matrix(0.35014453,0,0,0.35014453,2806.992,2987.1342)"
       gradientUnits="userSpaceOnUse">
      <stop
         offset=".353"
         stop-color="#3a8ee6"
         id="stop890-8" />
      <stop
         offset=".472"
         stop-color="#5c79f0"
         id="stop892-3" />
      <stop
         offset=".669"
         stop-color="#9059ff"
         id="stop894-7" />
      <stop
         offset="1"
         stop-color="#c139e6"
         id="stop896-3" />
    </radialGradient>
    <radialGradient
       id="d-5"
       cx="-7926.9702"
       cy="-8533.457"
       r="58.534"
       gradientTransform="matrix(0.35014453,0,0,0.35014453,2806.992,2987.1342)"
       gradientUnits="userSpaceOnUse">
      <stop
         offset=".132"
         stop-color="#fff44f"
         id="stop881-3" />
      <stop
         offset=".252"
         stop-color="#ffdc3e"
         id="stop883-6" />
      <stop
         offset=".506"
         stop-color="#ff9d12"
         id="stop885-5" />
      <stop
         offset=".526"
         stop-color="#ff980e"
         id="stop887-7" />
    </radialGradient>
    <radialGradient
       id="c-7"
       cx="-7936.7109"
       cy="-8482.0889"
       r="80.796997"
       gradientTransform="matrix(0.35014453,0,0,0.35014453,2806.992,2987.1342)"
       gradientUnits="userSpaceOnUse">
      <stop
         offset=".3"
         stop-color="#960e18"
         id="stop870-4" />
      <stop
         offset=".351"
         stop-color="#b11927"
         stop-opacity=".74"
         id="stop872-9" />
      <stop
         offset=".435"
         stop-color="#db293d"
         stop-opacity=".343"
         id="stop874-6" />
      <stop
         offset=".497"
         stop-color="#f5334b"
         stop-opacity=".094"
         id="stop876-0" />
      <stop
         offset=".53"
         stop-color="#ff3750"
         stop-opacity="0"
         id="stop878-1" />
    </radialGradient>
    <radialGradient
       id="b-8"
       cx="-7907.187"
       cy="-8515.1211"
       r="80.796997"
       gradientTransform="matrix(0.35014453,0,0,0.35014453,2806.992,2987.1342)"
       gradientUnits="userSpaceOnUse">
      <stop
         offset=".129"
         stop-color="#ffbd4f"
         id="stop851-4" />
      <stop
         offset=".186"
         stop-color="#ffac31"
         id="stop853-2" />
      <stop
         offset=".247"
         stop-color="#ff9d17"
         id="stop855-7" />
      <stop
         offset=".283"
         stop-color="#ff980e"
         id="stop857-7" />
      <stop
         offset=".403"
         stop-color="#ff563b"
         id="stop859-4" />
      <stop
         offset=".467"
         stop-color="#ff3750"
         id="stop861-4" />
      <stop
         offset=".71"
         stop-color="#f5156c"
         id="stop863-9" />
      <stop
         offset=".782"
         stop-color="#eb0878"
         id="stop865-3" />
      <stop
         offset=".86"
         stop-color="#e50080"
         id="stop867-9" />
    </radialGradient>
    <linearGradient
       id="a-7"
       x1="70.786003"
       y1="12.393"
       x2="6.447"
       y2="74.468002"
       gradientUnits="userSpaceOnUse"
       gradientTransform="matrix(0.35014453,0,0,0.35014453,14.589441,2.5022534)">
      <stop
         offset=".048"
         stop-color="#fff44f"
         id="stop834-6" />
      <stop
         offset=".111"
         stop-color="#ffe847"
         id="stop836-7" />
      <stop
         offset=".225"
         stop-color="#ffc830"
         id="stop838-2" />
      <stop
         offset=".368"
         stop-color="#ff980e"
         id="stop840-9" />
      <stop
         offset=".401"
         stop-color="#ff8b16"
         id="stop842-5" />
      <stop
         offset=".462"
         stop-color="#ff672a"
         id="stop844-0" />
      <stop
         offset=".534"
         stop-color="#ff3647"
         id="stop846-4" />
      <stop
         offset=".705"
         stop-color="#e31587"
         id="stop848-2" />
    </linearGradient>
    <linearGradient
       id="linearGradient1686-0"
       x1="322"
       x2="366"
       y1="84"
       y2="84"
       gradientTransform="rotate(90,214,-106)"
       gradientUnits="userSpaceOnUse">
      <stop
         stop-color="#fff"
         offset="0"
         id="stop17" />
      <stop
         stop-color="#fff"
         stop-opacity=".098039"
         offset=".125"
         id="stop19" />
      <stop
         stop-color="#fff"
         stop-opacity=".098039"
         offset=".925"
         id="stop21" />
      <stop
         stop-color="#fff"
         stop-opacity=".49804"
         offset="1"
         id="stop23" />
    </linearGradient>
  </defs>
  <sodipodi:namedview
     inkscape:current-layer="svg23"
     inkscape:window-maximized="1"
     inkscape:window-y="0"
     inkscape:window-x="0"
     inkscape:cy="43.002625"
     inkscape:cx="8.6509186"
     inkscape:zoom="5.953125"
     showgrid="false"
     id="namedview25"
     inkscape:window-height="1053"
     inkscape:window-width="1850"
     inkscape:pageshadow="2"
     inkscape:pageopacity="0"
     guidetolerance="10"
     gridtolerance="10"
     objecttolerance="10"
     borderopacity="1"
     bordercolor="#666666"
     pagecolor="#ffffff"
     inkscape:document-rotation="0"
     inkscape:pagecheckerboard="0" />
  <path
     d="m 13.65801,2.0000015 c -2.62209,0 -4.6868,0.05008 -6.38559,0.286752 -1.6989,0.236637 -3.08901,0.680501 -4.1074,1.523501 -1.01832,0.843009 -1.5558,1.996101 -1.83832,3.406402 -0.28233,1.4103 -0.33752,3.1272975 -0.32467,5.3083985 v 12.475 12.480998 c -0.0113,2.1777 0.0427,3.893901 0.32467,5.302701 0.28233,1.4103 0.82,2.5634 1.83832,3.406401 1.01828,0.843008 2.4085,1.286899 4.1074,1.523503 1.6989,0.23663 3.7635,0.28675 6.38559,0.28675 h 20.686 c 2.62208,0 4.68571,-0.05 6.38101,-0.28675 1.69527,-0.236752 3.0813,-0.682105 4.0958,-1.525404 1.01458,-0.843307 1.54878,-1.995598 1.83368,-3.4045 0.28497,-1.408899 0.34545,-3.122499 0.34545,-5.302701 V 25.000055 12.519053 c 0,-2.180198 -0.0609,-3.8936985 -0.34545,-5.3026995 -0.28498,-1.408898 -0.8191,-2.5612 -1.83368,-3.4045 -1.01461,-0.843318 -2.40053,-1.288698 -4.0958,-1.525398 -1.6953,-0.23675 -3.75893,-0.286753 -6.38101,-0.286753 z"
     color="#000000"
     color-rendering="auto"
     dominant-baseline="auto"
     image-rendering="auto"
     opacity="0.1"
     shape-rendering="auto"
     solid-color="#000000"
     style="font-variant-ligatures:normal;font-variant-position:normal;font-variant-caps:normal;font-variant-numeric:normal;font-variant-alternates:normal;font-feature-settings:normal;text-indent:0;text-decoration-line:none;text-decoration-style:solid;text-decoration-color:#000000;text-transform:none;text-orientation:mixed;white-space:normal;shape-padding:0;isolation:auto;mix-blend-mode:normal;stroke-width:0.999999"
     id="path28" />
  <path
     d="m 13.33501,1.4999995 c -10.01102,0 -11.88699,0.90635 -11.834,9.7483995 V 24.0004 36.752398 c -0.0525,8.842001 1.8229,9.748404 11.834,9.748404 h 21.33101 c 10.00899,0 11.83397,-0.906252 11.83397,-9.748404 V 24.0004 11.248399 c 0,-8.8420985 -1.8254,-9.7483995 -11.83397,-9.7483995 z"
     color="#000000"
     fill="url(#linearGradient1686)"
     id="path30"
     style="fill:#330b5c;fill-opacity:1;stroke-width:0.999999" />
  <path
     d="m 31.93101,2.4999005 c 13.62198,0 15.56798,1.941898 15.56798,15.5509975 V 29.9489 c 0,13.608999 -1.94668,15.551 -15.56798,15.551 H 16.06799 C 2.446,45.4999 0.5,43.558001 0.5,29.9489 V 18.050898 C 0.5,4.4419005 2.44672,2.4999005 16.06799,2.4999005 Z"
     enable-background="new"
     fill="url(#linearGradient986)"
     id="path34"
     style="stroke-width:0.999999" />
  <path
     d="m 13.33501,1.4999995 c -10.01102,0 -11.88699,0.90635 -11.834,9.7483995 V 24.0004 36.752398 c -0.0525,8.842001 1.8229,9.748404 11.834,9.748404 h 21.33101 c 10.00899,0 11.83397,-0.906252 11.83397,-9.748404 V 24.0004 11.248399 c 0,-8.8420985 -1.8254,-9.7483995 -11.83397,-9.7483995 z"
     color="#000000"
     fill="none"
     opacity="0.4"
     stroke="#000000"
     id="path46"
     style="stroke-width:0.999999" />
  <path
     d="m 13.33599,2.0000015 c -4.99048,0 -7.87048,0.276283 -9.38479,1.453099 -0.75711,0.58842 -1.23761,1.403498 -1.54488,2.660198 -0.30728,1.256602 -0.4173,2.94 -0.4043,5.1328025 v 12.753997 12.754001 c -0.0113,2.192799 0.0971,3.876201 0.4043,5.132799 0.30727,1.256602 0.78777,2.071703 1.54488,2.660202 1.51431,1.176801 4.39431,1.4531 9.38479,1.4531 h 21.33003 c 4.98917,0 7.855,-0.2767 9.36329,-1.4531 0.75413,-0.588238 1.23288,-1.404601 1.54299,-2.662099 0.30993,-1.257502 0.42773,-2.939501 0.42773,-5.132804 V 24.0002 11.248198 c 0,-2.1932965 -0.11754,-3.8752995 -0.42773,-5.1327975 -0.30992,-1.257502 -0.78882,-2.073899 -1.54299,-2.662099 -1.50829,-1.176503 -4.37401,-1.4531 -9.36329,-1.4531 z m 2.40231,1.097699 c 6.94741,8.28e-4 13.911,0.0034 20.84999,0.05469 2.14303,0.08292 4.4643,-0.147704 6.4238,0.931638 1.29611,0.695233 1.54862,2.250301 1.7695,3.564503 0.17537,2.202898 0.0915,4.4421995 0.13871,6.6698985 0.0227,8.479498 0.0771,16.968998 -0.0801,25.447 -0.16138,1.4832 -0.38135,3.305798 -1.79879,4.142601 -1.6055,0.82871 -3.4755,0.906429 -5.24799,0.953129 C 28.29369,44.92896 18.7694,44.94544 9.27042,44.8434 7.69221,44.729258 5.99992,44.603249 4.63759,43.722301 3.40811,42.726921 3.27681,40.9949 3.13372,39.5289 3.00635,30.530302 3.05022,21.5249 3.08122,12.520902 3.18102,10.139599 2.83593,7.6208995 3.78633,5.3607005 c 0.67162,-1.509698 2.46569,-1.86 3.9394,-2.0566 2.6617,-0.316573 5.3418,-0.147023 8.0137,-0.207042 z"
     color="#000000"
     fill="url(#linearGradient1686-0)"
     id="path48"
     style="fill:url(#linearGradient1686-0);stroke-width:0.999999" />
  <path
     style="fill:url(#a);stroke-width:0.413336"
     id="path980"
     d="m 38.841596,18.588535 c -0.696058,-1.674837 -2.108013,-3.483182 -3.213688,-4.054826 a 16.643388,16.643388 0 0 1 1.622344,4.862485 l 0.0028,0.02687 C 35.441847,14.907366 32.370347,13.086621 29.861811,9.1219023 29.734916,8.9214345 29.608022,8.7205522 29.484435,8.508511 29.413748,8.3874041 29.357127,8.2782835 29.30794,8.177843 a 2.9152589,2.9152589 0 0 1 -0.238907,-0.634471 0.0413336,0.0413336 0 0 0 -0.03637,-0.04134 0.05704038,0.05704038 0 0 0 -0.03017,0 c -0.0022,0 -0.0053,0.00378 -0.008,0.00461 -0.0025,8.263e-4 -0.008,0.00461 -0.01157,0.00626 l 0.0063,-0.010743 c -4.023781,2.356006 -5.38903,6.717528 -5.514684,8.899115 a 8.0133451,8.0133451 0 0 0 -4.408642,1.699224 4.7893243,4.7893243 0 0 0 -0.413336,-0.313308 7.4268213,7.4268213 0 0 1 -0.04506,-3.915531 11.864811,11.864811 0 0 0 -3.856011,2.980152 h -0.0074 c -0.63492,-0.804766 -0.590279,-3.458382 -0.553905,-4.012666 a 2.8635918,2.8635918 0 0 0 -0.534857,0.283962 11.666409,11.666409 0 0 0 -1.565717,1.341275 13.989357,13.989357 0 0 0 -1.497517,1.796771 v 0.0025 -0.003 a 13.529727,13.529727 0 0 0 -2.1493464,4.853804 l -0.021496,0.105818 c -0.030173,0.140949 -0.1388802,0.846925 -0.1574809,1.000273 0,0.01198 -0.00248,0.02315 -0.00378,0.03513 a 15.267392,15.267392 0 0 0 -0.2599854,2.2085 v 0.08266 a 16.02049,16.02049 0 0 0 31.8078597,2.709004 c 0.02687,-0.206668 0.04878,-0.411268 0.07274,-0.620003 a 16.474334,16.474334 0 0 0 -1.039007,-8.04729 z m -18.46372,12.539789 c 0.07482,0.03596 0.145081,0.07481 0.221961,0.109122 l 0.01109,0.0071 q -0.11656,-0.0558 -0.233121,-0.116147 z m 3.669597,-9.662143 z M 37.254385,19.42678 v -0.0153 l 0.0028,0.01695 z" />
  <path
     style="fill:url(#b);stroke-width:0.413336"
     id="path982"
     d="m 38.841596,18.588535 c -0.696058,-1.674837 -2.108013,-3.483182 -3.213688,-4.054826 a 16.643388,16.643388 0 0 1 1.622344,4.862485 v 0.01529 l 0.0028,0.01695 a 14.508094,14.508094 0 0 1 -0.498438,10.812045 c -1.835979,3.939506 -6.280168,7.977386 -13.236613,7.78105 C 16.001486,37.808662 9.3819096,32.231105 8.1443812,24.925805 c -0.2252672,-1.151968 0,-1.736011 0.1132545,-2.672217 a 11.93549,11.93549 0 0 0 -0.2575083,2.210521 v 0.08266 a 16.02049,16.02049 0 0 0 31.8078596,2.709004 c 0.02687,-0.206667 0.04877,-0.411269 0.07275,-0.620004 A 16.474334,16.474334 0 0 0 38.841611,18.58853 Z" />
  <path
     style="fill:url(#c);stroke-width:0.413336"
     id="path984"
     d="m 38.841596,18.588535 c -0.696058,-1.674837 -2.108013,-3.483182 -3.213688,-4.054826 a 16.643388,16.643388 0 0 1 1.622344,4.862485 v 0.01529 l 0.0028,0.01695 a 14.508094,14.508094 0 0 1 -0.498438,10.812045 c -1.835979,3.939506 -6.280168,7.977386 -13.236613,7.78105 C 16.001486,37.808662 9.3819096,32.231105 8.1443812,24.925805 c -0.2252672,-1.151968 0,-1.736011 0.1132545,-2.672217 a 11.93549,11.93549 0 0 0 -0.2575083,2.210521 v 0.08266 a 16.02049,16.02049 0 0 0 31.8078596,2.709004 c 0.02687,-0.206667 0.04877,-0.411269 0.07275,-0.620004 A 16.474334,16.474334 0 0 0 38.841611,18.58853 Z" />
  <path
     style="fill:url(#d);stroke-width:0.413336"
     id="path986"
     d="m 31.056826,20.471694 c 0.03472,0.02439 0.06696,0.04878 0.09961,0.07316 A 8.7213898,8.7213898 0 0 0 29.668425,18.604247 C 24.689379,13.62437 28.363524,7.8066659 28.983115,7.5111299 l 0.0063,-0.00909 c -4.023827,2.3560151 -5.389076,6.7175371 -5.514731,8.8991241 0.186829,-0.01281 0.372003,-0.02852 0.562964,-0.02852 a 8.0848523,8.0848523 0 0 1 7.019272,4.099054 z" />
  <path
     style="fill:url(#e);stroke-width:0.413336"
     id="path988"
     d="m 24.047886,21.466181 c -0.02645,0.398456 -1.434276,1.772798 -1.926559,1.772798 -4.555376,0 -5.294834,2.755712 -5.294834,2.755712 0.201708,2.320467 1.818679,4.231733 3.773344,5.242753 0.08928,0.0463 0.179802,0.08804 0.270323,0.12896 q 0.235188,0.104165 0.470375,0.192614 a 7.1238461,7.1238461 0 0 0 2.084454,0.402177 c 7.984412,0.374483 9.531116,-9.548062 3.769212,-12.427359 a 5.5304357,5.5304357 0 0 1 3.862625,0.937858 8.0848523,8.0848523 0 0 0 -7.019273,-4.099053 c -0.190134,0 -0.376135,0.01571 -0.562964,0.02852 a 8.0133451,8.0133451 0 0 0 -4.408641,1.699225 c 0.244281,0.206668 0.519977,0.482776 1.100714,1.055245 1.087074,1.070955 3.875025,2.180349 3.881224,2.31055 z" />
  <path
     style="fill:url(#f);stroke-width:0.413336"
     id="path990"
     d="m 24.047886,21.466181 c -0.02645,0.398456 -1.434276,1.772798 -1.926559,1.772798 -4.555376,0 -5.294834,2.755712 -5.294834,2.755712 0.201708,2.320467 1.818679,4.231733 3.773344,5.242753 0.08928,0.0463 0.179802,0.08804 0.270323,0.12896 q 0.235188,0.104165 0.470375,0.192614 a 7.1238461,7.1238461 0 0 0 2.084454,0.402177 c 7.984412,0.374483 9.531116,-9.548062 3.769212,-12.427359 a 5.5304357,5.5304357 0 0 1 3.862625,0.937858 8.0848523,8.0848523 0 0 0 -7.019273,-4.099053 c -0.190134,0 -0.376135,0.01571 -0.562964,0.02852 a 8.0133451,8.0133451 0 0 0 -4.408641,1.699225 c 0.244281,0.206668 0.519977,0.482776 1.100714,1.055245 1.087074,1.070955 3.875025,2.180349 3.881224,2.31055 z" />
  <path
     style="fill:url(#g);stroke-width:0.413336"
     id="path992"
     d="m 18.319049,17.567595 c 0.129788,0.08267 0.236842,0.154588 0.330669,0.219483 a 7.4268213,7.4268213 0 0 1 -0.04506,-3.915533 11.864811,11.864811 0 0 0 -3.856011,2.980152 c 0.07812,-0.0022 2.401895,-0.04382 3.570395,0.715898 z" />
  <path
     style="fill:url(#h);stroke-width:0.413336"
     id="path994"
     d="m 8.1464372,24.925803 c 1.2362877,7.3053 7.8571048,12.882857 15.3736188,13.095724 6.956446,0.196749 11.400634,-3.841544 13.236673,-7.78105 a 14.508094,14.508094 0 0 0 0.498483,-10.812043 v -0.01529 c 0,-0.01199 -0.0025,-0.01902 0,-0.0153 l 0.0028,0.02687 c 0.568337,3.710517 -1.318955,7.3053 -4.269348,9.73613 l -0.0091,0.02067 c -5.748633,4.681858 -11.250136,2.82474 -12.363663,2.06668 q -0.116559,-0.0558 -0.23312,-0.116147 c -3.351686,-1.602094 -4.736362,-4.655821 -4.439586,-7.274718 a 4.1139332,4.1139332 0 0 1 -3.794838,-2.387015 6.0421458,6.0421458 0 0 1 5.889624,-0.236429 7.9773848,7.9773848 0 0 0 6.014867,0.236429 c -0.0063,-0.130201 -2.794152,-1.240008 -3.881226,-2.310548 -0.580738,-0.57247 -0.856433,-0.848166 -1.100714,-1.055247 A 4.7893243,4.7893243 0 0 0 18.657572,17.79121 c -0.09506,-0.06489 -0.202122,-0.135161 -0.33067,-0.21948 -1.1685,-0.759713 -3.492274,-0.717966 -3.569155,-0.7159 h -0.0074 c -0.634921,-0.804765 -0.59028,-3.458381 -0.553906,-4.012665 a 2.8635918,2.8635918 0 0 0 -0.534857,0.283961 11.666409,11.666409 0 0 0 -1.565718,1.341276 13.989357,13.989357 0 0 0 -1.503716,1.792638 v 0.0025 -0.003 a 13.529727,13.529727 0 0 0 -2.1493469,4.853805 c -0.00791,0.03265 -0.5770174,2.520937 -0.2963623,3.811372 z" />
  <path
     style="fill:url(#i);stroke-width:0.413336"
     id="path996"
     d="m 29.669256,18.604243 a 8.7213898,8.7213898 0 0 1 1.48801,1.942678 c 0.08804,0.06654 0.170295,0.132681 0.240149,0.196749 3.631983,3.34802 1.728983,8.080718 1.58721,8.417587 2.950392,-2.430829 4.836032,-6.025612 4.269347,-9.736129 C 35.441907,14.907365 32.370407,13.08662 29.861871,9.1219011 29.734976,8.9214333 29.608082,8.7205511 29.484495,8.5085099 29.413808,8.3874028 29.357187,8.2782823 29.308001,8.1778418 a 2.9152589,2.9152589 0 0 1 -0.238908,-0.6344709 0.0413336,0.0413336 0 0 0 -0.03637,-0.04134 0.05704038,0.05704038 0 0 0 -0.03017,0 c -0.0022,0 -0.0055,0.00378 -0.008,0.00461 -0.0025,8.264e-4 -0.008,0.00461 -0.01157,0.00626 -0.619591,0.2938822 -4.293736,6.1115861 0.686138,11.0914591 z" />
  <path
     style="fill:url(#j);stroke-width:0.413336"
     id="path998"
     d="m 31.394935,20.741603 c -0.06985,-0.06406 -0.152108,-0.130202 -0.240149,-0.196749 -0.03265,-0.02439 -0.06489,-0.04878 -0.09962,-0.07316 a 5.5304357,5.5304357 0 0 0 -3.862615,-0.93786 c 5.761904,2.880951 4.216028,12.801842 -3.769212,12.42736 a 7.1238461,7.1238461 0 0 1 -2.084452,-0.402177 q -0.235189,-0.08804 -0.470377,-0.192614 c -0.09052,-0.04133 -0.181041,-0.08266 -0.27032,-0.12896 l 0.01109,0.0071 c 1.113591,0.760125 6.61344,2.617244 12.363771,-2.06668 l 0.0091,-0.02067 c 0.143431,-0.334803 2.04643,-5.06874 -1.587206,-8.415522 z" />
  <path
     style="fill:url(#k);stroke-width:0.413336"
     id="path1000"
     d="m 16.826493,25.994691 c 0,0 0.739458,-2.755712 5.294834,-2.755712 0.492283,0 1.901347,-1.374342 1.926559,-1.772798 a 7.9773848,7.9773848 0 0 1 -6.014865,-0.236428 6.0421458,6.0421458 0 0 0 -5.889624,0.236428 4.1139332,4.1139332 0 0 0 3.794838,2.387016 c -0.296776,2.61931 1.087899,5.673036 4.439641,7.274713 0.07482,0.03596 0.145081,0.07482 0.221961,0.109123 -1.956318,-1.010607 -3.571636,-2.921873 -3.773344,-5.24234 z" />
  <path
     style="fill:url(#l);stroke-width:0.413336"
     id="path1002"
     d="m 38.841596,18.588535 c -0.696058,-1.674837 -2.108013,-3.483182 -3.213688,-4.054826 a 16.643388,16.643388 0 0 1 1.622344,4.862485 l 0.0028,0.02687 C 35.441847,14.907366 32.370347,13.086621 29.861811,9.1219023 29.734916,8.9214345 29.608022,8.7205522 29.484435,8.508511 29.413748,8.3874041 29.357127,8.2782835 29.30794,8.177843 a 2.9152589,2.9152589 0 0 1 -0.238907,-0.634471 0.0413336,0.0413336 0 0 0 -0.03637,-0.04134 0.05704038,0.05704038 0 0 0 -0.03017,0 c -0.0022,0 -0.0053,0.00378 -0.008,0.00461 -0.0025,8.263e-4 -0.008,0.00461 -0.01157,0.00626 l 0.0063,-0.010743 c -4.023825,2.356015 -5.389075,6.717537 -5.514729,8.899124 0.186828,-0.01281 0.372002,-0.02852 0.562963,-0.02852 a 8.0848523,8.0848523 0 0 1 7.019269,4.09894 5.5304357,5.5304357 0 0 0 -3.862625,-0.937858 c 5.761904,2.880951 4.216028,12.801842 -3.769211,12.427359 a 7.1238461,7.1238461 0 0 1 -2.084453,-0.402177 q -0.235189,-0.08804 -0.470376,-0.192614 c -0.09052,-0.04133 -0.181042,-0.08267 -0.270323,-0.12896 l 0.01109,0.0071 q -0.11656,-0.0558 -0.233121,-0.116146 c 0.07482,0.03596 0.14508,0.07482 0.22196,0.109122 -1.956314,-1.01102 -3.571631,-2.922286 -3.773339,-5.242753 0,0 0.739458,-2.755712 5.294834,-2.755712 0.492284,0 1.901346,-1.374341 1.92656,-1.772798 -0.0063,-0.1302 -2.794152,-1.240007 -3.881225,-2.310548 -0.580738,-0.572471 -0.856433,-0.848166 -1.100715,-1.055247 a 4.7893243,4.7893243 0 0 0 -0.413284,-0.313393 7.4268213,7.4268213 0 0 1 -0.04506,-3.915533 11.864811,11.864811 0 0 0 -3.856011,2.980152 h -0.0074 c -0.634921,-0.804766 -0.59028,-3.458381 -0.553906,-4.012665 a 2.8635918,2.8635918 0 0 0 -0.534857,0.283962 11.666409,11.666409 0 0 0 -1.565718,1.341275 13.989357,13.989357 0 0 0 -1.497516,1.796771 v 0.0025 -0.003 a 13.529727,13.529727 0 0 0 -2.1493469,4.853805 l -0.021496,0.105817 c -0.030173,0.140949 -0.1653346,0.856847 -0.1847605,1.010608 0,0.01157 0,-0.01198 0,0 A 18.638974,18.638974 0 0 0 8,24.464025 v 0.08266 a 16.02049,16.02049 0 0 0 31.807972,2.709005 c 0.02687,-0.206668 0.04877,-0.41127 0.07275,-0.620004 a 16.474334,16.474334 0 0 0 -1.039123,-8.04718 z m -1.589277,0.822953 0.0028,0.01695 z" />
</svg>
