<?xml version="1.0" encoding="UTF-8" standalone="no"?>
<svg
   viewBox="0 0 47.999998 48"
   version="1.1"
   id="svg14"
   sodipodi:docname="google-drive.svg"
   width="48"
   height="48"
   inkscape:version="1.1.1 (3bf5ae0d25, 2021-09-20, custom)"
   xmlns:inkscape="http://www.inkscape.org/namespaces/inkscape"
   xmlns:sodipodi="http://sodipodi.sourceforge.net/DTD/sodipodi-0.dtd"
   xmlns="http://www.w3.org/2000/svg"
   xmlns:svg="http://www.w3.org/2000/svg"
   xmlns:rdf="http://www.w3.org/1999/02/22-rdf-syntax-ns#"
   xmlns:cc="http://creativecommons.org/ns#"
   xmlns:dc="http://purl.org/dc/elements/1.1/">
  <metadata
     id="metadata20">
    <rdf:RDF>
      <cc:Work
         rdf:about="">
        <dc:format>image/svg+xml</dc:format>
        <dc:type
           rdf:resource="http://purl.org/dc/dcmitype/StillImage" />
      </cc:Work>
    </rdf:RDF>
  </metadata>
  <defs
     id="defs18">
    <linearGradient
       id="linearGradient1686-0"
       x1="322"
       x2="366"
       y1="84"
       y2="84"
       gradientTransform="rotate(90,214.00001,-106)"
       gradientUnits="userSpaceOnUse">
      <stop
         stop-color="#fff"
         offset="0"
         id="stop17" />
      <stop
         stop-color="#fff"
         stop-opacity=".098039"
         offset=".125"
         id="stop19" />
      <stop
         stop-color="#fff"
         stop-opacity=".098039"
         offset=".925"
         id="stop21" />
      <stop
         stop-color="#fff"
         stop-opacity=".49804"
         offset="1"
         id="stop23" />
    </linearGradient>
  </defs>
  <sodipodi:namedview
     pagecolor="#ffffff"
     bordercolor="#666666"
     borderopacity="1"
     objecttolerance="10"
     gridtolerance="10"
     guidetolerance="10"
     inkscape:pageopacity="0"
     inkscape:pageshadow="2"
     inkscape:window-width="1850"
     inkscape:window-height="1053"
     id="namedview16"
     showgrid="false"
     inkscape:zoom="8.5384615"
     inkscape:cx="43.626126"
     inkscape:cy="39"
     inkscape:window-x="0"
     inkscape:window-y="0"
     inkscape:window-maximized="1"
     inkscape:current-layer="svg14"
     inkscape:pagecheckerboard="0" />
  <path
     d="m 13.65801,2.0000012 c -2.62209,0 -4.6868,0.05008 -6.38559,0.286752 -1.6989,0.236637 -3.08901,0.680501 -4.1074,1.523501 -1.01832,0.843009 -1.5558,1.996101 -1.83832,3.406402 -0.28233,1.4103 -0.33752,3.1272978 -0.32467,5.3083988 v 12.475 12.480998 c -0.0113,2.1777 0.0427,3.893901 0.32467,5.302701 0.28233,1.4103 0.82,2.5634 1.83832,3.406401 1.01828,0.843008 2.4085,1.286899 4.1074,1.523503 1.6989,0.23663 3.7635,0.28675 6.38559,0.28675 h 20.686 c 2.62208,0 4.68571,-0.05 6.38101,-0.28675 1.69527,-0.236752 3.0813,-0.682105 4.0958,-1.525404 1.01458,-0.843307 1.54878,-1.995598 1.83368,-3.4045 0.28497,-1.408899 0.34545,-3.122499 0.34545,-5.302701 V 25.000055 12.519053 c 0,-2.180198 -0.0609,-3.8936988 -0.34545,-5.3026998 -0.28498,-1.408898 -0.8191,-2.5612 -1.83368,-3.4045 -1.01461,-0.843318 -2.40053,-1.288698 -4.0958,-1.525398 -1.6953,-0.23675 -3.75893,-0.286753 -6.38101,-0.286753 z"
     color="#000000"
     color-rendering="auto"
     dominant-baseline="auto"
     image-rendering="auto"
     opacity="0.1"
     shape-rendering="auto"
     solid-color="#000000"
     style="font-variant-ligatures:normal;font-variant-position:normal;font-variant-caps:normal;font-variant-numeric:normal;font-variant-alternates:normal;font-feature-settings:normal;text-indent:0;text-decoration-line:none;text-decoration-style:solid;text-decoration-color:#000000;text-transform:none;text-orientation:mixed;white-space:normal;shape-padding:0;isolation:auto;mix-blend-mode:normal;stroke-width:0.999999"
     id="path28" />
  <path
     d="m 13.33501,1.4999995 c -10.01102,0 -11.88699,0.9063497 -11.834,9.7483995 V 24.0004 36.752398 c -0.0525,8.842001 1.8229,9.748404 11.834,9.748404 h 21.33101 c 10.00899,0 11.83397,-0.906252 11.83397,-9.748404 V 24.0004 11.248399 c 0,-8.8420988 -1.8254,-9.7483995 -11.83397,-9.7483995 z"
     color="#000000"
     fill="url(#linearGradient1686)"
     id="path30"
     style="fill:#ffffff;fill-opacity:1;stroke-width:0.999999" />
  <path
     d="m 31.93101,2.4999002 c 13.62198,0 15.56798,1.941898 15.56798,15.5509978 V 29.9489 c 0,13.608999 -1.94668,15.551 -15.56798,15.551 H 16.06799 C 2.446,45.4999 0.5,43.558001 0.5,29.9489 V 18.050898 C 0.5,4.4419002 2.44672,2.4999002 16.06799,2.4999002 Z"
     enable-background="new"
     fill="url(#linearGradient986)"
     id="path34"
     style="stroke-width:0.999999" />
  <path
     d="m 13.33501,1.4999995 c -10.01102,0 -11.88699,0.9063497 -11.834,9.7483995 V 24.0004 36.752398 c -0.0525,8.842001 1.8229,9.748404 11.834,9.748404 h 21.33101 c 10.00899,0 11.83397,-0.906252 11.83397,-9.748404 V 24.0004 11.248399 c 0,-8.8420988 -1.8254,-9.7483995 -11.83397,-9.7483995 z"
     color="#000000"
     fill="none"
     opacity="0.4"
     stroke="#000000"
     id="path46"
     style="stroke-width:0.999999" />
  <path
     d="m 13.33599,2.0000012 c -4.99048,0 -7.87048,0.276283 -9.38479,1.453099 -0.75711,0.58842 -1.23761,1.403498 -1.54488,2.660198 -0.30728,1.256602 -0.4173,2.94 -0.4043,5.1328028 v 12.753997 12.754001 c -0.0113,2.192799 0.0971,3.876201 0.4043,5.132799 0.30727,1.256602 0.78777,2.071703 1.54488,2.660202 1.51431,1.176801 4.39431,1.4531 9.38479,1.4531 h 21.33003 c 4.98917,0 7.855,-0.2767 9.36329,-1.4531 0.75413,-0.588238 1.23288,-1.404601 1.54299,-2.662099 0.30993,-1.257502 0.42773,-2.939501 0.42773,-5.132804 V 24.0002 11.248198 c 0,-2.1932968 -0.11754,-3.8752998 -0.42773,-5.1327978 -0.30992,-1.257502 -0.78882,-2.073899 -1.54299,-2.662099 -1.50829,-1.176503 -4.37401,-1.4531 -9.36329,-1.4531 z m 2.40231,1.097699 c 6.94741,8.28e-4 13.911,0.0034 20.84999,0.05469 2.14303,0.08292 4.4643,-0.147704 6.4238,0.931638 1.29611,0.695233 1.54862,2.250301 1.7695,3.564503 0.17537,2.202898 0.0915,4.4421998 0.13871,6.6698988 0.0227,8.479498 0.0771,16.968998 -0.0801,25.447 -0.16138,1.4832 -0.38135,3.305798 -1.79879,4.142601 -1.6055,0.82871 -3.4755,0.906429 -5.24799,0.953129 C 28.29369,44.92896 18.7694,44.94544 9.27042,44.8434 7.69221,44.729258 5.99992,44.603249 4.63759,43.722301 3.40811,42.726921 3.27681,40.9949 3.13372,39.5289 3.00635,30.530302 3.05022,21.5249 3.08122,12.520902 3.18102,10.139599 2.83593,7.6208992 3.78633,5.3607002 c 0.67162,-1.509698 2.46569,-1.86 3.9394,-2.0566 2.6617,-0.316573 5.3418,-0.147023 8.0137,-0.207042 z"
     color="#000000"
     fill="url(#linearGradient1686-0)"
     id="path48"
     style="fill:url(#linearGradient1686-0);stroke-width:0.999999" />
  <path
     d="m 8.5076923,35.425641 1.5794877,2.728205 c 0.328205,0.574359 0.8,1.025641 1.353846,1.353847 L 17.082051,29.74359 H 5.8 c 0,0.635897 0.1641026,1.271795 0.4923077,1.846154 z"
     fill="#0066da"
     id="path2"
     style="stroke-width:0.410256" />
  <path
     d="M 23.707693,18.25641 18.066666,8.4923077 C 17.512821,8.8205128 17.041025,9.2717949 16.71282,9.8461538 L 6.2923077,27.897435 A 3.7169231,3.7169231 0 0 0 5.8,29.74359 h 11.282051 z"
     fill="#00ac47"
     id="path4"
     style="stroke-width:0.410256" />
  <path
     d="M 35.974359,39.507693 C 36.528205,39.179487 37,38.728205 37.328205,38.153846 l 0.65641,-1.128205 3.138462,-5.435897 c 0.328205,-0.574359 0.492308,-1.210257 0.492308,-1.846154 H 30.332513 l 2.400821,4.717948 z"
     fill="#ea4335"
     id="path6"
     style="stroke-width:0.410256" />
  <path
     d="M 23.707693,18.25641 29.348718,8.4923077 C 28.794872,8.1641025 28.158975,8 27.502565,8 H 19.912821 C 19.25641,8 18.620513,8.1846154 18.066666,8.4923077 Z"
     fill="#00832d"
     id="path8"
     style="stroke-width:0.410256" />
  <path
     d="M 30.333334,29.74359 H 17.082051 l -5.641025,9.764103 C 11.994872,39.835897 12.630769,40 13.28718,40 h 20.841025 c 0.65641,0 1.292308,-0.184615 1.846154,-0.492307 z"
     fill="#2684fc"
     id="path10"
     style="stroke-width:0.410256" />
  <path
     d="M 35.912821,18.871795 30.702565,9.8461538 c -0.328206,-0.5743589 -0.8,-1.025641 -1.353847,-1.3538461 l -5.641025,9.7641023 6.625641,11.48718 h 11.261538 c 0,-0.635897 -0.164103,-1.271795 -0.492307,-1.846155 z"
     fill="#ffba00"
     id="path12"
     style="stroke-width:0.410256" />
</svg>
