<?xml version="1.0" encoding="UTF-8" standalone="no"?>
<svg
   viewBox="186 38 48 48"
   version="1.1"
   id="svg18"
   sodipodi:docname="google-agenda.svg"
   width="48"
   height="48"
   inkscape:version="1.1.1 (3bf5ae0d25, 2021-09-20, custom)"
   xmlns:inkscape="http://www.inkscape.org/namespaces/inkscape"
   xmlns:sodipodi="http://sodipodi.sourceforge.net/DTD/sodipodi-0.dtd"
   xmlns="http://www.w3.org/2000/svg"
   xmlns:svg="http://www.w3.org/2000/svg"
   xmlns:rdf="http://www.w3.org/1999/02/22-rdf-syntax-ns#"
   xmlns:cc="http://creativecommons.org/ns#"
   xmlns:dc="http://purl.org/dc/elements/1.1/">
  <metadata
     id="metadata24">
    <rdf:RDF>
      <cc:Work
         rdf:about="">
        <dc:format>image/svg+xml</dc:format>
        <dc:type
           rdf:resource="http://purl.org/dc/dcmitype/StillImage" />
      </cc:Work>
    </rdf:RDF>
  </metadata>
  <defs
     id="defs22">
    <linearGradient
       id="linearGradient1686-0"
       x1="322"
       x2="366"
       y1="84"
       y2="84"
       gradientTransform="rotate(90,287.99999,6.0000002)"
       gradientUnits="userSpaceOnUse">
      <stop
         stop-color="#fff"
         offset="0"
         id="stop17" />
      <stop
         stop-color="#fff"
         stop-opacity=".098039"
         offset=".125"
         id="stop19" />
      <stop
         stop-color="#fff"
         stop-opacity=".098039"
         offset=".925"
         id="stop21" />
      <stop
         stop-color="#fff"
         stop-opacity=".49804"
         offset="1"
         id="stop23" />
    </linearGradient>
  </defs>
  <sodipodi:namedview
     pagecolor="#ffffff"
     bordercolor="#666666"
     borderopacity="1"
     objecttolerance="10"
     gridtolerance="10"
     guidetolerance="10"
     inkscape:pageopacity="0"
     inkscape:pageshadow="2"
     inkscape:window-width="1850"
     inkscape:window-height="1053"
     id="namedview20"
     showgrid="false"
     inkscape:zoom="8.7763158"
     inkscape:cx="29.682159"
     inkscape:cy="20.509745"
     inkscape:window-x="0"
     inkscape:window-y="0"
     inkscape:window-maximized="1"
     inkscape:current-layer="svg18"
     inkscape:document-rotation="0"
     inkscape:pagecheckerboard="0" />
  <path
     d="m 199.65801,40.000001 c -2.62209,0 -4.6868,0.05008 -6.38559,0.286752 -1.6989,0.236637 -3.08901,0.680501 -4.1074,1.523501 -1.01832,0.843009 -1.5558,1.996101 -1.83832,3.406402 -0.28233,1.4103 -0.33752,3.127298 -0.32467,5.308399 v 12.475 12.480995 c -0.0113,2.1777 0.0427,3.8939 0.32467,5.3027 0.28233,1.4103 0.82,2.5634 1.83832,3.4064 1.01828,0.84301 2.4085,1.2869 4.1074,1.52351 1.6989,0.23663 3.7635,0.28675 6.38559,0.28675 h 20.686 c 2.62208,0 4.68571,-0.05 6.38101,-0.28675 1.69527,-0.23675 3.0813,-0.68211 4.0958,-1.52541 1.01458,-0.8433 1.54878,-1.99559 1.83368,-3.4045 0.28497,-1.40889 0.34545,-3.1225 0.34545,-5.3027 V 63.000055 50.519053 c 0,-2.180198 -0.0609,-3.893699 -0.34545,-5.3027 -0.28498,-1.408898 -0.8191,-2.5612 -1.83368,-3.4045 -1.01461,-0.843318 -2.40053,-1.288698 -4.0958,-1.525398 -1.6953,-0.23675 -3.75893,-0.286753 -6.38101,-0.286753 z"
     color="#000000"
     color-rendering="auto"
     dominant-baseline="auto"
     image-rendering="auto"
     opacity="0.1"
     shape-rendering="auto"
     solid-color="#000000"
     style="font-variant-ligatures:normal;font-variant-position:normal;font-variant-caps:normal;font-variant-numeric:normal;font-variant-alternates:normal;font-feature-settings:normal;text-indent:0;text-decoration-line:none;text-decoration-style:solid;text-decoration-color:#000000;text-transform:none;text-orientation:mixed;white-space:normal;shape-padding:0;isolation:auto;mix-blend-mode:normal;stroke-width:0.999999"
     id="path28" />
  <path
     d="m 199.33501,39.499999 c -10.01102,0 -11.88699,0.90635 -11.834,9.7484 V 62.0004 74.7524 c -0.0525,8.842 1.8229,9.7484 11.834,9.7484 h 21.33101 c 10.00899,0 11.83397,-0.90625 11.83397,-9.7484 V 62.0004 49.248399 c 0,-8.842099 -1.8254,-9.7484 -11.83397,-9.7484 z"
     color="#000000"
     fill="url(#linearGradient1686)"
     id="path30"
     style="fill:#ffffff;fill-opacity:1;stroke-width:0.999999" />
  <path
     d="m 217.93101,40.4999 c 13.62198,0 15.56798,1.941898 15.56798,15.550998 V 67.9489 c 0,13.609 -1.94668,15.551 -15.56798,15.551 H 202.06799 C 188.446,83.4999 186.5,81.558 186.5,67.9489 V 56.050898 C 186.5,42.4419 188.44672,40.4999 202.06799,40.4999 Z"
     enable-background="new"
     fill="url(#linearGradient986)"
     id="path34"
     style="stroke-width:0.999999" />
  <path
     d="m 199.33501,39.499999 c -10.01102,0 -11.88699,0.90635 -11.834,9.7484 V 62.0004 74.7524 c -0.0525,8.842 1.8229,9.7484 11.834,9.7484 h 21.33101 c 10.00899,0 11.83397,-0.90625 11.83397,-9.7484 V 62.0004 49.248399 c 0,-8.842099 -1.8254,-9.7484 -11.83397,-9.7484 z"
     color="#000000"
     fill="none"
     opacity="0.4"
     stroke="#000000"
     id="path46"
     style="stroke-width:0.999999" />
  <path
     d="m 199.33599,40.000001 c -4.99048,0 -7.87048,0.276283 -9.38479,1.453099 -0.75711,0.58842 -1.23761,1.403498 -1.54488,2.660198 -0.30728,1.256602 -0.4173,2.94 -0.4043,5.132803 V 62.000098 74.7541 c -0.0113,2.1928 0.0971,3.8762 0.4043,5.1328 0.30727,1.2566 0.78777,2.0717 1.54488,2.6602 1.51431,1.1768 4.39431,1.4531 9.38479,1.4531 h 21.33003 c 4.98917,0 7.855,-0.2767 9.36329,-1.4531 0.75413,-0.58824 1.23288,-1.4046 1.54299,-2.6621 0.30993,-1.2575 0.42773,-2.9395 0.42773,-5.1328 V 62.0002 49.248198 c 0,-2.193297 -0.11754,-3.8753 -0.42773,-5.132798 -0.30992,-1.257502 -0.78882,-2.073899 -1.54299,-2.662099 -1.50829,-1.176503 -4.37401,-1.4531 -9.36329,-1.4531 z m 2.40231,1.097699 c 6.94741,8.28e-4 13.911,0.0034 20.84999,0.05469 2.14303,0.08292 4.4643,-0.147704 6.4238,0.931638 1.29611,0.695233 1.54862,2.250301 1.7695,3.564503 0.17537,2.202898 0.0915,4.4422 0.13871,6.669899 0.0227,8.479498 0.0771,16.968998 -0.0801,25.447 -0.16138,1.4832 -0.38135,3.3058 -1.79879,4.1426 -1.6055,0.82871 -3.4755,0.90643 -5.24799,0.95313 -9.49973,0.0678 -19.02402,0.0843 -28.523,-0.0178 -1.57821,-0.11414 -3.2705,-0.24015 -4.63283,-1.1211 -1.22948,-0.99538 -1.36078,-2.7274 -1.50387,-4.1934 -0.12737,-8.998598 -0.0835,-18.004 -0.0525,-27.007998 0.0998,-2.381303 -0.24529,-4.900003 0.70511,-7.160202 0.67162,-1.509698 2.46569,-1.86 3.9394,-2.0566 2.6617,-0.316573 5.3418,-0.147023 8.0137,-0.207042 z"
     color="#000000"
     fill="url(#linearGradient1686-0)"
     id="path48"
     style="fill:url(#linearGradient1686-0);stroke-width:0.999999" />
  <path
     id="path2-3"
     style="fill:#ffffff;stroke-width:0.421053"
     d="M 196.52455,46 C 195.12875,46 194,47.130997 194,48.526785 v 21.895089 5.05134 c 0,1.395788 1.12875,2.526785 2.52455,2.526786 h 5.05358 16.84152 L 226,70.421874 V 53.580357 48.526785 C 226,47.130997 224.86901,46 223.47321,46 h -5.05356 z" />
  <path
     fill="#ffffff"
     d="m 218.42105,53.578947 h -16.8421 v 16.842106 h 16.8421 z"
     id="path2"
     style="stroke-width:0.421053" />
  <path
     fill="#ea4335"
     d="M 218.42105,78 226,70.421053 h -7.57895 z"
     id="path4"
     style="stroke-width:0.421053" />
  <path
     fill="#fbbc04"
     d="m 226,53.578947 h -7.57895 V 70.421053 H 226 Z"
     id="path6"
     style="stroke-width:0.421053" />
  <path
     fill="#34a853"
     d="m 218.42105,70.421053 h -16.8421 V 78 h 16.8421 z"
     id="path8"
     style="stroke-width:0.421053" />
  <path
     fill="#188038"
     d="m 194,70.421053 v 5.052632 C 194,76.869473 195.13053,78 196.52632,78 h 5.05263 v -7.578947 z"
     id="path10"
     style="stroke-width:0.421053" />
  <path
     fill="#1967d2"
     d="M 226,53.578947 V 48.526315 C 226,47.130527 224.86947,46 223.47368,46 h -5.05263 v 7.578947 z"
     id="path12"
     style="stroke-width:0.421053" />
  <path
     fill="#4285f4"
     d="M 218.42105,46 H 196.52632 C 195.13053,46 194,47.130527 194,48.526315 v 21.894738 h 7.57895 V 53.578947 h 16.8421 z"
     id="path14"
     style="stroke-width:0.421053" />
  <path
     fill="#4285f4"
     d="m 205.03368,66.64421 c -0.62947,-0.425263 -1.06526,-1.046315 -1.30315,-1.867368 l 1.46105,-0.602105 c 0.13263,0.505263 0.36421,0.896842 0.69474,1.174736 0.32841,0.277895 0.72841,0.414737 1.19578,0.414737 0.4779,0 0.88843,-0.145263 1.23158,-0.435789 0.34317,-0.290526 0.51579,-0.661053 0.51579,-1.109474 0,-0.458947 -0.18105,-0.833684 -0.54315,-1.12421 -0.36211,-0.290527 -0.81685,-0.43579 -1.36,-0.43579 h -0.84422 v -1.446315 h 0.7579 c 0.46737,0 0.86105,-0.126317 1.18105,-0.378947 0.32,-0.252632 0.48,-0.597895 0.48,-1.037895 0,-0.39158 -0.14315,-0.703158 -0.42947,-0.936843 -0.28631,-0.233684 -0.64843,-0.351579 -1.08843,-0.351579 -0.42947,0 -0.77052,0.11368 -1.02315,0.343159 a 2.0143158,2.0143158 0 0 0 -0.55158,0.84421 l -1.44632,-0.602105 c 0.19158,-0.543159 0.54317,-1.023159 1.05895,-1.437895 0.5158,-0.414737 1.17474,-0.623158 1.97474,-0.623158 0.59158,0 1.12421,0.11368 1.59579,0.343158 0.47157,0.229473 0.8421,0.547368 1.10947,0.951578 0.26737,0.406317 0.4,0.861053 0.4,1.366317 0,0.515789 -0.1242,0.951578 -0.37263,1.309473 -0.24842,0.357895 -0.55369,0.63158 -0.91579,0.823158 v 0.08632 a 2.7810527,2.7810527 0 0 1 1.17474,0.915788 c 0.30526,0.410527 0.45895,0.901053 0.45895,1.473685 0,0.572632 -0.14527,1.08421 -0.43579,1.532632 -0.29053,0.448421 -0.69263,0.802105 -1.20211,1.058947 -0.51157,0.256842 -1.08632,0.387368 -1.72421,0.387368 -0.73894,0.0021 -1.42106,-0.210526 -2.05053,-0.635789 z m 8.97474,-7.250525 -1.60421,1.16 -0.80211,-1.216843 2.8779,-2.075789 h 1.10315 v 9.791579 h -1.57473 z"
     id="path16"
     style="stroke-width:0.421053" />
</svg>
