<?xml version="1.0" encoding="UTF-8" standalone="no"?>
<svg
   inkscape:version="1.1.1 (3bf5ae0d25, 2021-09-20, custom)"
   sodipodi:docname="Instagram.svg"
   id="svg28"
   version="1.1"
   height="48"
   width="48"
   xmlns:inkscape="http://www.inkscape.org/namespaces/inkscape"
   xmlns:sodipodi="http://sodipodi.sourceforge.net/DTD/sodipodi-0.dtd"
   xmlns:xlink="http://www.w3.org/1999/xlink"
   xmlns="http://www.w3.org/2000/svg"
   xmlns:svg="http://www.w3.org/2000/svg"
   xmlns:rdf="http://www.w3.org/1999/02/22-rdf-syntax-ns#"
   xmlns:cc="http://creativecommons.org/ns#"
   xmlns:dc="http://purl.org/dc/elements/1.1/">
  <metadata
     id="metadata32">
    <rdf:RDF>
      <cc:Work
         rdf:about="">
        <dc:format>image/svg+xml</dc:format>
        <dc:type
           rdf:resource="http://purl.org/dc/dcmitype/StillImage" />
      </cc:Work>
    </rdf:RDF>
  </metadata>
  <sodipodi:namedview
     inkscape:current-layer="svg28"
     inkscape:window-maximized="1"
     inkscape:window-y="0"
     inkscape:window-x="0"
     inkscape:cy="26.920045"
     inkscape:cx="24.931633"
     inkscape:zoom="3.2689395"
     showgrid="false"
     id="namedview30"
     inkscape:window-height="1053"
     inkscape:window-width="1850"
     inkscape:pageshadow="2"
     inkscape:pageopacity="0"
     guidetolerance="10"
     gridtolerance="10"
     objecttolerance="10"
     borderopacity="1"
     bordercolor="#666666"
     pagecolor="#ffffff"
     inkscape:document-rotation="0"
     inkscape:pagecheckerboard="0" />
  <defs
     id="defs20">
    <linearGradient
       id="b">
      <stop
         id="stop2"
         stop-color="#3771c8"
         offset="0" />
      <stop
         id="stop4"
         offset=".128"
         stop-color="#3771c8" />
      <stop
         id="stop6"
         stop-opacity="0"
         stop-color="#60f"
         offset="1" />
    </linearGradient>
    <linearGradient
       id="a">
      <stop
         id="stop9"
         stop-color="#fd5"
         offset="0" />
      <stop
         id="stop11"
         stop-color="#fd5"
         offset=".1" />
      <stop
         id="stop13"
         stop-color="#ff543e"
         offset=".5" />
      <stop
         id="stop15"
         stop-color="#c837ab"
         offset="1" />
    </linearGradient>
    <radialGradient
       fy="578.08801"
       fx="158.429"
       gradientTransform="matrix(0,-0.68594099,0.63815305,0,-290.95543,161.12568)"
       gradientUnits="userSpaceOnUse"
       xlink:href="#a"
       r="65"
       cy="578.08801"
       cx="158.429"
       id="c" />
    <radialGradient
       fy="473.45499"
       fx="147.694"
       gradientTransform="matrix(0.06019868,0.30065421,-1.2396207,0.24820794,619.2199,-211.97293)"
       gradientUnits="userSpaceOnUse"
       xlink:href="#b"
       r="65"
       cy="473.45499"
       cx="147.694"
       id="d" />
    <radialGradient
       id="d-3"
       cx="147.694"
       cy="473.45499"
       r="65"
       xlink:href="#b"
       gradientUnits="userSpaceOnUse"
       gradientTransform="matrix(0.03745696,0.18707374,-0.77131957,0.1544405,386.46685,-98.505158)"
       fx="147.694"
       fy="473.45499" />
    <linearGradient
       id="linearGradient1686-0"
       x1="322"
       x2="366"
       y1="84"
       y2="84"
       gradientTransform="rotate(90,214,-106)"
       gradientUnits="userSpaceOnUse">
      <stop
         stop-color="#fff"
         offset="0"
         id="stop17" />
      <stop
         stop-color="#fff"
         stop-opacity=".098039"
         offset=".125"
         id="stop19" />
      <stop
         stop-color="#fff"
         stop-opacity=".098039"
         offset=".925"
         id="stop21" />
      <stop
         stop-color="#fff"
         stop-opacity=".49804"
         offset="1"
         id="stop23" />
    </linearGradient>
    <radialGradient
       inkscape:collect="always"
       xlink:href="#b"
       id="radialGradient1662"
       cx="-3.7969308"
       cy="6.5746946"
       fx="-3.7969308"
       fy="6.5746946"
       r="22.500029"
       gradientTransform="matrix(0.22151561,0.98576436,-3.386865,0.76107791,19.359128,3.5471613)"
       gradientUnits="userSpaceOnUse" />
    <radialGradient
       inkscape:collect="always"
       xlink:href="#a"
       id="radialGradient2896"
       cx="0.96285981"
       cy="54.154785"
       fx="0.96285981"
       fy="54.154785"
       r="22.500029"
       gradientTransform="matrix(-0.00671171,-2.106624,1.9764272,-0.00629693,-91.217505,51.53932)"
       gradientUnits="userSpaceOnUse" />
  </defs>
  <path
     d="m 13.65801,2.0000015 c -2.62209,0 -4.6868,0.05008 -6.38559,0.286752 C 5.57352,2.5233905 4.18341,2.9672555 3.16502,3.810255 2.1467,4.653264 1.60922,5.806356 1.3267,7.216657 1.04437,8.626957 0.98918,10.343954 1.00203,12.525055 v 12.475 12.480998 c -0.0113,2.1777 0.0427,3.893901 0.32467,5.302701 0.28233,1.4103 0.82,2.5634 1.83832,3.406401 1.01828,0.843008 2.4085,1.286899 4.1074,1.523503 1.6989,0.23663 3.7635,0.28675 6.38559,0.28675 h 20.686 c 2.62208,0 4.68571,-0.05 6.38101,-0.28675 1.69527,-0.236752 3.0813,-0.682105 4.0958,-1.525404 1.01458,-0.843307 1.54878,-1.995598 1.83368,-3.4045 0.28497,-1.408899 0.34545,-3.122499 0.34545,-5.302701 V 25.000055 12.519053 c 0,-2.180198 -0.0609,-3.893698 -0.34545,-5.302699 -0.28498,-1.408898 -0.8191,-2.5612 -1.83368,-3.4045 -1.01461,-0.8433185 -2.40053,-1.2886985 -4.0958,-1.5253985 -1.6953,-0.23675 -3.75893,-0.286753 -6.38101,-0.286753 z"
     color="#000000"
     color-rendering="auto"
     dominant-baseline="auto"
     image-rendering="auto"
     opacity="0.1"
     shape-rendering="auto"
     solid-color="#000000"
     style="font-variant-ligatures:normal;font-variant-position:normal;font-variant-caps:normal;font-variant-numeric:normal;font-variant-alternates:normal;font-feature-settings:normal;text-indent:0;text-decoration-line:none;text-decoration-style:solid;text-decoration-color:#000000;text-transform:none;text-orientation:mixed;white-space:normal;shape-padding:0;isolation:auto;mix-blend-mode:normal;stroke-width:0.999999"
     id="path28" />
  <path
     d="m 13.33501,1.4999995 c -10.01102,0 -11.88699,0.90635 -11.834,9.7483995 V 24.0004 36.752398 c -0.0525,8.842001 1.8229,9.748404 11.834,9.748404 h 21.33101 c 10.00899,0 11.83397,-0.906252 11.83397,-9.748404 V 24.0004 11.248399 c 0,-8.8420985 -1.8254,-9.7483995 -11.83397,-9.7483995 z"
     color="#000000"
     fill="url(#linearGradient1686)"
     id="path30"
     style="fill:url(#radialGradient2896);fill-opacity:1;stroke-width:0.999999" />
  <path
     d="M 13.335076,1.5 C 3.3240562,1.5 1.4480862,2.4063498 1.5010762,11.2484 v 12.752001 12.751998 c -0.0525,8.842001 1.8229,9.748404 11.8339998,9.748404 h 21.33101 c 10.00899,0 11.83397,-0.906252 11.83397,-9.748404 V 24.000401 11.2484 c 0,-8.8420992 -1.8254,-9.7484 -11.83397,-9.7484 z"
     color="#000000"
     fill="url(#linearGradient1686)"
     id="path30-7"
     style="fill:url(#radialGradient1662);fill-opacity:1;stroke-width:0.999999" />
  <path
     d="m 31.93101,2.4999015 c 13.62198,0 15.56798,1.9418975 15.56798,15.5509965 V 29.9489 c 0,13.608999 -1.94668,15.551 -15.56798,15.551 H 16.06799 C 2.446,45.4999 0.5,43.558001 0.5,29.9489 V 18.050898 C 0.5,4.441901 2.44672,2.4999015 16.06799,2.4999015 Z"
     enable-background="new"
     fill="url(#linearGradient986)"
     id="path34"
     style="stroke-width:0.999999" />
  <path
     d="m 13.33501,1.4999995 c -10.01102,0 -11.88699,0.90635 -11.834,9.7483995 V 24.0004 36.752398 c -0.0525,8.842001 1.8229,9.748404 11.834,9.748404 h 21.33101 c 10.00899,0 11.83397,-0.906252 11.83397,-9.748404 V 24.0004 11.248399 c 0,-8.8420985 -1.8254,-9.7483995 -11.83397,-9.7483995 z"
     color="#000000"
     fill="none"
     opacity="0.4"
     stroke="#000000"
     id="path46"
     style="stroke-width:0.999999" />
  <path
     d="m 13.33599,2.0000015 c -4.99048,0 -7.87048,0.276284 -9.38479,1.453099 C 3.19409,4.041521 2.71359,4.856599 2.40632,6.113299 c -0.30728,1.256602 -0.4173,2.94 -0.4043,5.132802 v 12.753997 12.754001 c -0.0113,2.192799 0.0971,3.876201 0.4043,5.132799 0.30727,1.256602 0.78777,2.071703 1.54488,2.660202 1.51431,1.176801 4.39431,1.4531 9.38479,1.4531 h 21.33003 c 4.98917,0 7.855,-0.2767 9.36329,-1.4531 0.75413,-0.588238 1.23288,-1.404601 1.54299,-2.662099 0.30993,-1.257502 0.42773,-2.939501 0.42773,-5.132804 V 24.0002 11.248198 c 0,-2.193296 -0.11754,-3.875299 -0.42773,-5.132797 C 45.26238,4.857899 44.78348,4.041502 44.02931,3.4533015 42.52102,2.2767985 39.6553,2.0002025 34.66602,2.0002025 Z m 2.40231,1.097699 c 6.94741,8.28e-4 13.911,0.0034 20.84999,0.05469 2.14303,0.08292 4.4643,-0.147705 6.4238,0.9316375 1.29611,0.695233 1.54862,2.250301 1.7695,3.564503 0.17537,2.202898 0.0915,4.442199 0.13871,6.669898 0.0227,8.479498 0.0771,16.968998 -0.0801,25.447 -0.16138,1.4832 -0.38135,3.305798 -1.79879,4.142601 -1.6055,0.82871 -3.4755,0.906429 -5.24799,0.953129 -9.49973,0.0678 -19.02402,0.08428 -28.523,-0.01776 C 7.69221,44.729257 5.99992,44.603248 4.63759,43.7223 3.40811,42.72692 3.27681,40.994899 3.13372,39.528899 3.00635,30.530301 3.05022,21.524899 3.08122,12.520901 3.18102,10.139598 2.83593,7.620899 3.78633,5.3607 4.45795,3.851002 6.25202,3.5006995 7.72573,3.3041005 c 2.6617,-0.316573 5.3418,-0.147024 8.0137,-0.207042 z"
     color="#000000"
     fill="url(#linearGradient1686-0)"
     id="path48"
     style="fill:url(#linearGradient1686-0);stroke-width:0.999999" />
  <path
     style="stroke-width:0.346089"
     id="path26"
     d="m 23.996958,7.3835089 c -4.511613,0 -5.077814,0.019728 -6.849788,0.1003661 -1.768513,0.080984 -2.975671,0.3609702 -4.031934,0.7717776 -1.092602,0.4243048 -2.019428,0.9918903 -2.942792,1.9156014 -0.9240574,0.923365 -1.491643,1.85019 -1.9173321,2.942446 -0.4118456,1.056609 -0.6921776,2.264113 -0.7717779,4.031935 -0.079255,1.771974 -0.1000206,2.338521 -0.1000206,6.850134 0,4.511613 0.020073,5.076084 0.1003661,6.848058 0.081331,1.768515 0.3613167,2.975672 0.7717779,4.031934 0.4246509,1.092603 0.9922365,2.019428 1.9159476,2.942793 0.923019,0.924057 1.849844,1.493027 2.941754,1.917332 1.056955,0.410807 2.26446,0.690794 4.032627,0.771778 1.771974,0.08063 2.33783,0.100366 6.849096,0.100366 4.51196,0 5.076431,-0.01972 6.848405,-0.100366 1.768513,-0.08098 2.977055,-0.360971 4.034011,-0.771778 1.092256,-0.424305 2.017697,-0.993275 2.940716,-1.917332 0.924057,-0.923365 1.491642,-1.85019 1.917331,-2.942446 0.408384,-1.056609 0.688717,-2.264114 0.771779,-4.031934 0.0796,-1.771974 0.100366,-2.336792 0.100366,-6.848405 0,-4.511613 -0.02076,-5.077814 -0.100366,-6.849789 -0.08306,-1.768512 -0.363395,-2.975671 -0.771779,-4.031933 C 39.309656,12.021444 38.742071,11.094619 37.818014,10.171254 36.893956,9.2471968 35.969899,8.6796112 34.876259,8.2556526 33.817228,7.8448452 32.609378,7.5648594 30.840864,7.4838746 29.068889,7.4032362 28.504766,7.3835086 23.991767,7.3835086 Z m -1.490256,2.9936681 c 0.4423,-6.92e-4 0.935823,0 1.490256,0 4.435475,0 4.961183,0.01593 6.712739,0.09552 1.619694,0.07406 2.49876,0.344705 3.084343,0.572085 0.775239,0.301097 1.327942,0.66103 1.909025,1.242459 0.581429,0.581429 0.941362,1.135171 1.243151,1.91041 0.22738,0.584889 0.498368,1.463955 0.572085,3.083651 0.0796,1.751208 0.09691,2.277263 0.09691,6.71066 0,4.433397 -0.01731,4.959453 -0.09691,6.710662 -0.07406,1.619694 -0.344705,2.49876 -0.572085,3.08365 -0.301097,0.775239 -0.661722,1.327251 -1.243151,1.908333 -0.581429,0.58143 -1.13344,0.941361 -1.909025,1.242459 -0.584891,0.228419 -1.464649,0.498367 -3.084343,0.572431 -1.751209,0.0796 -2.277264,0.09691 -6.712739,0.09691 -4.435818,0 -4.961527,-0.01731 -6.712736,-0.09691 -1.619696,-0.07476 -2.498762,-0.345396 -3.08469,-0.572778 -0.775238,-0.301096 -1.32898,-0.661029 -1.91041,-1.242458 -0.581429,-0.581429 -0.941361,-1.133786 -1.24315,-1.90937 C 10.818591,33.2 10.547604,32.320934 10.473887,30.701238 c -0.0796,-1.751208 -0.09552,-2.277263 -0.09552,-6.713429 0,-4.436166 0.01593,-4.959451 0.09552,-6.71066 0.07406,-1.619696 0.344704,-2.498762 0.572085,-3.084344 0.301097,-0.775239 0.661721,-1.328981 1.24315,-1.91041 0.58143,-0.581429 1.135172,-0.941361 1.91041,-1.243151 0.585583,-0.228418 1.464994,-0.498367 3.08469,-0.572777 1.53248,-0.06922 2.126369,-0.08998 5.22248,-0.09344 z m 10.357742,2.758327 c -1.100561,0 -1.993471,0.891871 -1.993471,1.992779 0,1.100562 0.89291,1.993471 1.993471,1.993471 1.100564,0 1.993473,-0.892909 1.993473,-1.993471 0,-1.100562 -0.892909,-1.993471 -1.993473,-1.993471 z m -8.867486,2.329177 c -4.711305,0 -8.531086,3.819781 -8.531086,8.531088 0,4.711307 3.819781,8.529358 8.531086,8.529358 4.711307,0 8.529705,-3.818051 8.529705,-8.529358 0,-4.711307 -3.818743,-8.531088 -8.53005,-8.531088 z m 0,2.993668 c 3.058041,0 5.537421,2.479034 5.537421,5.53742 0,3.058041 -2.47938,5.53742 -5.537421,5.53742 -3.058386,0 -5.53742,-2.479379 -5.53742,-5.53742 0,-3.058386 2.479034,-5.53742 5.53742,-5.53742 z"
     fill="#ffffff" />
</svg>
