<?xml version="1.0" encoding="UTF-8" standalone="no"?>
<svg
   version="1.1"
   viewBox="0 0 48 48"
   height="48"
   width="48"
   id="svg52"
   sodipodi:docname="kdenlive.svg"
   inkscape:version="1.1 (c4e8f9ed74, 2021-05-24)"
   xmlns:inkscape="http://www.inkscape.org/namespaces/inkscape"
   xmlns:sodipodi="http://sodipodi.sourceforge.net/DTD/sodipodi-0.dtd"
   xmlns:xlink="http://www.w3.org/1999/xlink"
   xmlns="http://www.w3.org/2000/svg"
   xmlns:svg="http://www.w3.org/2000/svg">
  <sodipodi:namedview
     id="namedview54"
     pagecolor="#ffffff"
     bordercolor="#666666"
     borderopacity="1.0"
     inkscape:pageshadow="2"
     inkscape:pageopacity="0.0"
     inkscape:pagecheckerboard="0"
     showgrid="false"
     inkscape:zoom="8.6041667"
     inkscape:cx="24.871671"
     inkscape:cy="20.338983"
     inkscape:window-width="1852"
     inkscape:window-height="1053"
     inkscape:window-x="68"
     inkscape:window-y="27"
     inkscape:window-maximized="1"
     inkscape:current-layer="svg52" />
  <defs
     id="defs32">
    <linearGradient
       id="linearGradient4255">
      <stop
         style="stop-color:#000000;stop-opacity:1;"
         offset="0"
         id="stop2" />
      <stop
         style="stop-color:#000000;stop-opacity:0;"
         offset="1"
         id="stop4" />
    </linearGradient>
    <linearGradient
       id="linearGradient4235">
      <stop
         style="stop-color:#abdaf9;stop-opacity:1"
         offset="0"
         id="stop7" />
      <stop
         style="stop-color:#7cbcec;stop-opacity:1"
         offset="1"
         id="stop9" />
    </linearGradient>
    <linearGradient
       id="linearGradient4224">
      <stop
         style="stop-color:#375a7d;stop-opacity:1"
         offset="0"
         id="stop12" />
      <stop
         style="stop-color:#54a3d8;stop-opacity:1"
         offset="1"
         id="stop14" />
    </linearGradient>
    <linearGradient
       id="linearGradient4216">
      <stop
         style="stop-color:#c42c2c;stop-opacity:1"
         offset="0"
         id="stop17" />
      <stop
         style="stop-color:#f36856;stop-opacity:1"
         offset="1"
         id="stop19" />
    </linearGradient>
    <linearGradient
       id="b"
       y1="531.8"
       y2="507.82"
       x2="0"
       gradientUnits="userSpaceOnUse"
       gradientTransform="matrix(0.95240362,0,0,1.33561,-365.12593,-670.25)">
      <stop
         stop-color="#2a2c2f"
         id="stop22" />
      <stop
         offset="1"
         stop-color="#424649"
         id="stop24" />
    </linearGradient>
    <linearGradient
       xlink:href="#linearGradient4216"
       id="linearGradient4222"
       x1="24.358"
       y1="-2.839"
       x2="22.09"
       y2="3.458"
       gradientUnits="userSpaceOnUse" />
    <linearGradient
       xlink:href="#linearGradient4224"
       id="linearGradient4230"
       x1="38"
       y1="33"
       x2="35"
       y2="15"
       gradientUnits="userSpaceOnUse"
       gradientTransform="translate(-1,0)" />
    <linearGradient
       xlink:href="#linearGradient4235"
       id="linearGradient4241"
       x1="6"
       y1="20.242"
       x2="21"
       y2="24"
       gradientUnits="userSpaceOnUse" />
    <linearGradient
       xlink:href="#linearGradient4255"
       id="linearGradient4261"
       x1="21.262"
       y1="4.028"
       x2="34.74"
       y2="17.506"
       gradientUnits="userSpaceOnUse"
       gradientTransform="translate(23.480469,20.291016)" />
    <linearGradient
       xlink:href="#linearGradient4255"
       id="linearGradient4275"
       x1="32.266"
       y1="20.126"
       x2="42.889"
       y2="30.749"
       gradientUnits="userSpaceOnUse"
       gradientTransform="translate(-1,13.515625)" />
    <linearGradient
       id="linearGradient1004"
       x1="344"
       x2="344"
       y1="62"
       y2="106"
       gradientUnits="userSpaceOnUse">
      <stop
         stop-color="#fff"
         offset="0"
         id="stop7-3" />
      <stop
         stop-color="#fff"
         stop-opacity=".098039"
         offset=".125"
         id="stop9-6" />
      <stop
         stop-color="#fff"
         stop-opacity=".098039"
         offset=".925"
         id="stop11" />
      <stop
         stop-color="#fff"
         stop-opacity=".49804"
         offset="1"
         id="stop13" />
    </linearGradient>
    <clipPath
       id="clipPath994">
      <path
         d="m 335.73,62 c -8.8242,0 -9.7736,0.90635 -9.7304,9.7484 v 12.252 12.252 c -0.0433,8.842 0.90622,9.7484 9.7304,9.7484 h 16.539 c 8.8242,0 9.7304,-0.90625 9.7304,-9.7484 V 84.0004 71.7484 C 361.9994,62.9063 361.09318,62 352.269,62 Z"
         color="#000000"
         fill="#cdcdcd"
         id="path16" />
    </clipPath>
    <linearGradient
       inkscape:collect="always"
       xlink:href="#b"
       id="linearGradient1148"
       x1="41.401741"
       y1="45.919071"
       x2="5.0773931"
       y2="0.80194777"
       gradientUnits="userSpaceOnUse" />
  </defs>
  <path
     d="m 13.432822,1.5 c -2.6791,0 -4.7885996,0.05118 -6.5243996,0.29297 -1.7358,0.24178 -3.1562,0.6953 -4.1966,1.5566 -1.0404,0.86134 -1.5896,2.0395 -1.87820005,3.4805 -0.28866,1.441 -0.34501,3.1953 -0.33188,5.4238 v 12.746 12.752 c -0.013,2.2251 0.0435,3.9785 0.33188,5.418 0.28865005,1.441 0.83780005,2.6191 1.87820005,3.4805 1.0404,0.86134 2.4608,1.3149 4.1966,1.5566 1.7358,0.24179 3.8452996,0.29297 6.5243996,0.29297 h 21.136 c 2.6791,0 4.7875,-0.0511 6.5198,-0.29297 1.7322,-0.24189 3.1482,-0.69694 4.1848,-1.5586 1.0366,-0.86165 1.5825,-2.0389 1.8735,-3.4785 0.29102,-1.4396 0.35305,-3.1904 0.35305,-5.418 v -12.752 -12.752 c 0,-2.2276 -0.0621,-3.9784 -0.35305,-5.418 -0.29101,-1.4396 -0.83692,-2.6169 -1.8735,-3.4785 -1.0366,-0.86165 -2.4527,-1.3167 -4.1849,-1.5586 -1.7322,-0.24189 -3.8406,-0.29297 -6.5197,-0.29297 z"
     color="#000000"
     color-rendering="auto"
     dominant-baseline="auto"
     image-rendering="auto"
     opacity="0.1"
     shape-rendering="auto"
     solid-color="#000000"
     style="font-variant-ligatures:normal;font-variant-position:normal;font-variant-caps:normal;font-variant-numeric:normal;font-variant-alternates:normal;font-feature-settings:normal;text-indent:0;text-decoration-line:none;text-decoration-style:solid;text-decoration-color:#000000;text-transform:none;text-orientation:mixed;white-space:normal;shape-padding:0;isolation:auto;mix-blend-mode:normal"
     id="path21" />
  <path
     d="M 13.334822,1.5 C 3.3238224,1.5 1.4478224,2.40635 1.5008224,11.2484 v 12.752 12.752 c -0.0527,8.842 1.8229,9.7484 11.8339996,9.7484 h 21.331 c 10.009,0 11.834,-0.90625 11.834,-9.7484 v -12.752 -12.752 c 0,-8.8421 -1.8254,-9.7484 -11.834,-9.7484 z"
     color="#000000"
     fill="url(#linearGradient1686)"
     id="path23"
     style="fill:url(#linearGradient1148);fill-opacity:1" />
  <path
     d="M 13.334822,1.5 C 3.3238224,1.5 1.4478224,2.40635 1.5008224,11.2484 v 12.752 12.752 c -0.0527,8.842 1.8229,9.7484 11.8339996,9.7484 h 21.331 c 10.009,0 11.834,-0.90625 11.834,-9.7484 v -12.752 -12.752 c 0,-8.8421 -1.8254,-9.7484 -11.834,-9.7484 z"
     color="#000000"
     fill="none"
     opacity="0.4"
     stroke="#000000"
     id="path27" />
  <path
     transform="matrix(1.2162,0,0,1,-394.37018,-60)"
     d="m 335.73,62 c -8.8242,0 -9.7736,0.90635 -9.7304,9.7484 v 12.252 12.252 c -0.0433,8.842 0.90622,9.7484 9.7304,9.7484 h 16.539 c 8.8242,0 9.7304,-0.90625 9.7304,-9.7484 V 84.0004 71.7484 C 361.9994,62.9063 361.09318,62 352.269,62 Z"
     clip-path="url(#clipPath994)"
     color="#000000"
     fill="none"
     opacity="0.7"
     stroke="url(#linearGradient1004)"
     stroke-width="1.8136"
     id="path29"
     style="stroke:url(#linearGradient1004)" />
  <path
     d="M 23,5 23.039062,43 25,43 25,5 Z"
     style="opacity:1;fill:#e05e4c;fill-opacity:1;stroke:none;stroke-width:3;stroke-linecap:round;stroke-linejoin:round;stroke-miterlimit:4;stroke-dasharray:none;stroke-dashoffset:0;stroke-opacity:1"
     id="path40" />
  <path
     style="color:#000000;font-style:normal;font-variant:normal;font-weight:normal;font-stretch:normal;font-size:medium;line-height:normal;font-family:sans-serif;text-indent:0;text-align:start;text-decoration:none;text-decoration-line:none;text-decoration-style:solid;text-decoration-color:#000000;letter-spacing:normal;word-spacing:normal;text-transform:none;direction:ltr;block-progression:tb;writing-mode:lr-tb;baseline-shift:baseline;text-anchor:start;white-space:normal;clip-rule:nonzero;display:inline;overflow:visible;visibility:visible;opacity:1;isolation:auto;mix-blend-mode:normal;color-interpolation:sRGB;color-interpolation-filters:linearRGB;solid-color:#000000;solid-opacity:1;fill:url(#linearGradient4241);fill-opacity:1;fill-rule:evenodd;stroke:none;stroke-width:7.50000048;stroke-linecap:butt;stroke-linejoin:miter;stroke-miterlimit:4;stroke-dasharray:none;stroke-dashoffset:0;stroke-opacity:1;color-rendering:auto;image-rendering:auto;shape-rendering:auto;text-rendering:auto;enable-background:accumulate"
     d="M 18 13 L 18 15 L 21 15 L 21 13 L 18 13 z M 15 17 L 15 19 L 21 19 L 21 17 L 15 17 z M 10 21 L 10 23 L 21 23 L 21 21 L 10 21 z M 6 25 L 6 27 L 21 27 L 21 25 L 6 25 z M 10 29 L 10 31 L 21 31 L 21 29 L 10 29 z M 15 33 L 15 35 L 21 35 L 21 33 L 15 33 z"
     id="path42" />
  <path
     style="opacity:1;fill:url(#linearGradient4222);fill-opacity:1;stroke:none;stroke-width:2;stroke-linecap:round;stroke-linejoin:round;stroke-miterlimit:4;stroke-dasharray:none;stroke-opacity:1"
     d="m 27.59786,3.3897637 -3.872984,0 -3.872983,0 1.936492,-3.35410195 1.936491,-3.35410205 1.936492,3.35410195 z"
     transform="matrix(1.5491933,0,0,-1.1925696,-12.75442,8.042529)"
     id="path46" />
  <path
     d="m 30.036863,15.001386 c -0.491018,0.02978 -1.019738,0.515493 -1.018503,1.053686 L 29,31.945127 c 0,0.717646 0.938879,1.342107 1.475972,0.915778 l 10.119041,-7.972194 c 0.5406,-0.421061 0.539365,-1.408778 0,-1.831707 L 30.494741,15.139288 c -0.13483,-0.10564 -0.293802,-0.147733 -0.457547,-0.137902 z"
     style="opacity:1;fill:url(#linearGradient4230);fill-opacity:1;fill-rule:nonzero;stroke:none;stroke-width:2.30002117;stroke-linecap:butt;stroke-linejoin:round;stroke-miterlimit:4;stroke-dasharray:none;stroke-dashoffset:80;stroke-opacity:1"
     id="path50" />
</svg>
