<?xml version="1.0" encoding="UTF-8" standalone="no"?>
<svg
   width="48"
   height="48"
   version="1"
   id="svg55"
   sodipodi:docname="kvantum.svg"
   inkscape:version="1.1 (c4e8f9ed74, 2021-05-24)"
   xmlns:inkscape="http://www.inkscape.org/namespaces/inkscape"
   xmlns:sodipodi="http://sodipodi.sourceforge.net/DTD/sodipodi-0.dtd"
   xmlns="http://www.w3.org/2000/svg"
   xmlns:svg="http://www.w3.org/2000/svg">
  <sodipodi:namedview
     id="namedview57"
     pagecolor="#ffffff"
     bordercolor="#666666"
     borderopacity="1.0"
     inkscape:pageshadow="2"
     inkscape:pageopacity="0.0"
     inkscape:pagecheckerboard="0"
     showgrid="false"
     inkscape:zoom="8.7604167"
     inkscape:cx="11.300832"
     inkscape:cy="20.375743"
     inkscape:window-width="1852"
     inkscape:window-height="1053"
     inkscape:window-x="68"
     inkscape:window-y="27"
     inkscape:window-maximized="1"
     inkscape:current-layer="svg55" />
  <defs
     id="defs29">
    <linearGradient
       id="linearGradient1101"
       x1="325.40845"
       x2="363.71417"
       y1="71.045395"
       y2="101.02527"
       gradientTransform="translate(-320,-60)"
       gradientUnits="userSpaceOnUse">
      <stop
         stop-color="#1a7fd4"
         offset="0"
         id="stop2"
         style="stop-color:#da4848;stop-opacity:1" />
      <stop
         stop-color="#1a7fd4"
         offset="0.23436256"
         id="stop2278"
         style="stop-color:#d1c833;stop-opacity:1" />
      <stop
         stop-color="#1a7fd4"
         offset="0.55115604"
         id="stop1826"
         style="stop-color:#21c342;stop-opacity:1" />
      <stop
         stop-color="#6dc7f1"
         offset="1"
         id="stop4"
         style="stop-color:#7a17e9;stop-opacity:1" />
    </linearGradient>
    <linearGradient
       id="linearGradient977"
       x1="256"
       x2="256"
       y1="375"
       y2="135.28"
       gradientTransform="matrix(.091667 0 0 .091667 1.0218 .53333)"
       gradientUnits="userSpaceOnUse">
      <stop
         stop-color="#f5f5f5"
         offset="0"
         id="stop7" />
      <stop
         stop-color="#f1d7e9"
         offset="1"
         id="stop9" />
    </linearGradient>
    <linearGradient
       id="linearGradient1004"
       x1="344"
       x2="344"
       y1="66.001"
       y2="102"
       gradientTransform="rotate(-90,344,84)"
       gradientUnits="userSpaceOnUse">
      <stop
         stop-color="#fff"
         offset="0"
         id="stop12" />
      <stop
         stop-color="#fff"
         stop-opacity=".098039"
         offset=".125"
         id="stop14" />
      <stop
         stop-color="#fff"
         stop-opacity=".098039"
         offset=".925"
         id="stop16" />
      <stop
         stop-color="#fff"
         stop-opacity=".49804"
         offset="1"
         id="stop18" />
    </linearGradient>
    <clipPath
       id="clipPath994">
      <path
         d="m335.73 62c-8.8242 0-9.7736 0.90635-9.7304 9.7484v12.252 12.252c-0.0433 8.842 0.90622 9.7484 9.7304 9.7484h16.539c8.8242 0 9.7304-0.90625 9.7304-9.7484v-12.252-12.252c0-8.8421-0.90622-9.7484-9.7304-9.7484z"
         color="#000000"
         fill="#cdcdcd"
         id="path21" />
    </clipPath>
    <linearGradient
       id="linearGradient1304"
       x1="351"
       x2="340"
       y1="84"
       y2="84"
       gradientTransform="translate(-308.02 -51.573)"
       gradientUnits="userSpaceOnUse">
      <stop
         stop-color="#ef5145"
         stop-opacity="0"
         offset="0"
         id="stop24" />
      <stop
         stop-color="#ef5145"
         offset="1"
         id="stop26" />
    </linearGradient>
  </defs>
  <path
     d="m47.5 16.231c0-2.2232-0.0512-3.9737-0.29297-5.4141-0.24178-1.4404-0.69529-2.6191-1.5566-3.4824-0.86134-0.86337-2.0395-1.3191-3.4805-1.5586-1.441-0.23953-3.1954-0.28629-5.4238-0.27539h-12.746-12.752c-2.2251-0.0108-3.9785 0.0361-5.418 0.27539-1.441 0.23953-2.6191 0.69522-3.4805 1.5586-0.86134 0.86338-1.3149 2.042-1.5566 3.4824-0.24179 1.4404-0.29297 3.1909-0.29297 5.4141v17.539c0 2.2232 0.0511 3.9728 0.29297 5.4102 0.24189 1.4374 0.69694 2.6125 1.5586 3.4727 0.86165 0.8602 2.0389 1.3132 3.4785 1.5547 1.4396 0.24149 3.1904 0.29297 5.418 0.29297h12.752 12.752c2.2276 0 3.9784-0.0515 5.418-0.29297 1.4396-0.24149 2.6169-0.69449 3.4785-1.5547 0.86165-0.86019 1.3167-2.0352 1.5586-3.4727 0.24189-1.4374 0.29297-3.187 0.29297-5.4102z"
     color="#000000"
     color-rendering="auto"
     dominant-baseline="auto"
     image-rendering="auto"
     opacity=".1"
     shape-rendering="auto"
     solid-color="#000000"
     style="font-feature-settings:normal;font-variant-alternates:normal;font-variant-caps:normal;font-variant-ligatures:normal;font-variant-numeric:normal;font-variant-position:normal;isolation:auto;mix-blend-mode:normal;shape-padding:0;text-decoration-color:#000000;text-decoration-line:none;text-decoration-style:solid;text-indent:0;text-orientation:mixed;text-transform:none;white-space:normal"
     id="path31" />
  <path
     d="m46.501 15.231c0-8.2315-0.90635-9.7737-9.7484-9.7304h-12.752-12.752c-8.842-0.0433-9.7484 1.4989-9.7484 9.7304v17.539c0 8.2295 0.90625 9.7304 9.7484 9.7304h12.752 12.752c8.8421 0 9.7484-1.5009 9.7484-9.7304z"
     color="#000000"
     fill="url(#linearGradient1101)"
     id="path33"
     style="fill:url(#linearGradient1101)" />
  <path
     id="path5831"
     style="fill:#f9f9f9;stroke-width:0.69425;fill-opacity:1"
     d="m 10,14 v 19.638672 h 2.435547 v -6.328125 l 2.455078,-2.761719 6.75,9.089844 h 2.972656 L 16.40625,22.859375 24.613281,14 h -3.183593 l -8.744141,9.705078 h -0.25 V 14 Z m 14.728516,4.910156 5.427734,14.728516 h 2.396484 L 38,18.910156 H 35.46875 L 31.441406,30.589844 H 31.287109 L 27.259766,18.910156 Z" />
  <path
     d="m1.5078 24v8.752c-0.0317 9.6511 1.8228 9.748 11.834 9.748h21.33c10.009 0 11.834-0.15592 11.834-9.748v-8.752z"
     color="#000000"
     fill="#fff"
     opacity=".1"
     id="path35" />
  <path
     d="m46.501 15.231c0-8.2315-0.90635-9.7737-9.7484-9.7304h-12.752-12.752c-8.842-0.0433-9.7484 1.4989-9.7484 9.7304v17.539c0 8.2295 0.90625 9.7304 9.7484 9.7304h12.752 12.752c8.8421 0 9.7484-1.5009 9.7484-9.7304z"
     color="#000000"
     fill="none"
     opacity=".4"
     stroke="#000"
     id="path43" />
  <path
     transform="rotate(90 214 -106)"
     d="m335.73 62c-8.8242 0-9.7736 0.90635-9.7304 9.7484v12.252 12.252c-0.0433 8.842 0.90622 9.7484 9.7304 9.7484h16.539c8.8242 0 9.7304-0.90625 9.7304-9.7484v-12.252-12.252c0-8.8421-0.90622-9.7484-9.7304-9.7484z"
     clip-path="url(#clipPath994)"
     color="#000000"
     fill="none"
     opacity=".7"
     stroke="url(#linearGradient1004)"
     stroke-width="2"
     id="path45" />
</svg>
