<?xml version="1.0" encoding="UTF-8" standalone="no"?>
<svg
   id="Layer_1"
   viewBox="0 0 48 48"
   version="1.1"
   sodipodi:docname="microsoft-edge.svg"
   width="48"
   height="48"
   inkscape:version="1.1.1 (3bf5ae0d25, 2021-09-20, custom)"
   xmlns:inkscape="http://www.inkscape.org/namespaces/inkscape"
   xmlns:sodipodi="http://sodipodi.sourceforge.net/DTD/sodipodi-0.dtd"
   xmlns="http://www.w3.org/2000/svg"
   xmlns:svg="http://www.w3.org/2000/svg"
   xmlns:rdf="http://www.w3.org/1999/02/22-rdf-syntax-ns#"
   xmlns:cc="http://creativecommons.org/ns#"
   xmlns:dc="http://purl.org/dc/elements/1.1/">
  <sodipodi:namedview
     id="namedview65"
     pagecolor="#ffffff"
     bordercolor="#666666"
     borderopacity="1.0"
     inkscape:pageshadow="2"
     inkscape:pageopacity="0.0"
     inkscape:pagecheckerboard="0"
     showgrid="false"
     inkscape:zoom="6.2166471"
     inkscape:cx="-12.949102"
     inkscape:cy="18.981293"
     inkscape:window-width="1850"
     inkscape:window-height="1053"
     inkscape:window-x="0"
     inkscape:window-y="0"
     inkscape:window-maximized="1"
     inkscape:current-layer="Layer_1" />
  <defs
     id="defs48">
    <style
       id="style2">.cls-1{fill:url(#linear-gradient);}.cls-2{opacity:0.35;fill:url(#radial-gradient);}.cls-2,.cls-4{isolation:isolate;}.cls-3{fill:url(#linear-gradient-2);}.cls-4{opacity:0.41;fill:url(#radial-gradient-2);}.cls-5{fill:url(#radial-gradient-3);}.cls-6{fill:url(#radial-gradient-4);}</style>
    <linearGradient
       id="linear-gradient"
       x1="63.330002"
       y1="84.029999"
       x2="241.67"
       y2="84.029999"
       gradientTransform="matrix(0.12499219,0,0,-0.12499219,7.423786,40.632961)"
       gradientUnits="userSpaceOnUse">
      <stop
         offset="0"
         stop-color="#0c59a4"
         id="stop4" />
      <stop
         offset="1"
         stop-color="#114a8b"
         id="stop6" />
    </linearGradient>
    <radialGradient
       id="radial-gradient"
       cx="161.83"
       cy="68.910004"
       r="95.379997"
       gradientTransform="matrix(0.12499219,0,0,-0.11874258,7.423786,38.488095)"
       gradientUnits="userSpaceOnUse">
      <stop
         offset="0.72"
         stop-opacity="0"
         id="stop9" />
      <stop
         offset="0.95"
         stop-opacity="0.53"
         id="stop11" />
      <stop
         offset="1"
         id="stop13" />
    </radialGradient>
    <linearGradient
       id="linear-gradient-2"
       x1="157.35001"
       y1="161.39"
       x2="45.959999"
       y2="40.060001"
       gradientTransform="matrix(0.12499219,0,0,-0.12499219,7.423786,40.632961)"
       gradientUnits="userSpaceOnUse">
      <stop
         offset="0"
         stop-color="#1b9de2"
         id="stop16" />
      <stop
         offset="0.16"
         stop-color="#1595df"
         id="stop18" />
      <stop
         offset="0.67"
         stop-color="#0680d7"
         id="stop20" />
      <stop
         offset="1"
         stop-color="#0078d4"
         id="stop22" />
    </linearGradient>
    <radialGradient
       id="radial-gradient-2"
       cx="-340.29001"
       cy="62.990002"
       r="143.24001"
       gradientTransform="matrix(0.01874883,-0.12374227,-0.09999375,-0.01499906,29.502406,-8.2889824)"
       gradientUnits="userSpaceOnUse">
      <stop
         offset="0.76"
         stop-opacity="0"
         id="stop25" />
      <stop
         offset="0.95"
         stop-opacity="0.5"
         id="stop27" />
      <stop
         offset="1"
         id="stop29" />
    </radialGradient>
    <radialGradient
       id="radial-gradient-3"
       cx="113.37"
       cy="570.21002"
       r="202.42999"
       gradientTransform="matrix(-0.00499969,0.12499219,0.26623336,0.00999938,-140.0095,-5.9503784)"
       gradientUnits="userSpaceOnUse">
      <stop
         offset="0"
         stop-color="#35c1f1"
         id="stop32" />
      <stop
         offset="0.11"
         stop-color="#34c1ed"
         id="stop34" />
      <stop
         offset="0.23"
         stop-color="#2fc2df"
         id="stop36" />
      <stop
         offset="0.31"
         stop-color="#2bc3d2"
         id="stop38" />
      <stop
         offset="0.67"
         stop-color="#36c752"
         id="stop40" />
    </radialGradient>
    <radialGradient
       id="radial-gradient-4"
       cx="376.51999"
       cy="567.96997"
       r="97.339996"
       gradientTransform="matrix(0.03499781,0.1199925,0.09749391,-0.0287482,-30.543842,-11.176301)"
       gradientUnits="userSpaceOnUse">
      <stop
         offset="0"
         stop-color="#66eb6e"
         id="stop43" />
      <stop
         offset="1"
         stop-color="#66eb6e"
         stop-opacity="0"
         id="stop45" />
    </radialGradient>
    <linearGradient
       id="linearGradient1686-0"
       x1="322"
       x2="366"
       y1="84"
       y2="84"
       gradientTransform="rotate(90,214,-106)"
       gradientUnits="userSpaceOnUse">
      <stop
         stop-color="#fff"
         offset="0"
         id="stop17" />
      <stop
         stop-color="#fff"
         stop-opacity=".098039"
         offset=".125"
         id="stop19" />
      <stop
         stop-color="#fff"
         stop-opacity=".098039"
         offset=".925"
         id="stop21" />
      <stop
         stop-color="#fff"
         stop-opacity=".49804"
         offset="1"
         id="stop23" />
    </linearGradient>
  </defs>
  <title
     id="title50">Edge_Logo_265x265</title>
  <path
     d="m 13.65801,2.0000015 c -2.62209,0 -4.6868,0.05008 -6.38559,0.286752 -1.6989,0.236637 -3.08901,0.680501 -4.1074,1.523501 -1.01832,0.843009 -1.5558,1.996101 -1.83832,3.406402 -0.28233,1.4103 -0.33752,3.1272975 -0.32467,5.3083985 v 12.475 12.480998 c -0.0113,2.1777 0.0427,3.893901 0.32467,5.302701 0.28233,1.4103 0.82,2.5634 1.83832,3.406401 1.01828,0.843008 2.4085,1.286899 4.1074,1.523503 1.6989,0.23663 3.7635,0.28675 6.38559,0.28675 h 20.686 c 2.62208,0 4.68571,-0.05 6.38101,-0.28675 1.69527,-0.236752 3.0813,-0.682105 4.0958,-1.525404 1.01458,-0.843307 1.54878,-1.995598 1.83368,-3.4045 0.28497,-1.408899 0.34545,-3.122499 0.34545,-5.302701 V 25.000055 12.519053 c 0,-2.180198 -0.0609,-3.8936985 -0.34545,-5.3026995 -0.28498,-1.408898 -0.8191,-2.5612 -1.83368,-3.4045 -1.01461,-0.843318 -2.40053,-1.288698 -4.0958,-1.525398 -1.6953,-0.23675 -3.75893,-0.286753 -6.38101,-0.286753 z"
     color="#000000"
     color-rendering="auto"
     dominant-baseline="auto"
     image-rendering="auto"
     opacity="0.1"
     shape-rendering="auto"
     solid-color="#000000"
     style="font-variant-ligatures:normal;font-variant-position:normal;font-variant-caps:normal;font-variant-numeric:normal;font-variant-alternates:normal;font-feature-settings:normal;text-indent:0;text-decoration-line:none;text-decoration-style:solid;text-decoration-color:#000000;text-transform:none;text-orientation:mixed;white-space:normal;shape-padding:0;isolation:auto;mix-blend-mode:normal;stroke-width:0.999999"
     id="path28" />
  <path
     d="m 13.33501,1.4999995 c -10.01102,0 -11.88699,0.90635 -11.834,9.7483995 V 24.0004 36.752398 c -0.0525,8.842001 1.8229,9.748404 11.834,9.748404 h 21.33101 c 10.00899,0 11.83397,-0.906252 11.83397,-9.748404 V 24.0004 11.248399 c 0,-8.8420985 -1.8254,-9.7483995 -11.83397,-9.7483995 z"
     color="#000000"
     fill="url(#linearGradient1686)"
     id="path30"
     style="fill:#ffffff;fill-opacity:1;stroke-width:0.999999" />
  <path
     d="m 31.93101,2.4999005 c 13.62198,0 15.56798,1.941898 15.56798,15.5509975 V 29.9489 c 0,13.608999 -1.94668,15.551 -15.56798,15.551 H 16.06799 C 2.446,45.4999 0.5,43.558001 0.5,29.9489 V 18.050898 C 0.5,4.4419005 2.44672,2.4999005 16.06799,2.4999005 Z"
     enable-background="new"
     fill="url(#linearGradient986)"
     id="path34"
     style="stroke-width:0.999999" />
  <path
     d="m 13.33501,1.4999995 c -10.01102,0 -11.88699,0.90635 -11.834,9.7483995 V 24.0004 36.752398 c -0.0525,8.842001 1.8229,9.748404 11.834,9.748404 h 21.33101 c 10.00899,0 11.83397,-0.906252 11.83397,-9.748404 V 24.0004 11.248399 c 0,-8.8420985 -1.8254,-9.7483995 -11.83397,-9.7483995 z"
     color="#000000"
     fill="none"
     opacity="0.4"
     stroke="#000000"
     id="path46"
     style="stroke-width:0.999999" />
  <path
     d="m 13.33599,2.0000015 c -4.99048,0 -7.87048,0.276283 -9.38479,1.453099 -0.75711,0.58842 -1.23761,1.403498 -1.54488,2.660198 -0.30728,1.256602 -0.4173,2.94 -0.4043,5.1328025 v 12.753997 12.754001 c -0.0113,2.192799 0.0971,3.876201 0.4043,5.132799 0.30727,1.256602 0.78777,2.071703 1.54488,2.660202 1.51431,1.176801 4.39431,1.4531 9.38479,1.4531 h 21.33003 c 4.98917,0 7.855,-0.2767 9.36329,-1.4531 0.75413,-0.588238 1.23288,-1.404601 1.54299,-2.662099 0.30993,-1.257502 0.42773,-2.939501 0.42773,-5.132804 V 24.0002 11.248198 c 0,-2.1932965 -0.11754,-3.8752995 -0.42773,-5.1327975 -0.30992,-1.257502 -0.78882,-2.073899 -1.54299,-2.662099 -1.50829,-1.176503 -4.37401,-1.4531 -9.36329,-1.4531 z m 2.40231,1.097699 c 6.94741,8.28e-4 13.911,0.0034 20.84999,0.05469 2.14303,0.08292 4.4643,-0.147704 6.4238,0.931638 1.29611,0.695233 1.54862,2.250301 1.7695,3.564503 0.17537,2.202898 0.0915,4.4421995 0.13871,6.6698985 0.0227,8.479498 0.0771,16.968998 -0.0801,25.447 -0.16138,1.4832 -0.38135,3.305798 -1.79879,4.142601 -1.6055,0.82871 -3.4755,0.906429 -5.24799,0.953129 C 28.29369,44.92896 18.7694,44.94544 9.27042,44.8434 7.69221,44.729258 5.99992,44.603249 4.63759,43.722301 3.40811,42.726921 3.27681,40.9949 3.13372,39.5289 3.00635,30.530302 3.05022,21.5249 3.08122,12.520902 3.18102,10.139599 2.83593,7.6208995 3.78633,5.3607005 c 0.67162,-1.509698 2.46569,-1.86 3.9394,-2.0566 2.6617,-0.316573 5.3418,-0.147023 8.0137,-0.207042 z"
     color="#000000"
     fill="url(#linearGradient1686-0)"
     id="path48"
     style="fill:url(#linearGradient1686-0);stroke-width:0.999999" />
  <path
     class="cls-1"
     d="m 36.881945,31.816012 a 11.715518,11.715518 0 0 1 -1.317418,0.588713 12.732954,12.732954 0 0 1 -4.487219,0.80745 c -5.914631,0 -11.066809,-4.068496 -11.066809,-9.28942 a 3.9347541,3.9347541 0 0 1 2.053622,-3.413536 c -5.349666,0.224986 -6.72458,5.799637 -6.72458,9.065683 0,9.234423 8.510718,10.170614 10.344354,10.170614 0.988688,0 2.479845,-0.287482 3.374789,-0.569964 l 0.16374,-0.055 a 16.041497,16.041497 0 0 0 8.324479,-6.599587 0.49996875,0.49996875 0 0 0 -0.664958,-0.704956 z"
     id="path52"
     style="fill:url(#linear-gradient);stroke-width:0.124992" />
  <path
     class="cls-2"
     d="m 36.881945,31.816012 a 11.715518,11.715518 0 0 1 -1.317418,0.588713 12.732954,12.732954 0 0 1 -4.487219,0.80745 c -5.914631,0 -11.066809,-4.068496 -11.066809,-9.28942 a 3.9347541,3.9347541 0 0 1 2.053622,-3.413536 c -5.349666,0.224986 -6.72458,5.799637 -6.72458,9.065683 0,9.234423 8.510718,10.170614 10.344354,10.170614 0.988688,0 2.479845,-0.287482 3.374789,-0.569964 l 0.16374,-0.055 a 16.041497,16.041497 0 0 0 8.324479,-6.599587 0.49996875,0.49996875 0 0 0 -0.664958,-0.704956 z"
     id="path54"
     style="fill:url(#radial-gradient);stroke-width:0.124992" />
  <path
     class="cls-3"
     d="M 21.215424,38.175615 A 9.8993813,9.8993813 0 0 1 18.373102,35.508281 10.089369,10.089369 0 0 1 22.064121,20.509219 C 22.454097,20.32548 23.120305,19.993001 24.0065,20.00925 a 4.0434973,4.0434973 0 0 1 3.211049,1.624898 3.984751,3.984751 0 0 1 0.79495,2.332355 c 0,-0.02625 3.057309,-9.949379 -9.999375,-9.949379 -5.487157,0 -9.9993749,5.207175 -9.9993749,9.775639 a 16.267733,16.267733 0 0 0 1.5136549,6.999563 15.999,15.999 0 0 0 19.546279,8.388226 9.4431598,9.4431598 0 0 1 -7.84701,-0.999938 z"
     id="path56"
     style="fill:url(#linear-gradient-2);stroke-width:0.124992" />
  <path
     class="cls-4"
     d="M 21.215424,38.175615 A 9.8993813,9.8993813 0 0 1 18.373102,35.508281 10.089369,10.089369 0 0 1 22.064121,20.509219 C 22.454097,20.32548 23.120305,19.993001 24.0065,20.00925 a 4.0434973,4.0434973 0 0 1 3.211049,1.624898 3.984751,3.984751 0 0 1 0.79495,2.332355 c 0,-0.02625 3.057309,-9.949379 -9.999375,-9.949379 -5.487157,0 -9.9993749,5.207175 -9.9993749,9.775639 a 16.267733,16.267733 0 0 0 1.5136549,6.999563 15.999,15.999 0 0 0 19.546279,8.388226 9.4431598,9.4431598 0 0 1 -7.84701,-0.999938 z"
     id="path58"
     style="fill:url(#radial-gradient-2);stroke-width:0.124992" />
  <path
     class="cls-5"
     d="m 27.04006,26.606338 c -0.101244,0.131241 -0.412474,0.31248 -0.412474,0.707455 0,0.32623 0.212487,0.63996 0.589963,0.903694 1.797388,1.249922 5.185926,1.084932 5.194675,1.084932 a 7.4445347,7.4445347 0 0 0 3.783514,-1.043685 7.6720205,7.6720205 0 0 0 3.803512,-6.609587 C 40.031748,18.848072 38.999313,16.985689 38.581839,16.16074 35.933254,10.979814 30.216112,8.0000001 23.999,8.0000001 A 15.999,15.999 0 0 0 8,23.774015 c 0.059996,-4.567215 4.599712,-8.255735 9.999375,-8.255735 0.437473,0 2.932317,0.0425 5.249672,1.258672 2.042372,1.072433 3.112305,2.367352 3.856009,3.651022 0.772452,1.333666 0.909943,3.018561 0.909943,3.689769 0,0.671208 -0.342478,1.666146 -0.974939,2.488595 z"
     id="path60"
     style="fill:url(#radial-gradient-3);stroke-width:0.124992" />
  <path
     class="cls-6"
     d="m 27.04006,26.606338 c -0.101244,0.131241 -0.412474,0.31248 -0.412474,0.707455 0,0.32623 0.212487,0.63996 0.589963,0.903694 1.797388,1.249922 5.185926,1.084932 5.194675,1.084932 a 7.4445347,7.4445347 0 0 0 3.783514,-1.043685 7.6720205,7.6720205 0 0 0 3.803512,-6.609587 C 40.031748,18.848072 38.999313,16.985689 38.581839,16.16074 35.933254,10.979814 30.216112,8.0000001 23.999,8.0000001 A 15.999,15.999 0 0 0 8,23.774015 c 0.059996,-4.567215 4.599712,-8.255735 9.999375,-8.255735 0.437473,0 2.932317,0.0425 5.249672,1.258672 2.042372,1.072433 3.112305,2.367352 3.856009,3.651022 0.772452,1.333666 0.909943,3.018561 0.909943,3.689769 0,0.671208 -0.342478,1.666146 -0.974939,2.488595 z"
     id="path62"
     style="fill:url(#radial-gradient-4);stroke-width:0.124992" />
  <metadata
     id="metadata97">
    <rdf:RDF>
      <cc:Work
         rdf:about="">
        <dc:title>Edge_Logo_265x265</dc:title>
      </cc:Work>
    </rdf:RDF>
  </metadata>
</svg>
