<?xml version="1.0" encoding="UTF-8" standalone="no"?>
<svg
   inkscape:version="1.1.1 (3bf5ae0d25, 2021-09-20, custom)"
   sodipodi:docname="skype.svg"
   id="svg53"
   version="1.1"
   width="48"
   height="48"
   xmlns:inkscape="http://www.inkscape.org/namespaces/inkscape"
   xmlns:sodipodi="http://sodipodi.sourceforge.net/DTD/sodipodi-0.dtd"
   xmlns="http://www.w3.org/2000/svg"
   xmlns:svg="http://www.w3.org/2000/svg"
   xmlns:rdf="http://www.w3.org/1999/02/22-rdf-syntax-ns#"
   xmlns:cc="http://creativecommons.org/ns#"
   xmlns:dc="http://purl.org/dc/elements/1.1/">
  <metadata
     id="metadata57">
    <rdf:RDF>
      <cc:Work
         rdf:about="">
        <dc:format>image/svg+xml</dc:format>
        <dc:type
           rdf:resource="http://purl.org/dc/dcmitype/StillImage" />
      </cc:Work>
    </rdf:RDF>
  </metadata>
  <sodipodi:namedview
     inkscape:current-layer="svg53"
     inkscape:window-maximized="1"
     inkscape:window-y="0"
     inkscape:window-x="0"
     inkscape:cy="16.205901"
     inkscape:cx="31.533982"
     inkscape:zoom="7.4047101"
     showgrid="false"
     id="namedview55"
     inkscape:window-height="1053"
     inkscape:window-width="1850"
     inkscape:pageshadow="2"
     inkscape:pageopacity="0"
     guidetolerance="10"
     gridtolerance="10"
     objecttolerance="10"
     borderopacity="1"
     bordercolor="#666666"
     pagecolor="#ffffff"
     inkscape:document-rotation="0"
     inkscape:pagecheckerboard="0" />
  <defs
     id="defs29">
    <linearGradient
       gradientUnits="userSpaceOnUse"
       y2="18.354"
       x2="11.125"
       y1="1.1059999"
       x1="8.3929996"
       id="a"
       gradientTransform="matrix(1.076535,0,0,1.076535,6.923465,6.923465)">
      <stop
         id="stop2"
         stop-color="#00b7f0"
         offset=".012" />
      <stop
         id="stop4"
         stop-color="#009de5"
         offset=".339" />
      <stop
         id="stop6"
         stop-color="#0082d9"
         offset=".755" />
      <stop
         id="stop8"
         stop-color="#0078d4"
         offset="1" />
    </linearGradient>
    <linearGradient
       gradientUnits="userSpaceOnUse"
       y2="17.889"
       x2="29.546"
       y1="26.645"
       x1="14.379"
       id="b"
       gradientTransform="matrix(1.076535,0,0,1.076535,6.923465,6.923465)">
      <stop
         id="stop11"
         stop-color="#0078d4"
         offset="0" />
      <stop
         id="stop13"
         stop-color="#007ad5"
         offset=".37" />
      <stop
         id="stop15"
         stop-color="#0082d9"
         offset=".573" />
      <stop
         id="stop17"
         stop-color="#0090df"
         offset=".735" />
      <stop
         id="stop19"
         stop-color="#00a3e7"
         offset=".875" />
      <stop
         id="stop21"
         stop-color="#00bcf2"
         offset="1" />
    </linearGradient>
    <linearGradient
       gradientUnits="userSpaceOnUse"
       y2="30.662001"
       x2="24.291"
       y1="6.6890001"
       x1="10.45"
       id="c"
       gradientTransform="matrix(1.076535,0,0,1.076535,6.923465,6.923465)">
      <stop
         id="stop24"
         stop-color="#00b7f0"
         offset="0" />
      <stop
         id="stop26"
         stop-color="#007cc1"
         offset="1" />
    </linearGradient>
    <linearGradient
       id="a-3"
       x1="8.3929996"
       y1="1.1059999"
       x2="11.125"
       y2="18.354"
       gradientUnits="userSpaceOnUse">
      <stop
         offset=".012"
         stop-color="#00b7f0"
         id="stop2-6" />
      <stop
         offset=".339"
         stop-color="#009de5"
         id="stop4-7" />
      <stop
         offset=".755"
         stop-color="#0082d9"
         id="stop6-5" />
      <stop
         offset="1"
         stop-color="#0078d4"
         id="stop8-3" />
    </linearGradient>
    <linearGradient
       id="b-5"
       x1="14.379"
       y1="26.645"
       x2="29.546"
       y2="17.889"
       gradientUnits="userSpaceOnUse">
      <stop
         offset="0"
         stop-color="#0078d4"
         id="stop11-6" />
      <stop
         offset=".37"
         stop-color="#007ad5"
         id="stop13-2" />
      <stop
         offset=".573"
         stop-color="#0082d9"
         id="stop15-9" />
      <stop
         offset=".735"
         stop-color="#0090df"
         id="stop17-1" />
      <stop
         offset=".875"
         stop-color="#00a3e7"
         id="stop19-2" />
      <stop
         offset="1"
         stop-color="#00bcf2"
         id="stop21-7" />
    </linearGradient>
    <linearGradient
       id="c-0"
       x1="10.45"
       y1="6.6890001"
       x2="24.291"
       y2="30.662001"
       gradientUnits="userSpaceOnUse">
      <stop
         offset="0"
         stop-color="#00b7f0"
         id="stop24-9" />
      <stop
         offset="1"
         stop-color="#007cc1"
         id="stop26-3" />
    </linearGradient>
    <linearGradient
       id="linearGradient1686-0"
       x1="322"
       x2="366"
       y1="84"
       y2="84"
       gradientTransform="rotate(90,214,-106)"
       gradientUnits="userSpaceOnUse">
      <stop
         stop-color="#fff"
         offset="0"
         id="stop17-3" />
      <stop
         stop-color="#fff"
         stop-opacity=".098039"
         offset=".125"
         id="stop19-6" />
      <stop
         stop-color="#fff"
         stop-opacity=".098039"
         offset=".925"
         id="stop21-75" />
      <stop
         stop-color="#fff"
         stop-opacity=".49804"
         offset="1"
         id="stop23" />
    </linearGradient>
  </defs>
  <path
     d="m 13.65801,2.0000015 c -2.62209,0 -4.6868,0.05008 -6.38559,0.286752 -1.6989,0.236637 -3.08901,0.680501 -4.1074,1.523501 -1.01832,0.843009 -1.5558,1.996101 -1.83832,3.406402 -0.28233,1.4103 -0.33752,3.1272975 -0.32467,5.3083985 v 12.474999 12.480999 c -0.0113,2.1777 0.0427,3.893901 0.32467,5.302701 0.28233,1.410299 0.82,2.5634 1.83832,3.406401 1.01828,0.843008 2.4085,1.286899 4.1074,1.523503 1.6989,0.236629 3.7635,0.286749 6.38559,0.286749 h 20.686 c 2.62208,0 4.68571,-0.05 6.38101,-0.286749 1.69527,-0.236753 3.0813,-0.682105 4.0958,-1.525405 1.01458,-0.843307 1.54878,-1.995598 1.83368,-3.404499 0.28497,-1.408899 0.34545,-3.122499 0.34545,-5.302701 V 25.000054 12.519053 c 0,-2.180198 -0.0609,-3.8936985 -0.34545,-5.3026995 -0.28498,-1.408898 -0.8191,-2.5612 -1.83368,-3.4045 -1.01461,-0.843318 -2.40053,-1.288698 -4.0958,-1.525398 -1.6953,-0.23675 -3.75893,-0.286753 -6.38101,-0.286753 z"
     color="#000000"
     color-rendering="auto"
     dominant-baseline="auto"
     image-rendering="auto"
     opacity="0.1"
     shape-rendering="auto"
     solid-color="#000000"
     style="font-variant-ligatures:normal;font-variant-position:normal;font-variant-caps:normal;font-variant-numeric:normal;font-variant-alternates:normal;font-feature-settings:normal;text-indent:0;text-decoration-line:none;text-decoration-style:solid;text-decoration-color:#000000;text-transform:none;text-orientation:mixed;white-space:normal;shape-padding:0;isolation:auto;mix-blend-mode:normal;stroke-width:0.999999"
     id="path28" />
  <path
     d="m 13.33501,1.4999995 c -10.01102,0 -11.88699,0.90635 -11.834,9.7483995 v 12.752 12.751998 c -0.0525,8.842001 1.8229,9.748404 11.834,9.748404 h 21.33101 c 10.00899,0 11.83397,-0.906252 11.83397,-9.748404 v -12.751998 -12.752 c 0,-8.8420985 -1.8254,-9.7483995 -11.83397,-9.7483995 z"
     color="#000000"
     fill="url(#linearGradient1686)"
     id="path30"
     style="fill:#ffffff;fill-opacity:1;stroke-width:0.999999" />
  <path
     d="m 31.93101,2.4999005 c 13.62198,0 15.56798,1.941898 15.56798,15.5509975 v 11.898001 c 0,13.608999 -1.94668,15.551 -15.56798,15.551 H 16.06799 C 2.446,45.499899 0.5,43.558 0.5,29.948899 V 18.050898 C 0.5,4.4419005 2.44672,2.4999005 16.06799,2.4999005 Z"
     enable-background="new"
     fill="url(#linearGradient986)"
     id="path34"
     style="stroke-width:0.999999" />
  <path
     d="m 13.33501,1.4999995 c -10.01102,0 -11.88699,0.90635 -11.834,9.7483995 v 12.752 12.751998 c -0.0525,8.842001 1.8229,9.748404 11.834,9.748404 h 21.33101 c 10.00899,0 11.83397,-0.906252 11.83397,-9.748404 v -12.751998 -12.752 c 0,-8.8420985 -1.8254,-9.7483995 -11.83397,-9.7483995 z"
     color="#000000"
     fill="none"
     opacity="0.4"
     stroke="#000000"
     id="path46"
     style="stroke-width:0.999999" />
  <path
     d="m 13.33599,2.0000015 c -4.99048,0 -7.87048,0.276283 -9.38479,1.453099 -0.75711,0.58842 -1.23761,1.403498 -1.54488,2.660198 -0.30728,1.256602 -0.4173,2.94 -0.4043,5.1328025 v 12.753996 12.754002 c -0.0113,2.192799 0.0971,3.876201 0.4043,5.132799 0.30727,1.256602 0.78777,2.071703 1.54488,2.660201 1.51431,1.176801 4.39431,1.4531 9.38479,1.4531 h 21.33003 c 4.98917,0 7.855,-0.276699 9.36329,-1.4531 0.75413,-0.588237 1.23288,-1.404601 1.54299,-2.662098 0.30993,-1.257503 0.42773,-2.939501 0.42773,-5.132804 V 24.000199 11.248198 c 0,-2.1932965 -0.11754,-3.8752995 -0.42773,-5.1327975 -0.30992,-1.257502 -0.78882,-2.073899 -1.54299,-2.662099 -1.50829,-1.176503 -4.37401,-1.4531 -9.36329,-1.4531 z m 2.40231,1.097699 c 6.94741,8.28e-4 13.911,0.0034 20.84999,0.05469 2.14303,0.08292 4.4643,-0.147704 6.4238,0.931638 1.29611,0.695233 1.54862,2.250301 1.7695,3.564503 0.17537,2.202898 0.0915,4.4421995 0.13871,6.6698985 0.0227,8.479497 0.0771,16.968997 -0.0801,25.447 -0.16138,1.4832 -0.38135,3.305798 -1.79879,4.1426 -1.6055,0.828711 -3.4755,0.90643 -5.24799,0.953129 -9.49973,0.0678 -19.02402,0.08428 -28.523,-0.01776 C 7.69221,44.729257 5.99992,44.603247 4.63759,43.7223 3.40811,42.726919 3.27681,40.994898 3.13372,39.528898 3.00635,30.5303 3.05022,21.524898 3.08122,12.520901 3.18102,10.139598 2.83593,7.6208985 3.78633,5.3606995 c 0.67162,-1.509698 2.46569,-1.86 3.9394,-2.0566 2.6617,-0.316573 5.3418,-0.147023 8.0137,-0.207042 z"
     color="#000000"
     fill="url(#linearGradient1686-0)"
     id="path48"
     style="fill:url(#linearGradient1686-0);stroke-width:0.999999" />
  <path
     id="path31"
     style="fill:url(#a);stroke-width:1.07653"
     d="M 26.85874,17.39815 A 9.4293698,9.39815 0 0 1 17.42937,26.7963 9.4293698,9.39815 0 0 1 8,17.39815 9.4293698,9.39815 0 0 1 17.42937,8 a 9.4293698,9.39815 0 0 1 9.42937,9.39815" />
  <path
     id="path33"
     style="fill:url(#b);stroke-width:1.07653"
     d="m 40.000002,30.89467 a 9.4325998,9.4013799 0 0 1 -9.4326,9.40138 9.4325998,9.4013799 0 0 1 -9.4326,-9.40138 9.4325998,9.4013799 0 0 1 9.4326,-9.40138 9.4325998,9.4013799 0 0 1 9.4326,9.40138" />
  <path
     id="path35"
     opacity="0.05"
     fill-rule="evenodd"
     d="M 8.0344491,18.202322 A 9.4282935,9.4282935 0 1 0 18.602793,8.0721278 17.133055,17.133055 0 0 0 8.0344491,18.202322 Z"
     style="stroke-width:1.07653" />
  <path
     id="path37"
     opacity="0.05"
     fill-rule="evenodd"
     d="M 39.975243,30.219682 A 9.4315231,9.4315231 0 1 0 29.712634,40.257295 17.133055,17.133055 0 0 0 39.975243,30.218606 Z"
     style="stroke-width:1.07653" />
  <path
     id="path39"
     opacity="0.1"
     fill-rule="evenodd"
     d="M 8.4758285,20.351086 A 9.4250639,9.4250639 0 1 0 20.746174,8.5985535 16.032836,16.032836 0 0 0 8.4758285,20.351086 Z"
     style="stroke-width:1.07653" />
  <path
     id="path41"
     opacity="0.1"
     fill-rule="evenodd"
     d="M 39.546782,28.010633 A 9.4282935,9.4282935 0 1 0 27.498202,39.786849 16.032836,16.032836 0 0 0 39.546782,28.010633 Z"
     style="stroke-width:1.07653" />
  <path
     id="path43"
     opacity="0.1"
     fill-rule="evenodd"
     d="M 8.8224727,21.242457 A 9.4229109,9.4229109 0 1 0 21.62678,8.9807234 15.488109,15.488109 0 0 0 8.8224727,21.242457 Z"
     style="stroke-width:1.07653" />
  <path
     id="path45"
     opacity="0.1"
     fill-rule="evenodd"
     d="M 39.199061,27.100961 A 9.4261405,9.4261405 0 1 0 26.589606,39.420827 15.487033,15.487033 0 0 0 39.199061,27.100961 Z"
     style="stroke-width:1.07653" />
  <path
     id="path47"
     style="fill:url(#c);stroke-width:1.07653"
     d="M 38.936386,24.218001 A 14.93477,14.885249 0 0 1 24.001616,39.103249 14.93477,14.885249 0 0 1 9.0668464,24.218001 14.93477,14.885249 0 0 1 24.001616,9.3327513 14.93477,14.885249 0 0 1 38.936386,24.218001" />
  <path
     id="path49"
     fill-rule="evenodd"
     fill="#ffffff"
     d="M 19.802053,23.701263 A 4.6915395,4.6915395 0 0 1 18.33043,22.1489 a 4.2910685,4.2910685 0 0 1 -0.503819,-2.145535 3.8561484,3.8561484 0 0 1 0.908596,-2.596602 5.4687978,5.4687978 0 0 1 2.368377,-1.582507 9.1451648,9.1451648 0 0 1 3.100421,-0.522119 12.039967,12.039967 0 0 1 2.062641,0.158251 7.4474691,7.4474691 0 0 1 1.430715,0.369251 2.7731542,2.7731542 0 0 1 1.119596,0.714819 1.446863,1.446863 0 0 1 0.345568,0.961346 1.3930363,1.3930363 0 0 1 -0.363869,1.002254 1.2100253,1.2100253 0 0 1 -0.913978,0.381094 1.646022,1.646022 0 0 1 -0.679294,-0.152868 12.309101,12.309101 0 0 0 -1.618032,-0.592095 5.8724984,5.8724984 0 0 0 -1.558822,-0.193776 3.5579482,3.5579482 0 0 0 -1.952835,0.499512 1.6244913,1.6244913 0 0 0 -0.779411,1.458705 1.4673172,1.4673172 0 0 0 0.404777,1.025938 3.6882089,3.6882089 0 0 0 1.09053,0.780488 q 0.685753,0.340185 2.045416,0.902136 a 2.1207739,2.1207739 0 0 1 0.292818,0.117343 14.529993,14.529993 0 0 1 2.53201,1.30153 5.104929,5.104929 0 0 1 1.558823,1.599731 4.2200172,4.2200172 0 0 1 0.563028,2.221969 4.4686968,4.4686968 0 0 1 -0.779412,2.678419 4.6334066,4.6334066 0 0 1 -2.179983,1.618032 9.1903793,9.1903793 0 0 1 -3.276973,0.533961 10.323971,10.323971 0 0 1 -4.466543,-0.84508 2.430816,2.430816 0 0 1 -0.919361,-0.714819 1.6072668,1.6072668 0 0 1 -0.299277,-0.973188 1.2713878,1.2713878 0 0 1 0.392935,-0.990412 1.4479396,1.4479396 0 0 1 1.01302,-0.35741 2.5912197,2.5912197 0 0 1 1.184188,0.30466 q 0.68037,0.340185 1.073306,0.510277 a 5.3912873,5.3912873 0 0 0 0.92582,0.292818 5.2965522,5.2965522 0 0 0 1.189571,0.122725 3.1757783,3.1757783 0 0 0 1.999126,-0.532885 1.7601347,1.7601347 0 0 0 0.67391,-1.459781 1.5502104,1.5502104 0 0 0 -0.422001,-1.06577 4.4859213,4.4859213 0 0 0 -1.242322,-0.904289 q -0.821396,-0.432767 -2.310244,-1.055005 a 14.308227,14.308227 0 0 1 -2.537393,-1.318755"
     style="stroke-width:1.07653" />
</svg>
