<?xml version="1.0" encoding="UTF-8" standalone="no"?>
<svg
   inkscape:version="1.1.1 (3bf5ae0d25, 2021-09-20, custom)"
   sodipodi:docname="steam.svg"
   id="svg36"
   version="1.1"
   height="48"
   width="48"
   xmlns:inkscape="http://www.inkscape.org/namespaces/inkscape"
   xmlns:sodipodi="http://sodipodi.sourceforge.net/DTD/sodipodi-0.dtd"
   xmlns:xlink="http://www.w3.org/1999/xlink"
   xmlns="http://www.w3.org/2000/svg"
   xmlns:svg="http://www.w3.org/2000/svg"
   xmlns:rdf="http://www.w3.org/1999/02/22-rdf-syntax-ns#"
   xmlns:cc="http://creativecommons.org/ns#"
   xmlns:dc="http://purl.org/dc/elements/1.1/">
  <metadata
     id="metadata42">
    <rdf:RDF>
      <cc:Work
         rdf:about="">
        <dc:format>image/svg+xml</dc:format>
        <dc:type
           rdf:resource="http://purl.org/dc/dcmitype/StillImage" />
      </cc:Work>
    </rdf:RDF>
  </metadata>
  <defs
     id="defs40">
    <linearGradient
       gradientUnits="userSpaceOnUse"
       y1="0"
       gradientTransform="matrix(0.19315273,0,0,0.19323672,1.4710371,1.5000015)"
       id="a"
       x2="116.68872"
       x1="116.68872"
       y2="232.87497">
      <stop
         stop-color="#111D2E"
         offset="0"
         id="stop922" />
      <stop
         stop-color="#051839"
         offset=".21248"
         id="stop924" />
      <stop
         stop-color="#0A1B48"
         offset=".40695"
         id="stop926" />
      <stop
         stop-color="#132E62"
         offset=".58110"
         id="stop928" />
      <stop
         stop-color="#144B7E"
         offset=".73760"
         id="stop930" />
      <stop
         stop-color="#136497"
         offset=".87279"
         id="stop932" />
      <stop
         stop-color="#1387B8"
         offset="1"
         id="stop934" />
    </linearGradient>
    <linearGradient
       id="linearGradient1686-0"
       x1="322"
       x2="366"
       y1="84"
       y2="84"
       gradientTransform="rotate(90,213.99999,-105.99999)"
       gradientUnits="userSpaceOnUse">
      <stop
         stop-color="#fff"
         offset="0"
         id="stop17" />
      <stop
         stop-color="#fff"
         stop-opacity=".098039"
         offset=".125"
         id="stop19" />
      <stop
         stop-color="#fff"
         stop-opacity=".098039"
         offset=".925"
         id="stop21" />
      <stop
         stop-color="#fff"
         stop-opacity=".49804"
         offset="1"
         id="stop23" />
    </linearGradient>
    <linearGradient
       inkscape:collect="always"
       xlink:href="#a"
       id="linearGradient1883"
       x1="25.850985"
       y1="0.69528258"
       x2="26.164686"
       y2="46.708405"
       gradientUnits="userSpaceOnUse" />
  </defs>
  <sodipodi:namedview
     inkscape:current-layer="svg36"
     inkscape:window-maximized="1"
     inkscape:window-y="0"
     inkscape:window-x="0"
     inkscape:cy="57.112861"
     inkscape:cx="41.490814"
     inkscape:zoom="2.9765625"
     showgrid="false"
     id="namedview38"
     inkscape:window-height="1053"
     inkscape:window-width="1850"
     inkscape:pageshadow="2"
     inkscape:pageopacity="0"
     guidetolerance="10"
     gridtolerance="10"
     objecttolerance="10"
     borderopacity="1"
     bordercolor="#666666"
     pagecolor="#ffffff"
     inkscape:document-rotation="0"
     inkscape:pagecheckerboard="0" />
  <path
     d="m 13.65801,2.0000025 c -2.62209,0 -4.6868,0.05008 -6.38559,0.286752 -1.6989,0.236637 -3.08901,0.6805 -4.1074,1.5235 -1.01832,0.84301 -1.5558,1.996101 -1.83832,3.406402 -0.28233,1.410301 -0.33752,3.1272975 -0.32467,5.3083985 v 12.475 12.480998 c -0.0113,2.1777 0.0427,3.893901 0.32467,5.302701 0.28233,1.4103 0.82,2.5634 1.83832,3.406401 1.01828,0.843008 2.4085,1.286899 4.1074,1.523503 1.6989,0.23663 3.7635,0.28675 6.38559,0.28675 h 20.686 c 2.62208,0 4.68571,-0.05 6.38101,-0.28675 1.69527,-0.236752 3.0813,-0.682105 4.0958,-1.525404 1.01458,-0.843307 1.54878,-1.995598 1.83368,-3.4045 0.28497,-1.408899 0.34545,-3.122499 0.34545,-5.302701 V 25.000055 12.519053 c 0,-2.180198 -0.0609,-3.8936975 -0.34545,-5.3026985 -0.28498,-1.408898 -0.8191,-2.5612 -1.83368,-3.404501 -1.01461,-0.843318 -2.40053,-1.288698 -4.0958,-1.525398 -1.6953,-0.23675 -3.75893,-0.286753 -6.38101,-0.286753 z"
     color="#000000"
     color-rendering="auto"
     dominant-baseline="auto"
     image-rendering="auto"
     opacity="0.1"
     shape-rendering="auto"
     solid-color="#000000"
     style="font-variant-ligatures:normal;font-variant-position:normal;font-variant-caps:normal;font-variant-numeric:normal;font-variant-alternates:normal;font-feature-settings:normal;text-indent:0;text-decoration-line:none;text-decoration-style:solid;text-decoration-color:#000000;text-transform:none;text-orientation:mixed;white-space:normal;shape-padding:0;isolation:auto;mix-blend-mode:normal;stroke-width:0.999999"
     id="path28" />
  <path
     d="m 13.33501,1.5000005 c -10.01102,0 -11.88699,0.90635 -11.834,9.7483985 V 24.0004 36.752398 c -0.0525,8.842001 1.8229,9.748404 11.834,9.748404 h 21.33101 c 10.00899,0 11.83397,-0.906252 11.83397,-9.748404 V 24.0004 11.248399 c 0,-8.8420985 -1.8254,-9.7483995 -11.83397,-9.7483995 z"
     color="#000000"
     id="path30"
     style="fill:url(#a);fill-opacity:1;stroke-width:0.999999" />
  <path
     id="path941"
     style="fill:#ffffff;stroke-width:0.193195"
     d="m 31.376953,9.8046875 c -4.715458,0 -8.550781,3.8403745 -8.550781,8.5605465 0,0.03785 5.3e-5,0.07581 0.002,0.111328 l -5.509766,7.998047 c -0.892457,-0.04055 -1.787549,0.115269 -2.636718,0.464844 -0.374336,0.152582 -0.725573,0.340332 -1.054688,0.556641 L 1.5292969,22.519531 1.5019531,22.578125 V 24 30.175781 l 9.4667969,3.902344 c 0.429418,1.917813 1.745274,3.598976 3.6875,4.408203 3.177716,1.326823 6.842188,-0.18429 8.164062,-3.361328 0.343997,-0.830472 0.503659,-1.701215 0.480469,-2.570312 l 7.882813,-5.63086 c 0.06377,0.0019 0.129589,0.0039 0.193359,0.0039 4.717389,0 8.552735,-3.842716 8.552735,-8.5625 0,-4.720172 -3.835346,-8.5605465 -8.552735,-8.5605465 z m 0,2.8574215 c 3.142349,0 5.699219,2.559883 5.699219,5.703125 0,3.14575 -2.55687,5.705078 -5.699219,5.705078 -3.140418,0 -5.697266,-2.559328 -5.697265,-5.705078 0,-3.143242 2.556847,-5.703125 5.697265,-5.703125 z m 0.0098,1.408203 c -2.361594,0 -4.277344,1.918699 -4.277344,4.285157 0,2.366653 1.91575,4.285156 4.277344,4.285156 2.363526,0 4.28125,-1.918503 4.28125,-4.285156 0,-2.366458 -1.917724,-4.285157 -4.28125,-4.285157 z M 17.109375,27.898438 c 0.601825,0.0048 1.21106,0.123861 1.800781,0.36914 1.189108,0.49442 2.112624,1.425534 2.601563,2.615234 0.488938,1.189698 0.486893,2.503617 -0.0078,3.689454 -1.023101,2.454721 -3.845245,3.61933 -6.298828,2.597656 -1.131901,-0.471245 -1.987472,-1.333883 -2.480469,-2.363281 l 2.785157,1.152343 c 1.809459,0.75322 3.884564,-0.10438 4.636718,-1.912109 0.754475,-1.809656 -0.101663,-3.887407 -1.910156,-4.640625 l -2.876953,-1.191406 c 0.555226,-0.210515 1.148175,-0.321235 1.75,-0.316406 z" />
  <path
     d="m 31.93101,2.4999005 c 13.62198,0 15.56798,1.941899 15.56798,15.5509975 V 29.9489 c 0,13.608999 -1.94668,15.551 -15.56798,15.551 H 16.06799 C 2.446,45.4999 0.5,43.558001 0.5,29.9489 V 18.050898 C 0.5,4.4419005 2.44672,2.4999005 16.06799,2.4999005 Z"
     enable-background="new"
     fill="url(#linearGradient986)"
     id="path34"
     style="stroke-width:0.999999" />
  <path
     d="m 13.33501,1.5000005 c -10.01102,0 -11.88699,0.90635 -11.834,9.7483985 V 24.0004 36.752398 c -0.0525,8.842001 1.8229,9.748404 11.834,9.748404 h 21.33101 c 10.00899,0 11.83397,-0.906252 11.83397,-9.748404 V 24.0004 11.248399 c 0,-8.8420985 -1.8254,-9.7483995 -11.83397,-9.7483995 z"
     color="#000000"
     fill="none"
     opacity="0.4"
     stroke="#000000"
     id="path46"
     style="stroke-width:0.999999" />
  <path
     d="m 13.33599,2.0000025 c -4.99048,0 -7.87048,0.276282 -9.38479,1.453099 -0.75711,0.58842 -1.23761,1.403498 -1.54488,2.660197 -0.30728,1.256603 -0.4173,2.940001 -0.4043,5.1328025 v 12.753997 12.754001 c -0.0113,2.192799 0.0971,3.876201 0.4043,5.132799 0.30727,1.256602 0.78777,2.071703 1.54488,2.660202 1.51431,1.176801 4.39431,1.4531 9.38479,1.4531 h 21.33003 c 4.98917,0 7.855,-0.2767 9.36329,-1.4531 0.75413,-0.588238 1.23288,-1.404601 1.54299,-2.662099 0.30993,-1.257502 0.42773,-2.939501 0.42773,-5.132804 V 24.0002 11.248198 c 0,-2.1932955 -0.11754,-3.8752985 -0.42773,-5.1327965 -0.30992,-1.257502 -0.78882,-2.0739 -1.54299,-2.662099 -1.50829,-1.176503 -4.37401,-1.453101 -9.36329,-1.453101 z m 2.40231,1.097698 c 6.94741,8.29e-4 13.911,0.0034 20.84999,0.05469 2.14303,0.08292 4.4643,-0.147703 6.4238,0.931638 1.29611,0.695234 1.54862,2.250301 1.7695,3.564504 0.17537,2.202897 0.0915,4.4421985 0.13871,6.6698975 0.0227,8.479498 0.0771,16.968998 -0.0801,25.447 -0.16138,1.4832 -0.38135,3.305798 -1.79879,4.142601 -1.6055,0.82871 -3.4755,0.906429 -5.24799,0.953129 C 28.29369,44.92896 18.7694,44.94544 9.27042,44.8434 7.69221,44.729258 5.99992,44.603249 4.63759,43.722301 3.40811,42.726921 3.27681,40.9949 3.13372,39.5289 3.00635,30.530302 3.05022,21.5249 3.08122,12.520902 3.18102,10.139599 2.83593,7.6209005 3.78633,5.3607015 c 0.67162,-1.509698 2.46569,-1.86 3.9394,-2.0566 2.6617,-0.316574 5.3418,-0.147023 8.0137,-0.207043 z"
     color="#000000"
     fill="url(#linearGradient1686-0)"
     id="path48"
     style="fill:url(#linearGradient1686-0);stroke-width:0.999999" />
</svg>
