<?xml version="1.0" encoding="UTF-8" standalone="no"?>
<svg
   inkscape:version="1.1.1 (3bf5ae0d25, 2021-09-20, custom)"
   sodipodi:docname="visual-studio-code.svg"
   id="svg20"
   version="1"
   height="48"
   width="48"
   xmlns:inkscape="http://www.inkscape.org/namespaces/inkscape"
   xmlns:sodipodi="http://sodipodi.sourceforge.net/DTD/sodipodi-0.dtd"
   xmlns="http://www.w3.org/2000/svg"
   xmlns:svg="http://www.w3.org/2000/svg"
   xmlns:rdf="http://www.w3.org/1999/02/22-rdf-syntax-ns#"
   xmlns:cc="http://creativecommons.org/ns#"
   xmlns:dc="http://purl.org/dc/elements/1.1/">
  <metadata
     id="metadata26">
    <rdf:RDF>
      <cc:Work
         rdf:about="">
        <dc:format>image/svg+xml</dc:format>
        <dc:type
           rdf:resource="http://purl.org/dc/dcmitype/StillImage" />
      </cc:Work>
    </rdf:RDF>
  </metadata>
  <defs
     id="defs24">
    <linearGradient
       id="linearGradient1686-0"
       x1="322"
       x2="366"
       y1="84"
       y2="84"
       gradientTransform="rotate(90,214.00001,-106)"
       gradientUnits="userSpaceOnUse">
      <stop
         stop-color="#fff"
         offset="0"
         id="stop17" />
      <stop
         stop-color="#fff"
         stop-opacity=".098039"
         offset=".125"
         id="stop19" />
      <stop
         stop-color="#fff"
         stop-opacity=".098039"
         offset=".925"
         id="stop21" />
      <stop
         stop-color="#fff"
         stop-opacity=".49804"
         offset="1"
         id="stop23" />
    </linearGradient>
  </defs>
  <sodipodi:namedview
     inkscape:current-layer="svg20"
     inkscape:window-maximized="1"
     inkscape:window-y="0"
     inkscape:window-x="0"
     inkscape:cy="40.861538"
     inkscape:cx="6.8102563"
     inkscape:zoom="6.0937501"
     showgrid="false"
     id="namedview22"
     inkscape:window-height="1053"
     inkscape:window-width="1850"
     inkscape:pageshadow="2"
     inkscape:pageopacity="0"
     guidetolerance="10"
     gridtolerance="10"
     objecttolerance="10"
     borderopacity="1"
     bordercolor="#666666"
     pagecolor="#ffffff"
     inkscape:document-rotation="0"
     inkscape:pagecheckerboard="0" />
  <path
     d="m 13.65801,2.0000015 c -2.62209,0 -4.6868,0.05008 -6.38559,0.286752 -1.6989,0.236637 -3.08901,0.680501 -4.1074,1.523501 C 2.1467,4.6532635 1.60922,5.8063555 1.3267,7.2166565 1.04437,8.6269555 0.98918,10.343953 1.00203,12.525054 v 12.475 12.480998 c -0.0113,2.1777 0.0427,3.893901 0.32467,5.302701 0.28233,1.4103 0.82,2.5634 1.83832,3.406401 1.01828,0.843008 2.4085,1.286899 4.1074,1.523503 1.6989,0.23663 3.7635,0.28675 6.38559,0.28675 h 20.686 c 2.62208,0 4.68571,-0.05 6.38101,-0.28675 1.69527,-0.236752 3.0813,-0.682105 4.0958,-1.525404 1.01458,-0.843307 1.54878,-1.995598 1.83368,-3.4045 0.28497,-1.408899 0.34545,-3.122499 0.34545,-5.302701 V 25.000054 12.519052 c 0,-2.180198 -0.0609,-3.8936975 -0.34545,-5.3026985 -0.28498,-1.408898 -0.8191,-2.561201 -1.83368,-3.404501 -1.01461,-0.843318 -2.40053,-1.288697 -4.0958,-1.525397 -1.6953,-0.236751 -3.75893,-0.286754 -6.38101,-0.286754 z"
     color="#000000"
     color-rendering="auto"
     dominant-baseline="auto"
     image-rendering="auto"
     opacity="0.1"
     shape-rendering="auto"
     solid-color="#000000"
     style="font-variant-ligatures:normal;font-variant-position:normal;font-variant-caps:normal;font-variant-numeric:normal;font-variant-alternates:normal;font-feature-settings:normal;text-indent:0;text-decoration-line:none;text-decoration-style:solid;text-decoration-color:#000000;text-transform:none;text-orientation:mixed;white-space:normal;shape-padding:0;isolation:auto;mix-blend-mode:normal;stroke-width:0.999999"
     id="path28" />
  <path
     d="m 13.33501,1.4999995 c -10.01102,0 -11.88699,0.90635 -11.834,9.7483985 v 12.752001 12.751998 c -0.0525,8.842001 1.8229,9.748404 11.834,9.748404 h 21.33101 c 10.00899,0 11.83397,-0.906252 11.83397,-9.748404 V 24.000399 11.248398 c 0,-8.8420975 -1.8254,-9.7483985 -11.83397,-9.7483985 z"
     color="#000000"
     fill="url(#linearGradient1686)"
     id="path30"
     style="fill:#333333;fill-opacity:1;stroke-width:0.999999" />
  <path
     d="m 31.93101,2.4999005 c 13.62198,0 15.56798,1.941898 15.56798,15.5509965 v 11.898002 c 0,13.608999 -1.94668,15.551 -15.56798,15.551 H 16.06799 C 2.446,45.499899 0.5,43.558 0.5,29.948899 V 18.050897 C 0.5,4.4419005 2.44672,2.4999005 16.06799,2.4999005 Z"
     enable-background="new"
     fill="url(#linearGradient986)"
     id="path34"
     style="stroke-width:0.999999" />
  <path
     d="m 13.33501,1.4999995 c -10.01102,0 -11.88699,0.90635 -11.834,9.7483985 v 12.752001 12.751998 c -0.0525,8.842001 1.8229,9.748404 11.834,9.748404 h 21.33101 c 10.00899,0 11.83397,-0.906252 11.83397,-9.748404 V 24.000399 11.248398 c 0,-8.8420975 -1.8254,-9.7483985 -11.83397,-9.7483985 z"
     color="#000000"
     fill="none"
     opacity="0.4"
     stroke="#000000"
     id="path46"
     style="stroke-width:0.999999" />
  <path
     d="m 13.33599,2.0000015 c -4.99048,0 -7.87048,0.276283 -9.38479,1.453099 -0.75711,0.58842 -1.23761,1.403498 -1.54488,2.660198 -0.30728,1.256602 -0.4173,2.94 -0.4043,5.1328015 v 12.753997 12.754001 c -0.0113,2.192799 0.0971,3.876201 0.4043,5.132799 0.30727,1.256602 0.78777,2.071703 1.54488,2.660202 1.51431,1.176801 4.39431,1.4531 9.38479,1.4531 h 21.33003 c 4.98917,0 7.855,-0.2767 9.36329,-1.4531 0.75413,-0.588238 1.23288,-1.404601 1.54299,-2.662099 0.30993,-1.257502 0.42773,-2.939501 0.42773,-5.132804 V 24.000199 11.248197 c 0,-2.1932955 -0.11754,-3.8752995 -0.42773,-5.1327965 -0.30992,-1.257502 -0.78882,-2.073899 -1.54299,-2.662099 -1.50829,-1.176503 -4.37401,-1.4531 -9.36329,-1.4531 z m 2.40231,1.097699 c 6.94741,8.28e-4 13.911,0.0034 20.84999,0.05469 2.14303,0.08292 4.4643,-0.147705 6.4238,0.931638 1.29611,0.695233 1.54862,2.250301 1.7695,3.564503 0.17537,2.202897 0.0915,4.4421985 0.13871,6.6698975 0.0227,8.479498 0.0771,16.968998 -0.0801,25.447 -0.16138,1.4832 -0.38135,3.305798 -1.79879,4.142601 -1.6055,0.82871 -3.4755,0.906429 -5.24799,0.953129 -9.49973,0.0678 -19.02402,0.08428 -28.523,-0.01776 C 7.69221,44.729257 5.99992,44.603248 4.63759,43.7223 3.40811,42.72692 3.27681,40.994899 3.13372,39.528899 3.00635,30.530301 3.05022,21.524899 3.08122,12.520901 3.18102,10.139598 2.83593,7.6208995 3.78633,5.3607005 c 0.67162,-1.509698 2.46569,-1.86 3.9394,-2.0566 2.6617,-0.316574 5.3418,-0.147023 8.0137,-0.207042 z"
     color="#000000"
     fill="url(#linearGradient1686-0)"
     id="path48"
     style="fill:url(#linearGradient1686-0);stroke-width:0.999999" />
  <path
     id="path6"
     d="M 38.868191,11.389791 32.278838,8.1987193 c -0.762661,-0.369368 -1.674229,-0.21356 -2.272863,0.388496 L 8.4347293,28.014488 c -0.5802122,0.53212 -0.5795451,1.450856 0.00144,1.982096 l 1.7620087,1.611056 c 0.474985,0.434368 1.190311,0.46628 1.701711,0.07616 L 37.876671,12.217631 c 0.871467,-0.664952 2.123203,-0.03976 2.123203,1.060448 v -0.07696 c 0,-0.772296 -0.439856,-1.476312 -1.131683,-1.811336 z"
     style="fill:#0072b0;stroke-width:1.14286" />
  <path
     id="path12"
     d="m 38.868191,36.610296 -6.589353,3.19108 c -0.762661,0.36928 -1.674229,0.213472 -2.272863,-0.388504 L 8.4347293,18.807213 c -0.5802122,-0.53208 -0.5795451,-1.450856 0.00144,-1.98208 l 1.7620087,-1.611121 c 0.474985,-0.434304 1.190311,-0.46628 1.701711,-0.07608 L 37.876671,35.7824 c 0.871467,0.664928 2.123203,0.03984 2.123203,-1.060464 v 0.07704 c 0,0.772232 -0.439856,1.47624 -1.131683,1.811344 z"
     style="fill:#008eda;stroke-width:1.14286" />
  <path
     id="path16"
     d="m 32.279211,39.80188 c -0.762908,0.369024 -1.674476,0.213096 -2.273112,-0.389008 0.73755,0.741824 1.99878,0.216368 1.99878,-0.832792 V 9.4199193 c 0,-1.0491599 -1.26123,-1.574592 -1.99878,-0.83272 0.598636,-0.602104 1.510204,-0.758136 2.273112,-0.3890959 l 6.58823,3.1866876 C 39.559768,11.719639 40,12.423911 40,13.196543 v 21.607065 c 0,0.772608 -0.440232,1.476864 -1.132559,1.811712 z"
     style="fill:#1eacf8;stroke-width:1.14286" />
</svg>
