<?xml version="1.0" encoding="UTF-8" standalone="no"?>
<svg
   xmlns:dc="http://purl.org/dc/elements/1.1/"
   xmlns:cc="http://creativecommons.org/ns#"
   xmlns:rdf="http://www.w3.org/1999/02/22-rdf-syntax-ns#"
   xmlns:svg="http://www.w3.org/2000/svg"
   xmlns="http://www.w3.org/2000/svg"
   xmlns:sodipodi="http://sodipodi.sourceforge.net/DTD/sodipodi-0.dtd"
   xmlns:inkscape="http://www.inkscape.org/namespaces/inkscape"
   width="26"
   height="22"
   version="1.1"
   id="svg47"
   sodipodi:docname="minimize.svg"
   inkscape:version="1.0.1 (3bc2e813f5, 2020-09-07)">
  <metadata
     id="metadata53">
    <rdf:RDF>
      <cc:Work
         rdf:about="">
        <dc:format>
                    image/svg+xml
                </dc:format>
        <dc:type
           rdf:resource="http://purl.org/dc/dcmitype/StillImage" />
        <dc:title />
      </cc:Work>
    </rdf:RDF>
  </metadata>
  <defs
     id="defs51" />
  <sodipodi:namedview
     pagecolor="#ffffff"
     bordercolor="#666666"
     borderopacity="1"
     objecttolerance="10"
     gridtolerance="10"
     guidetolerance="10"
     inkscape:pageopacity="0"
     inkscape:pageshadow="2"
     inkscape:window-width="1312"
     inkscape:window-height="520"
     id="namedview49"
     showgrid="true"
     inkscape:zoom="11.313709"
     inkscape:cx="90.548927"
     inkscape:cy="17.010668"
     inkscape:window-x="54"
     inkscape:window-y="89"
     inkscape:window-maximized="0"
     inkscape:current-layer="hover-center"
     inkscape:document-rotation="0"
     inkscape:lockguides="false">
    <inkscape:grid
       type="xygrid"
       id="grid4565" />
  </sodipodi:namedview>
  <g
     id="active-center"
     style="opacity:1"
     transform="translate(104)">
    <path
       style="opacity:0;fill:#5c5c5c;fill-opacity:1;stroke:none;stroke-width:1;stroke-linecap:round;stroke-linejoin:round;stroke-miterlimit:4;stroke-dasharray:none;stroke-opacity:1"
       id="path4563"
       sodipodi:type="arc"
       sodipodi:cx="13"
       sodipodi:cy="11"
       sodipodi:rx="10"
       sodipodi:ry="10"
       sodipodi:start="4.7422341"
       sodipodi:end="4.7124064"
       sodipodi:open="true"
       d="M 13.298407,1.0044533 A 10,10 0 0 1 22.997494,11.223863 10,10 0 0 1 12.850693,20.998885 10,10 0 0 1 3.0002793,10.925257 10,10 0 0 1 13.000174,1" />
    <path
       d="M 0,0 H 26 V 22 H 0 Z"
       style="opacity:0;fill:#e81123"
       id="path2"
       inkscape:connector-curvature="0" />
    <rect
       style="fill:#efefef;fill-opacity:1;stroke-width:1"
       id="rect884"
       width="10"
       height="1"
       x="8"
       y="13" />
  </g>
  <g
     id="hover-center"
     style="opacity:1"
     transform="translate(78)">
    <path
       d="M 0,0 H 26 V 22 H 0 Z"
       style="opacity:0;fill:#e81123"
       id="path11"
       inkscape:connector-curvature="0" />
    <path
       style="opacity:1;fill:#4f4f4f;fill-opacity:1;stroke:none;stroke-width:1;stroke-linecap:round;stroke-linejoin:round;stroke-miterlimit:4;stroke-dasharray:none;stroke-opacity:1"
       id="path13"
       sodipodi:type="arc"
       sodipodi:cx="13"
       sodipodi:cy="11"
       sodipodi:rx="10"
       sodipodi:ry="10"
       sodipodi:start="4.7422341"
       sodipodi:end="4.7124064"
       sodipodi:open="true"
       d="M 13.298407,1.0044533 A 10,10 0 0 1 22.997494,11.223863 10,10 0 0 1 12.850693,20.998885 10,10 0 0 1 3.0002793,10.925257 10,10 0 0 1 13.000174,1" />
    <rect
       style="fill:#ffffff;fill-opacity:1"
       id="rect882"
       width="10"
       height="1"
       x="8"
       y="13" />
  </g>
  <g
     id="pressed-center"
     style="opacity:1;fill:#5c5c5c;fill-opacity:1"
     transform="translate(52)">
    <path
       d="M 0,0 H 26 V 22 H 0 Z"
       style="opacity:0;fill:#5c5c5c;fill-opacity:1"
       id="path20"
       inkscape:connector-curvature="0" />
    <path
       style="opacity:1;fill:#5c5c5c;fill-opacity:1;stroke:none;stroke-width:1;stroke-linecap:round;stroke-linejoin:round;stroke-miterlimit:4;stroke-dasharray:none;stroke-opacity:1"
       id="path23"
       sodipodi:type="arc"
       sodipodi:cx="13"
       sodipodi:cy="11"
       sodipodi:rx="10"
       sodipodi:ry="10"
       sodipodi:start="4.7422341"
       sodipodi:end="4.7124064"
       d="M 13.298407,1.0044533 A 10,10 0 0 1 22.997494,11.223863 10,10 0 0 1 12.850693,20.998885 10,10 0 0 1 3.0002793,10.925257 10,10 0 0 1 13.000174,1 L 13,11 Z"
       sodipodi:arc-type="slice" />
    <rect
       style="fill:#ffffff;fill-opacity:1"
       id="rect880"
       width="10"
       height="1"
       x="8"
       y="13" />
  </g>
  <g
     id="inactive-center"
     style="opacity:1"
     transform="translate(26)">
    <path
       d="M 0,0 H 26 V 22 H 0 Z"
       style="opacity:0;fill:#e5e5e5"
       id="path29"
       inkscape:connector-curvature="0" />
    <rect
       style="fill:#808080;fill-opacity:1"
       id="rect876"
       width="10"
       height="1"
       x="8"
       y="13" />
  </g>
  <g
     id="deactivated-center"
     style="display:inline;opacity:1">
    <path
       d="M 0,0 H 26 V 22 H 0 Z"
       style="opacity:0;fill:#e5e5e5"
       id="path38"
       inkscape:connector-curvature="0" />
    <rect
       style="fill:#808080;fill-opacity:1"
       id="rect872"
       width="10"
       height="1"
       x="8"
       y="13" />
  </g>
</svg>
