<?xml version="1.0" encoding="UTF-8" standalone="no"?>
<svg
   xmlns:dc="http://purl.org/dc/elements/1.1/"
   xmlns:cc="http://creativecommons.org/ns#"
   xmlns:rdf="http://www.w3.org/1999/02/22-rdf-syntax-ns#"
   xmlns:svg="http://www.w3.org/2000/svg"
   xmlns="http://www.w3.org/2000/svg"
   xmlns:sodipodi="http://sodipodi.sourceforge.net/DTD/sodipodi-0.dtd"
   xmlns:inkscape="http://www.inkscape.org/namespaces/inkscape"
   width="26"
   height="22"
   version="1.1"
   id="svg27"
   sodipodi:docname="restore.svg"
   inkscape:version="1.0.1 (3bc2e813f5, 2020-09-07)">
  <metadata
     id="metadata33">
    <rdf:RDF>
      <cc:Work
         rdf:about="">
        <dc:format>
                    image/svg+xml
                </dc:format>
        <dc:type
           rdf:resource="http://purl.org/dc/dcmitype/StillImage" />
        <dc:title />
      </cc:Work>
    </rdf:RDF>
  </metadata>
  <defs
     id="defs31" />
  <sodipodi:namedview
     pagecolor="#ffffff"
     bordercolor="#666666"
     borderopacity="1"
     objecttolerance="10"
     gridtolerance="10"
     guidetolerance="10"
     inkscape:pageopacity="0"
     inkscape:pageshadow="2"
     inkscape:window-width="1366"
     inkscape:window-height="706"
     id="namedview29"
     showgrid="true"
     inkscape:zoom="10.727273"
     inkscape:cx="39.469046"
     inkscape:cy="10.684764"
     inkscape:window-x="0"
     inkscape:window-y="25"
     inkscape:window-maximized="1"
     inkscape:current-layer="active-center"
     inkscape:document-rotation="0">
    <inkscape:grid
       type="xygrid"
       id="grid843" />
  </sodipodi:namedview>
  <g
     id="active-center"
     style="opacity:1"
     transform="translate(104)">
    <path
       d="M 0,0 H 26 V 22 H 0 Z"
       style="opacity:0;fill:#e5e5e5"
       id="path2"
       inkscape:connector-curvature="0" />
    <path
       style="font-weight:400;font-family:sans-serif;overflow:visible;fill:#efefef;fill-opacity:1"
       d="m 8,7 v 9 h 9 V 7 Z m 1,1 h 7 v 7 H 9 Z"
       font-weight="400"
       overflow="visible"
       id="path4"
       inkscape:connector-curvature="0"
       sodipodi:nodetypes="cccccccccc" />
    <path
       style="fill:#cccccc;stroke:none;stroke-width:1px;stroke-linecap:butt;stroke-linejoin:miter;stroke-opacity:1;fill-opacity:1"
       d="M 10,6 V 5 h 9 v 9 H 18 V 6 Z"
       id="path836"
       inkscape:connector-curvature="0" />
  </g>
  <g
     id="hover-center"
     style="opacity:1"
     transform="translate(78)">
    <path
       style="opacity:1;fill:#4f4f4f;fill-opacity:1;stroke:none;stroke-width:1;stroke-linecap:round;stroke-linejoin:round;stroke-miterlimit:4;stroke-dasharray:none;stroke-opacity:1"
       id="path13"
       sodipodi:type="arc"
       sodipodi:cx="13"
       sodipodi:cy="11"
       sodipodi:rx="10"
       sodipodi:ry="10"
       sodipodi:start="4.7422341"
       sodipodi:end="4.7124064"
       d="M 13.298407,1.0044533 A 10,10 0 0 1 22.997494,11.223863 10,10 0 0 1 12.850693,20.998885 10,10 0 0 1 3.0002793,10.925257 10,10 0 0 1 13.000174,1 L 13,11 Z"
       sodipodi:arc-type="slice" />
    <path
       d="M 0,0 H 26 V 22 H 0 Z"
       style="opacity:0;fill:#0000e5;fill-opacity:1"
       id="path7"
       inkscape:connector-curvature="0" />
    <path
       style="font-weight:400;font-family:sans-serif;overflow:visible;fill:#ffffff;fill-opacity:1"
       d="m 8,7 v 9 h 9 V 7 Z m 1,1 h 7 v 7 H 9 Z"
       font-weight="400"
       overflow="visible"
       id="path10"
       inkscape:connector-curvature="0"
       sodipodi:nodetypes="cccccccccc" />
    <path
       style="fill:#cccccc;stroke:none;stroke-width:1px;stroke-linecap:butt;stroke-linejoin:miter;stroke-opacity:1;fill-opacity:1"
       d="M 10,6 V 5 h 9 v 9 H 18 V 6 Z"
       id="path12"
       inkscape:connector-curvature="0" />
  </g>
  <g
     id="pressed-center"
     style="opacity:1"
     transform="translate(52)">
    <path
       style="opacity:1;fill:#5c5c5c;fill-opacity:1;stroke:none;stroke-width:1;stroke-linecap:round;stroke-linejoin:round;stroke-miterlimit:4;stroke-dasharray:none;stroke-opacity:1"
       id="path23-6"
       sodipodi:type="arc"
       sodipodi:cx="13"
       sodipodi:cy="11"
       sodipodi:rx="10"
       sodipodi:ry="10"
       sodipodi:start="4.7422341"
       sodipodi:end="4.7124064"
       d="M 13.298407,1.0044533 A 10,10 0 0 1 22.997494,11.223863 10,10 0 0 1 12.850693,20.998885 10,10 0 0 1 3.0002793,10.925257 10,10 0 0 1 13.000174,1 L 13,11 Z"
       sodipodi:arc-type="slice" />
    <path
       d="M 0,0 H 26 V 22 H 0 Z"
       style="opacity:0;fill:#0be531;fill-opacity:1"
       id="path15"
       inkscape:connector-curvature="0" />
    <path
       style="font-weight:400;font-family:sans-serif;overflow:visible;fill:#ffffff;fill-opacity:1"
       d="m 8,7 v 9 h 9 V 7 Z m 1,1 h 7 v 7 H 9 Z"
       font-weight="400"
       overflow="visible"
       id="path14"
       inkscape:connector-curvature="0"
       sodipodi:nodetypes="cccccccccc" />
    <path
       style="fill:#cccccc;stroke:none;stroke-width:1px;stroke-linecap:butt;stroke-linejoin:miter;stroke-opacity:1;fill-opacity:1"
       d="M 10,6 V 5 h 9 v 9 H 18 V 6 Z"
       id="path18"
       inkscape:connector-curvature="0" />
  </g>
  <g
     id="inactive-center"
     style="opacity:1"
     transform="translate(26)">
    <path
       d="M 0,0 H 26 V 22 H 0 Z"
       style="opacity:0;fill:#e5e5e5"
       id="path17"
       inkscape:connector-curvature="0" />
    <path
       style="font-weight:400;font-family:sans-serif;overflow:visible;fill:#808080"
       d="m 8,7 v 9 h 9 V 7 Z m 1,1 h 7 v 7 H 9 Z"
       font-weight="400"
       overflow="visible"
       id="path22"
       inkscape:connector-curvature="0"
       sodipodi:nodetypes="cccccccccc" />
    <path
       style="fill:#505050;stroke:none;stroke-width:1px;stroke-linecap:butt;stroke-linejoin:miter;stroke-opacity:1;fill-opacity:1"
       d="M 10,6 V 5 h 9 v 9 H 18 V 6 Z"
       id="path24"
       inkscape:connector-curvature="0" />
  </g>
  <g
     id="deactivated-center"
     style="opacity:1">
    <path
       d="M 0,0 H 26 V 22 H 0 Z"
       style="opacity:0;fill:#e5e5e5"
       id="path27"
       inkscape:connector-curvature="0" />
    <path
       style="font-weight:400;font-family:sans-serif;overflow:visible;fill:#808080"
       d="m 8,7 v 9 h 9 V 7 Z m 1,1 h 7 v 7 H 9 Z"
       font-weight="400"
       overflow="visible"
       id="path23"
       inkscape:connector-curvature="0"
       sodipodi:nodetypes="cccccccccc" />
    <path
       style="fill:#505050;stroke:none;stroke-width:1px;stroke-linecap:butt;stroke-linejoin:miter;stroke-opacity:1;fill-opacity:1"
       d="M 10,6 V 5 h 9 v 9 H 18 V 6 Z"
       id="path30"
       inkscape:connector-curvature="0" />
  </g>
</svg>
