<?xml version="1.0" encoding="UTF-8" standalone="no"?>
<svg
   version="1.1"
   viewBox="0 0 16 16"
   id="svg7"
   sodipodi:docname="view-refresh-symbolic.svg"
   inkscape:version="1.1 (c4e8f9ed74, 2021-05-24)"
   xmlns:inkscape="http://www.inkscape.org/namespaces/inkscape"
   xmlns:sodipodi="http://sodipodi.sourceforge.net/DTD/sodipodi-0.dtd"
   xmlns="http://www.w3.org/2000/svg"
   xmlns:svg="http://www.w3.org/2000/svg">
  <sodipodi:namedview
     id="namedview9"
     pagecolor="#ffffff"
     bordercolor="#666666"
     borderopacity="1.0"
     inkscape:pageshadow="2"
     inkscape:pageopacity="0.0"
     inkscape:pagecheckerboard="0"
     showgrid="false"
     inkscape:zoom="36.504388"
     inkscape:cx="13.875044"
     inkscape:cy="10.752132"
     inkscape:window-width="1852"
     inkscape:window-height="1016"
     inkscape:window-x="68"
     inkscape:window-y="27"
     inkscape:window-maximized="1"
     inkscape:current-layer="svg7" />
  <defs
     id="defs3">
    <style
       type="text/css"
       id="current-color-scheme">.ColorScheme-Text {
          color:gray;
      }
     </style>
  </defs>
  <path
     id="path5"
     class="ColorScheme-Text"
     style="fill:currentColor;fill-opacity:1"
     d="M 8 2 C 6.891182 2 5.859929 2.319333 4.96875 2.84375 L 5.6875 3.59375 C 5.6957 3.58942 5.71075 3.5982 5.71875 3.59375 C 5.805417 3.545755 5.87709 3.478461 5.96875 3.4375 C 5.999101 3.423626 6.031825 3.419522 6.0625 3.40625 C 6.327376 3.291647 6.5884185 3.19195 6.875 3.125 C 7.0074468 3.094286 7.1450007 3.082455 7.28125 3.0625 C 7.5144918 3.02845 7.756976 3 8 3 C 10.761424 3 13 5.238576 13 8 C 13 8.172589 12.98582 8.3319146 12.96875 8.5 C 12.962684 8.5529713 12.945289 8.6038437 12.9375 8.65625 C 12.910216 8.8601377 12.86359 9.05466 12.8125 9.25 L 11.1875 7.625 L 10.46875 8.34375 L 13.15625 11.03125 L 13.90625 10.28125 L 15.8125 8.34375 L 15.125 7.65625 L 13.941406 8.8164062 C 13.979538 8.5498741 14 8.2772043 14 8 C 14 4.686293 11.313709 2 8 2 z M 2.84375 4.96875 L 2.09375 5.71875 L 0.1875 7.65625 L 0.875 8.34375 L 2.0585938 7.1835938 C 2.0204623 7.4501259 2 7.7227957 2 8 C 2 11.313707 4.686291 14 8 14 C 9.108818 14 10.140071 13.680667 11.03125 13.15625 L 10.3125 12.40625 L 10.28125 12.40625 C 10.195985 12.453888 10.12011 12.52188 10.03125 12.5625 C 10.000849 12.57609 9.968218 12.58076 9.9375 12.59375 C 9.672624 12.708353 9.4115815 12.80805 9.125 12.875 C 8.9925532 12.90571 8.8549993 12.91755 8.71875 12.9375 C 8.4801862 12.97244 8.2482626 13 8 13 C 5.583754 13 3.559981 11.278415 3.09375 9 C 3.060448 8.837256 3.04832 8.6680853 3.03125 8.5 C 3.01418 8.3319146 3 8.172589 3 8 C 3 7.827411 3.01418 7.6680854 3.03125 7.5 C 3.03732 7.4470287 3.0547 7.396156 3.0625 7.34375 C 3.08978 7.1398623 3.13641 6.94534 3.1875 6.75 L 4.8125 8.34375 L 5.5 7.65625 L 3.59375 5.71875 L 2.84375 4.96875 z " />
</svg>
