<?xml version="1.0" encoding="UTF-8" standalone="no"?>
<svg
   width="16"
   height="16"
   version="1"
   id="svg44"
   sodipodi:docname="libreoffice-symbolic.svg"
   inkscape:version="1.1.1 (3bf5ae0d25, 2021-09-20, custom)"
   xmlns:inkscape="http://www.inkscape.org/namespaces/inkscape"
   xmlns:sodipodi="http://sodipodi.sourceforge.net/DTD/sodipodi-0.dtd"
   xmlns="http://www.w3.org/2000/svg"
   xmlns:svg="http://www.w3.org/2000/svg">
  <sodipodi:namedview
     id="namedview46"
     pagecolor="#ffffff"
     bordercolor="#666666"
     borderopacity="1.0"
     inkscape:pageshadow="2"
     inkscape:pageopacity="0.0"
     inkscape:pagecheckerboard="0"
     showgrid="false"
     inkscape:zoom="34.559844"
     inkscape:cx="9.9682163"
     inkscape:cy="9.5197189"
     inkscape:window-width="1850"
     inkscape:window-height="1053"
     inkscape:window-x="0"
     inkscape:window-y="0"
     inkscape:window-maximized="1"
     inkscape:current-layer="svg44" />
  <defs
     id="defs24">
    <linearGradient
       id="linearGradient920"
       x1="39.094"
       x2="455.25"
       y1="240.27"
       y2="401.58"
       gradientTransform="matrix(0,-0.036044,-0.036043,0,19.565,16.909)"
       gradientUnits="userSpaceOnUse">
      <stop
         stop-color="#c04fba"
         offset="0"
         id="stop2" />
      <stop
         stop-color="#91a"
         offset="1"
         id="stop4" />
    </linearGradient>
    <linearGradient
       id="linearGradient1309"
       x1="332"
       x2="324"
       y1="236"
       y2="252"
       gradientTransform="translate(-320,-236)"
       gradientUnits="userSpaceOnUse">
      <stop
         stop-color="#f2f2f2"
         offset="0"
         id="stop7" />
      <stop
         stop-color="#fff"
         offset="1"
         id="stop9" />
    </linearGradient>
    <linearGradient
       id="linearGradient993"
       x1="328"
       x2="328"
       y1="237"
       y2="251"
       gradientUnits="userSpaceOnUse">
      <stop
         stop-color="#fff"
         offset="0"
         id="stop12" />
      <stop
         stop-color="#fff"
         stop-opacity=".098039"
         offset=".125"
         id="stop14" />
      <stop
         stop-color="#fff"
         stop-opacity=".098039"
         offset=".925"
         id="stop16" />
      <stop
         stop-color="#fff"
         stop-opacity=".49804"
         offset="1"
         id="stop18" />
    </linearGradient>
    <clipPath
       id="clipPath983-6">
      <path
         d="m325.1 237c-2.8077 0-3.1098 0.28839-3.096 3.1018v3.8982 3.8982c-0.0138 2.8134 0.28834 3.1018 3.096 3.1018h5.8075c2.8077 0 3.096-0.28835 3.096-3.1018v-3.8982-3.8982c0-2.8134-0.28835-3.1018-3.096-3.1018z"
         color="#000000"
         fill="#46a926"
         id="path21" />
    </clipPath>
  </defs>
  <path
     id="path28"
     style="fill:#666666;fill-opacity:1"
     d="M 5.0957031,1 C 4.392449,1 3.8535249,1.016451 3.4277344,1.0878906 3.0071426,1.158458 2.7013678,1.2854303 2.4902344,1.4960938 2.2789814,1.7068499 2.1538654,2.0092779 2.0839844,2.4296875 2.0132804,2.8551318 1.99654,3.3968709 2,4.1015625 V 8 11.900391 c -0.00297,0.70386 0.013429,1.245351 0.083984,1.669921 0.06986,0.420373 0.1949733,0.722808 0.40625,0.933594 0.2111491,0.210653 0.5169724,0.337604 0.9375,0.408203 C 3.8534196,14.983543 4.3924288,15 5.0957031,15 h 5.8085939 c 0.703301,0 1.243439,-0.01642 1.667969,-0.08789 0.419852,-0.07067 0.723992,-0.19827 0.933593,-0.408203 0.209877,-0.210242 0.33561,-0.512475 0.40625,-0.933594 C 13.983449,13.144895 14,12.603076 14,11.898438 V 8 6 L 9,1 Z M 10.414062,1 14,4.5859375 V 4.1015625 C 14,3.3969309 13.983451,2.8551592 13.912109,2.4296875 13.841502,2.0086227 13.715763,1.7063707 13.505859,1.4960938 13.296278,1.2861665 12.992112,1.1585436 12.572266,1.0878906 12.14768,1.0164206 11.607618,1 10.904297,1 Z M 5.0957031,2 H 8.5859375 L 13,6.4140625 V 8 11.898438 c 0,0.690147 -0.02062,1.186119 -0.07422,1.505859 -0.0515,0.30678 -0.117706,0.381378 -0.128906,0.392578 -0.0102,0.0103 -0.08629,0.07771 -0.390625,0.128906 C 12.08775,13.979381 11.593237,14 10.904297,14 H 5.0957031 c -0.6888,0 -1.1838862,-0.02052 -1.5039062,-0.07422 -0.30469,-0.05106 -0.3836844,-0.118059 -0.3964844,-0.130859 -0.0131,-0.0131 -0.0746,-0.0855 -0.125,-0.388672 C 3.0176125,13.08925 2.997,12.593457 3,11.904297 v -0.002 V 8 4.0996094 4.0957031 C 2.997,3.4064431 3.0174125,2.91214 3.0703125,2.59375 c 0.0504,-0.30317 0.1119,-0.3755719 0.125,-0.3886719 0.0128,-0.0128 0.091994,-0.07976 0.3964844,-0.1308593 C 3.9117969,2.0205187 4.4069031,2 5.0957031,2 Z"
     sodipodi:nodetypes="sscccccsccsscccscccsccscccscscccscccsscssccccccscs" />
</svg>
