<?xml version="1.0" encoding="UTF-8" standalone="no"?>
<svg
   width="16"
   height="16"
   version="1"
   id="svg88"
   sodipodi:docname="ubiquity-kde.svg"
   inkscape:version="1.1 (c4e8f9ed74, 2021-05-24)"
   xmlns:inkscape="http://www.inkscape.org/namespaces/inkscape"
   xmlns:sodipodi="http://sodipodi.sourceforge.net/DTD/sodipodi-0.dtd"
   xmlns="http://www.w3.org/2000/svg"
   xmlns:svg="http://www.w3.org/2000/svg">
  <sodipodi:namedview
     id="namedview90"
     pagecolor="#ffffff"
     bordercolor="#666666"
     borderopacity="1.0"
     inkscape:pageshadow="2"
     inkscape:pageopacity="0.0"
     inkscape:pagecheckerboard="0"
     showgrid="false"
     inkscape:zoom="51.625"
     inkscape:cx="8"
     inkscape:cy="8.0096852"
     inkscape:window-width="1555"
     inkscape:window-height="752"
     inkscape:window-x="179"
     inkscape:window-y="212"
     inkscape:window-maximized="0"
     inkscape:current-layer="svg88" />
  <defs
     id="defs24">
    <linearGradient
       id="linearGradient920"
       x1="441.38"
       x2="52.966"
       y1="240.28"
       y2="401.43"
       gradientTransform="matrix(0 -.038619 .039047 0 -4.5285 17.545)"
       gradientUnits="userSpaceOnUse">
      <stop
         stop-color="#b3b3b3"
         offset="0"
         id="stop2" />
      <stop
         stop-color="#d9d9d9"
         offset="1"
         id="stop4" />
    </linearGradient>
    <linearGradient
       id="linearGradient993"
       x1="328"
       x2="328"
       y1="237"
       y2="251"
       gradientUnits="userSpaceOnUse">
      <stop
         stop-color="#fff"
         offset="0"
         id="stop7" />
      <stop
         stop-color="#fff"
         stop-opacity=".098039"
         offset=".125"
         id="stop9" />
      <stop
         stop-color="#fff"
         stop-opacity=".098039"
         offset=".925"
         id="stop11" />
      <stop
         stop-color="#fff"
         stop-opacity=".49804"
         offset="1"
         id="stop13" />
    </linearGradient>
    <clipPath
       id="clipPath983">
      <path
         d="m325.1 237c-2.8077 0-3.1098 0.28839-3.096 3.1018v7.7964c-0.0138 2.8134 0.28834 3.1018 3.096 3.1018h5.8075c2.8077 0 3.096-0.28835 3.096-3.1018v-7.7964c0-2.8134-0.28835-3.1018-3.096-3.1018z"
         color="#000000"
         fill="#46a926"
         id="path16" />
    </clipPath>
    <linearGradient
       id="linearGradient1394"
       x1="77"
       x2="227"
       y1="156"
       y2="156"
       gradientTransform="rotate(90,152,156)"
       gradientUnits="userSpaceOnUse">
      <stop
         stop-color="#e6e6e6"
         offset="0"
         id="stop19" />
      <stop
         stop-color="#f2f2f2"
         offset="1"
         id="stop21" />
    </linearGradient>
  </defs>
  <path
     d="m5.0957 1c-0.71904 0-1.3018 0.0139-1.8359 0.10352-0.53409 0.0897-1.0683 0.27628-1.4766 0.68359-0.40826 0.4073-0.59657 0.94323-0.68554 1.4785-0.089 0.53529-0.10119 1.1205-0.0977 1.8418v6.791c-3e-3 0.71816 9e-3 1.3024 0.0977 1.8359 0.089 0.53528 0.27727 1.0712 0.68554 1.4785 0.40827 0.40731 0.94248 0.59394 1.4766 0.68359 0.53408 0.0897 1.1169 0.10352 1.8359 0.10352h5.8086c0.71904 0 1.3006-0.0137 1.834-0.10352 0.53341-0.0898 1.0677-0.27792 1.4746-0.68554s0.59404-0.94271 0.68359-1.4766c0.08956-0.53386 0.10352-1.1155 0.10352-1.8359v-6.7968c0-0.72043-0.014-1.3021-0.10352-1.8359-0.0895-0.53385-0.27666-1.0689-0.68359-1.4766s-0.9412-0.59578-1.4746-0.68554c-0.5334-0.08977-1.1149-0.10352-1.834-0.10352z"
     color="#000000"
     color-rendering="auto"
     dominant-baseline="auto"
     image-rendering="auto"
     opacity=".1"
     shape-rendering="auto"
     solid-color="#000000"
     style="font-feature-settings:normal;font-variant-alternates:normal;font-variant-caps:normal;font-variant-ligatures:normal;font-variant-numeric:normal;font-variant-position:normal;isolation:auto;mix-blend-mode:normal;shape-padding:0;text-decoration-color:#000000;text-decoration-line:none;text-decoration-style:solid;text-indent:0;text-orientation:mixed;text-transform:none;white-space:normal"
     id="path26" />
  <path
     d="m4.8545 0.50001c-3.0417 0-3.3689 0.30899-3.354 3.3233v8.3534c-0.0149 3.0143 0.31237 3.3233 3.354 3.3233h6.2915c3.0417 0 3.354-0.30895 3.354-3.3233v-8.3534c0-3.0144-0.31238-3.3233-3.354-3.3233z"
     color="#000000"
     fill="url(#linearGradient920)"
     id="path28" />
  <path
     transform="matrix(1.0833 0 0 1.0714 -347.33 -253.43)"
     d="m325.1 237c-2.8077 0-3.1098 0.28839-3.096 3.1018v7.7964c-0.0138 2.8134 0.28834 3.1018 3.096 3.1018h5.8075c2.8077 0 3.096-0.28835 3.096-3.1018v-7.7964c0-2.8134-0.28835-3.1018-3.096-3.1018z"
     clip-path="url(#clipPath983)"
     color="#000000"
     fill="none"
     opacity=".7"
     stroke="url(#linearGradient993)"
     stroke-width="1.8564"
     id="path30" />
  <path
     d="m11.087 15.512c2.8973 0 3.4401-0.30259 3.4249-3.2545v-8.5144c0.0152-2.952-0.52756-3.2545-3.4249-3.2545h-6.1733c-2.8966 0-3.4249 0.30255-3.4249 3.2545v8.5144c0 2.952 0.52828 3.2545 3.4249 3.2545z"
     color="#000000"
     fill="none"
     opacity=".4"
     stroke="#000"
     stroke-width=".97653"
     id="path32" />
  <circle
     cx="8"
     cy="7"
     r="5"
     color="#000000"
     fill="#4d4d4d"
     id="circle34" />
  <g
     transform="matrix(.053333 0 0 .053333 -.1065 -1.3202)"
     enable-background="new"
     stroke-width="18.75"
     id="g72">
    <path
       d="m152 231c-41.421 0-75-33.579-75-75s33.579-75 75-75 75 33.579 75 75-33.579 75-75 75z"
       enable-background="new"
       fill="url(#linearGradient1394)"
       id="path36" />
    <ellipse
       cx="152"
       cy="156"
       rx="32"
       ry="32"
       enable-background="new"
       opacity=".05"
       id="ellipse38" />
    <ellipse
       cx="152"
       cy="156"
       rx="20"
       ry="20"
       enable-background="new"
       fill="#fff"
       id="ellipse40" />
    <g
       opacity=".1"
       stroke-width="18.75"
       id="g66">
      <circle
         transform="rotate(-30)"
         cx="53.636"
         cy="185.1"
         r="2"
         opacity="1"
         id="circle42" />
      <circle
         transform="rotate(-30)"
         cx="53.636"
         cy="237.1"
         r="2"
         opacity="1"
         id="circle44" />
      <circle
         transform="rotate(-60)"
         cx="-59.1"
         cy="183.64"
         r="2"
         opacity="1"
         id="circle46" />
      <circle
         transform="rotate(-60)"
         cx="-59.1"
         cy="235.64"
         r="2"
         opacity="1"
         id="circle48" />
      <circle
         transform="rotate(-90)"
         cx="-156"
         cy="126"
         r="2"
         opacity="1"
         id="circle50" />
      <circle
         transform="rotate(-90)"
         cx="-156"
         cy="178"
         r="2"
         opacity="1"
         id="circle52" />
      <circle
         transform="rotate(240)"
         cx="-211.1"
         cy="27.636"
         r="2"
         opacity="1"
         id="circle54" />
      <circle
         transform="rotate(240)"
         cx="-211.1"
         cy="79.636"
         r="2"
         opacity="1"
         id="circle56" />
      <circle
         transform="rotate(210 152 156)"
         cx="152"
         cy="130"
         r="2"
         enable-background="new"
         opacity="1"
         id="circle58" />
      <circle
         transform="rotate(210 152 156)"
         cx="152"
         cy="182"
         r="2"
         enable-background="new"
         opacity="1"
         id="circle60" />
      <circle
         transform="scale(-1)"
         cx="-152"
         cy="-182"
         r="2"
         opacity="1"
         id="circle62" />
      <circle
         transform="scale(-1)"
         cx="-152"
         cy="-130"
         r="2"
         opacity="1"
         id="circle64" />
    </g>
    <ellipse
       cx="152"
       cy="156"
       rx="16"
       ry="16"
       enable-background="new"
       opacity=".1"
       id="ellipse68" />
    <ellipse
       cx="152"
       cy="156"
       rx="4"
       ry="4"
       enable-background="new"
       fill="#888"
       id="ellipse70" />
  </g>
  <g
     transform="matrix(.052335 -.020619 .020619 .052335 -14.147 8.2934)"
     enable-background="new"
     stroke-width="17.778"
     id="g78">
    <path
       d="m392.75 156.92s-117.99 44.04-124.4 45.755c-6.4016 1.7153-12.982-2.0837-14.697-8.4853-1.7153-6.4016 2.0837-12.982 8.4853-14.697 6.4016-1.7153 130.61-22.573 130.61-22.573z"
       enable-background="new"
       fill="#fff"
       id="path74" />
    <circle
       cx="265.25"
       cy="191.08"
       r="4"
       enable-background="new"
       fill="#808080"
       id="circle76" />
  </g>
  <path
     d="M 8,4.9999 C 8,7.20912 4.00009,10.5 4.00009,10.5 4.00009,10.5 0,7.20912 0,4.9999 0,2.79083 1.7909,1 4.00009,1 6.20929,1 8,2.79079 8,4.9999 Z"
     enable-background="new"
     opacity=".2"
     id="path80" />
  <path
     d="M 7.41211,4.05859 A 3,3 0 0 0 5,7 3,3 0 0 0 8,10 3,3 0 0 0 11,7 3,3 0 0 0 10.67969,5.66016 L 9.78906,6.10547 A 2,2 0 0 1 10,7 2,2 0 0 1 8,9 2,2 0 0 1 6,7 2,2 0 0 1 7.60742,5.04102 Z"
     enable-background="new"
     fill="#66bef0"
     opacity=".7"
     id="path84" />
  <path
     d="m8.0001 3.9999c0 2.2092-3.9999 5.5001-3.9999 5.5001s-4.0001-3.2909-4.0001-5.5001c0-2.2091 1.7909-3.9999 4.0001-3.9999s3.9999 1.7908 3.9999 3.9999z"
     enable-background="new"
     fill="#1793d1"
     id="path82" />
  <path
     d="m3.0001 2h2v1h0.91797c-0.3382 0.75366-0.94773 1.8178-1.918 3.4311-0.97044-1.6135-1.5798-2.6784-1.918-3.4322h0.91798z"
     color="#000000"
     fill="#fff"
     id="path86" />
</svg>
