<?xml version="1.0" encoding="UTF-8" standalone="no"?>
<svg
   width="16"
   height="16"
   version="1"
   id="svg44"
   sodipodi:docname="libreoffice-draw-symbolic.svg"
   inkscape:version="1.1.1 (3bf5ae0d25, 2021-09-20, custom)"
   xmlns:inkscape="http://www.inkscape.org/namespaces/inkscape"
   xmlns:sodipodi="http://sodipodi.sourceforge.net/DTD/sodipodi-0.dtd"
   xmlns="http://www.w3.org/2000/svg"
   xmlns:svg="http://www.w3.org/2000/svg">
  <sodipodi:namedview
     id="namedview46"
     pagecolor="#ffffff"
     bordercolor="#666666"
     borderopacity="1.0"
     inkscape:pageshadow="2"
     inkscape:pageopacity="0.0"
     inkscape:pagecheckerboard="0"
     showgrid="false"
     inkscape:zoom="12.21875"
     inkscape:cx="-12.56266"
     inkscape:cy="1.9641944"
     inkscape:window-width="1850"
     inkscape:window-height="1053"
     inkscape:window-x="0"
     inkscape:window-y="0"
     inkscape:window-maximized="1"
     inkscape:current-layer="svg44" />
  <defs
     id="defs24">
  </defs>
  <path
     id="path28"
     style="fill:#dfdfdf;fill-opacity:1"
     d="M 5.0957031 1 C 4.392449 1 3.8535249 1.016451 3.4277344 1.0878906 C 3.0071426 1.158458 2.7013678 1.2854303 2.4902344 1.4960938 C 2.2789814 1.7068499 2.1538654 2.0092779 2.0839844 2.4296875 C 2.0132804 2.8551318 1.99654 3.3968709 2 4.1015625 L 2 8 L 2 11.900391 C 1.99703 12.604251 2.0134294 13.145742 2.0839844 13.570312 C 2.1538444 13.990685 2.2789577 14.29312 2.4902344 14.503906 C 2.7013835 14.714559 3.0072068 14.84151 3.4277344 14.912109 C 3.8534204 14.983543 4.3924288 15 5.0957031 15 L 10.904297 15 C 11.607598 15 12.147736 14.983579 12.572266 14.912109 C 12.992118 14.841439 13.296258 14.713839 13.505859 14.503906 C 13.715736 14.293664 13.841469 13.991431 13.912109 13.570312 C 13.983449 13.144894 14 12.603074 14 11.898438 L 14 8 L 14 6 L 9 1 L 5.0957031 1 z M 10.414062 1 L 14 4.5859375 L 14 4.1015625 C 14 3.3969309 13.983451 2.8551592 13.912109 2.4296875 C 13.841502 2.0086227 13.715763 1.7063707 13.505859 1.4960938 C 13.296278 1.2861665 12.992112 1.1585436 12.572266 1.0878906 C 12.14768 1.0164206 11.607618 1 10.904297 1 L 10.414062 1 z M 5.0957031 2 L 8.5859375 2 L 13 6.4140625 L 13 8 L 13 11.898438 C 13 12.588584 12.979381 13.084557 12.925781 13.404297 C 12.874281 13.711077 12.808075 13.785675 12.796875 13.796875 C 12.786675 13.807175 12.710585 13.874585 12.40625 13.925781 C 12.087752 13.979381 11.593237 14 10.904297 14 L 5.0957031 14 C 4.4069031 14 3.9118169 13.979481 3.5917969 13.925781 C 3.2871069 13.874721 3.2081125 13.807722 3.1953125 13.794922 C 3.1822125 13.781822 3.1207125 13.709422 3.0703125 13.40625 C 3.0176125 13.089252 2.997 12.593457 3 11.904297 L 3 11.902344 L 3 8 L 3 4.0996094 L 3 4.0957031 C 2.997 3.4064431 3.0174125 2.91214 3.0703125 2.59375 C 3.1207125 2.29058 3.1822125 2.2181781 3.1953125 2.2050781 C 3.2081125 2.1922781 3.2873065 2.1253181 3.5917969 2.0742188 C 3.9117969 2.0205185 4.4069031 2 5.0957031 2 z M 6.9667969 6 C 6.8247792 6.0019106 6.6822831 6.0149119 6.5410156 6.0371094 C 5.9751356 6.1258094 5.4464481 6.3742862 5.0175781 6.7539062 C 4.5893581 7.1323162 4.2755075 7.6252613 4.1171875 8.1757812 C 3.9590375 8.7257013 3.9609169 9.309815 4.1230469 9.859375 C 4.2850069 10.408865 4.60007 10.899301 5.03125 11.275391 A 0.5 0.5 0 0 0 5.7363281 11.226562 A 0.5 0.5 0 0 0 5.6894531 10.521484 C 5.4006331 10.269564 5.1900612 9.9426819 5.0820312 9.5761719 C 4.9740212 9.2097319 4.972365 8.8192419 5.078125 8.4511719 C 5.183655 8.0842219 5.3925575 7.7554031 5.6796875 7.5019531 C 5.9648075 7.2495731 6.3191356 7.0846706 6.6972656 7.0253906 C 7.0741856 6.9661906 7.4596569 7.0149988 7.8105469 7.1679688 C 8.1603769 7.3208788 8.4597681 7.5711819 8.6738281 7.8886719 A 0.5 0.5 0 0 0 9.3691406 8.0234375 A 0.5 0.5 0 0 0 9.5039062 7.328125 C 9.1839662 6.853615 8.7350975 6.4810531 8.2109375 6.2519531 C 7.8170975 6.0802106 7.3928498 5.9942681 6.9667969 6 z M 11.458984 7.0332031 C 11.418859 7.0362344 11.378844 7.0455938 11.339844 7.0585938 C 11.268844 7.0855938 11.204344 7.1275937 11.152344 7.1835938 L 5.6523438 12.183594 C 5.4943437 12.322594 5.4405781 12.544234 5.5175781 12.740234 C 5.5935781 12.936234 5.7860937 13.063594 5.9960938 13.058594 L 11.496094 13.058594 C 11.772094 13.058594 11.996094 12.834594 11.996094 12.558594 L 11.996094 7.5585938 C 12.004094 7.3935937 11.931781 7.2347656 11.800781 7.1347656 C 11.701781 7.0597656 11.579359 7.0241094 11.458984 7.0332031 z M 10.996094 8.6835938 L 10.996094 12.058594 L 7.2773438 12.058594 L 10.996094 8.6835938 z " />
</svg>
