<?xml version="1.0" encoding="UTF-8" standalone="no"?>
<svg
   width="16"
   height="16"
   version="1"
   id="svg44"
   sodipodi:docname="libreoffice-calc-symbolic.svg"
   inkscape:version="1.1.1 (3bf5ae0d25, 2021-09-20, custom)"
   xmlns:inkscape="http://www.inkscape.org/namespaces/inkscape"
   xmlns:sodipodi="http://sodipodi.sourceforge.net/DTD/sodipodi-0.dtd"
   xmlns="http://www.w3.org/2000/svg"
   xmlns:svg="http://www.w3.org/2000/svg">
  <sodipodi:namedview
     id="namedview46"
     pagecolor="#ffffff"
     bordercolor="#666666"
     borderopacity="1.0"
     inkscape:pageshadow="2"
     inkscape:pageopacity="0.0"
     inkscape:pagecheckerboard="0"
     showgrid="false"
     inkscape:zoom="45.254834"
     inkscape:cx="7.8113202"
     inkscape:cy="9.8994949"
     inkscape:window-width="1850"
     inkscape:window-height="1053"
     inkscape:window-x="0"
     inkscape:window-y="0"
     inkscape:window-maximized="1"
     inkscape:current-layer="svg44" />
  <defs
     id="defs24">
  </defs>
  <path
     id="path28"
     style="fill:#dfdfdf;fill-opacity:1"
     d="M 5.0957031 1 C 4.392449 1 3.8535249 1.016451 3.4277344 1.0878906 C 3.0071426 1.158458 2.7013678 1.2854303 2.4902344 1.4960938 C 2.2789814 1.7068499 2.1538654 2.0092779 2.0839844 2.4296875 C 2.0132804 2.8551318 1.99654 3.3968709 2 4.1015625 L 2 8 L 2 11.900391 C 1.99703 12.604251 2.0134294 13.145742 2.0839844 13.570312 C 2.1538444 13.990685 2.2789577 14.29312 2.4902344 14.503906 C 2.7013835 14.714559 3.0072068 14.84151 3.4277344 14.912109 C 3.85342 14.983543 4.3924288 15 5.0957031 15 L 10.904297 15 C 11.607598 15 12.147736 14.983579 12.572266 14.912109 C 12.992118 14.841439 13.296258 14.713839 13.505859 14.503906 C 13.715736 14.293664 13.841469 13.991431 13.912109 13.570312 C 13.983449 13.144894 14 12.603075 14 11.898438 L 14 8 L 14 6 L 9 1 L 5.0957031 1 z M 10.414062 1 L 14 4.5859375 L 14 4.1015625 C 14 3.3969309 13.983451 2.8551592 13.912109 2.4296875 C 13.841502 2.0086227 13.715763 1.7063707 13.505859 1.4960938 C 13.296278 1.2861665 12.992112 1.1585436 12.572266 1.0878906 C 12.14768 1.0164206 11.607618 1 10.904297 1 L 10.414062 1 z M 5.0957031 2 L 8.5859375 2 L 13 6.4140625 L 13 8 L 13 11.898438 C 13 12.588584 12.979381 13.084557 12.925781 13.404297 C 12.874281 13.711077 12.808075 13.785675 12.796875 13.796875 C 12.786675 13.807175 12.710585 13.874585 12.40625 13.925781 C 12.087751 13.979381 11.593237 14 10.904297 14 L 5.0957031 14 C 4.4069031 14 3.9118169 13.979481 3.5917969 13.925781 C 3.2871069 13.874721 3.2081125 13.807722 3.1953125 13.794922 C 3.1822125 13.781822 3.1207125 13.709422 3.0703125 13.40625 C 3.0176125 13.089251 2.997 12.593457 3 11.904297 L 3 11.902344 L 3 8 L 3 4.0996094 L 3 4.0957031 C 2.997 3.4064431 3.0174125 2.91214 3.0703125 2.59375 C 3.1207125 2.29058 3.1822125 2.2181781 3.1953125 2.2050781 C 3.2081125 2.1922781 3.2873065 2.1253181 3.5917969 2.0742188 C 3.9117969 2.0205186 4.4069031 2 5.0957031 2 z M 5 6 C 4.448 6 4 6.448 4 7 L 4 12 C 4 12.552 4.448 13 5 13 L 11 13 C 11.552 13 12 12.552 12 12 L 12 7 C 12 6.448 11.552 6 11 6 L 5 6 z M 5.5 7 L 7 7 L 7 8 L 5 8 L 5 7.5 C 5 7.224 5.224 7 5.5 7 z M 8 7 L 10.5 7 C 10.776 7 11 7.224 11 7.5 L 11 8 L 8 8 L 8 7 z M 5 9 L 7 9 L 7 10 L 5 10 L 5 9 z M 8 9 L 11 9 L 11 10 L 8 10 L 8 9 z M 5 11 L 7 11 L 7 12 L 5.5 12 C 5.224 12 5 11.776 5 11.5 L 5 11 z M 8 11 L 11 11 L 11 11.5 C 11 11.776 10.776 12 10.5 12 L 8 12 L 8 11 z " />
</svg>
