<?xml version="1.0" encoding="UTF-8" standalone="no"?>
<svg
   width="16"
   height="16"
   version="1"
   id="svg44"
   sodipodi:docname="libreoffice-impress-symbolic.svg"
   inkscape:version="1.1.1 (3bf5ae0d25, 2021-09-20, custom)"
   xmlns:inkscape="http://www.inkscape.org/namespaces/inkscape"
   xmlns:sodipodi="http://sodipodi.sourceforge.net/DTD/sodipodi-0.dtd"
   xmlns="http://www.w3.org/2000/svg"
   xmlns:svg="http://www.w3.org/2000/svg">
  <sodipodi:namedview
     id="namedview46"
     pagecolor="#ffffff"
     bordercolor="#666666"
     borderopacity="1.0"
     inkscape:pageshadow="2"
     inkscape:pageopacity="0.0"
     inkscape:pagecheckerboard="0"
     showgrid="false"
     inkscape:zoom="45.254834"
     inkscape:cx="7.8113202"
     inkscape:cy="9.8553007"
     inkscape:window-width="1850"
     inkscape:window-height="1053"
     inkscape:window-x="0"
     inkscape:window-y="0"
     inkscape:window-maximized="1"
     inkscape:current-layer="svg44" />
  <defs
     id="defs24">
  </defs>
  <path
     id="path28"
     style="fill:#dfdfdf;fill-opacity:1"
     d="m 5.0957031,1.0002693 c -0.7032541,0 -1.2421782,0.016451 -1.6679687,0.087891 -0.4205918,0.070567 -0.7263666,0.1975397 -0.9375,0.4082032 -0.211253,0.2107561 -0.336369,0.5131841 -0.40625,0.9335937 C 2.0132804,2.8554011 1.99654,3.3971402 2,4.1018318 V 8.0002693 11.90066 c -0.00297,0.70386 0.013429,1.245351 0.083984,1.669921 0.06986,0.420373 0.1949733,0.722808 0.40625,0.933594 0.2111491,0.210653 0.5169724,0.337604 0.9375,0.408203 0.425686,0.07143 0.9646944,0.08789 1.6679687,0.08789 h 5.8085939 c 0.703301,0 1.243439,-0.01642 1.667969,-0.08789 0.419852,-0.07067 0.723992,-0.19827 0.933593,-0.408203 0.209877,-0.210242 0.33561,-0.512475 0.40625,-0.933594 C 13.983449,13.145163 14,12.603343 14,11.898707 v -3.8984377 -2 l -5,-5 z m 5.3183589,0 L 14,4.5862068 V 4.1018318 C 14,3.3972002 13.983451,2.8554285 13.912109,2.4299568 13.841502,2.008892 13.715763,1.70664 13.505859,1.4963631 13.296278,1.2864358 12.992112,1.1588129 12.572266,1.0881599 12.14768,1.0166899 11.607618,1.0002693 10.904297,1.0002693 Z m -5.3183589,1 H 8.5859375 L 13,6.4143318 v 1.5859375 3.8984377 c 0,0.690146 -0.02062,1.186119 -0.07422,1.505859 -0.0515,0.30678 -0.117706,0.381378 -0.128906,0.392578 -0.0102,0.0103 -0.08629,0.07771 -0.390625,0.128906 -0.318498,0.0536 -0.813013,0.07422 -1.501953,0.07422 H 5.0957031 c -0.6888,0 -1.1838862,-0.02052 -1.5039062,-0.07422 -0.30469,-0.05106 -0.3836844,-0.118059 -0.3964844,-0.130859 -0.0131,-0.0131 -0.0746,-0.0855 -0.125,-0.388672 C 3.0176125,13.089521 2.997,12.593726 3,11.904566 v -0.002 -3.9023437 -3.9003906 -0.00391 c -0.003,-0.68926 0.017412,-1.1835631 0.070312,-1.5019531 0.0504,-0.30317 0.1119,-0.3755719 0.125,-0.3886719 0.0128,-0.0128 0.091994,-0.07976 0.3964844,-0.1308593 0.32,-0.0537 0.8151062,-0.074219 1.5039062,-0.074219 z m 5.9121089,4 c -1.8669991,-0.002 -4.1359058,0.00786 -6.0039058,0.00586 C 4.4499063,6.0061287 4,6.4540818 4,7.0080818 v 4.9960932 c 0,0.552001 0.4479999,1 1,1 h 6 c 0.552,0 1,-0.447 1,-1 10e-4,-1.259999 9.06e-4,-3.4508588 0.002,-5.0058588 0,-0.55 -0.443141,-0.9970469 -0.994141,-0.9980469 z m -5.5058589,1.0058594 4.9999999,0.00977 c 0.276,10e-4 0.5,0.2250001 0.5,0.5 v 4.0019527 c 0,0.277 -0.224,0.5 -0.5,0.5 H 5.5058594 c -0.277,-4e-6 -0.5029532,-0.224953 -0.5019532,-0.501953 0.004,-1.295 4.38e-5,-3.1337653 -0.00195,-4.0097653 -10e-4,-0.277 0.223,-0.501 0.5,-0.5 z m 0.5019531,0.9902344 v 1 h 1 v -1 z m 2,0 v 1 h 1.9999998 v -1 z m -2,2 v 0.9999999 h 1 V 9.9963631 Z m 2,0 V 10.996363 H 10.003906 V 9.9963631 Z" />
  <path
     id="rect63"
     d="m 10.003906,7.9963631 v 1 h 1 v -1 z m 0,2 v 0.9999999 h 1 V 9.9963631 Z"
     style="fill:#dfdfdf;fill-opacity:0.60000002" />
</svg>
